# This file uses centimeters as units for non-parametric coordinates.

mtllib cashiertable.mtl
g default
v -2.995874 0.020121 4.989681
v 0.000000 0.020121 4.989681
v -2.995874 2.735856 4.989681
v 0.000000 2.735856 4.989681
v -2.995874 3.500000 4.989681
v 0.000000 3.500000 4.989681
v -2.995874 3.500000 2.004475
v 0.000000 3.500000 2.004475
v -2.995874 2.735856 2.004475
v 0.000000 2.735856 2.004475
v -2.995874 0.020121 2.004475
v 0.000000 0.020121 2.004475
v 0.000000 2.087174 2.004475
v 0.000000 1.742597 2.004475
v -2.995874 2.087174 2.004475
v -2.995874 1.742597 2.004475
v -2.995874 0.020121 -4.994803
v 0.000000 0.020121 -4.994803
v 0.000000 2.735856 -4.994803
v -2.995874 2.735856 -4.994803
v 0.000000 3.500000 -4.994803
v -2.995874 3.500000 -4.994803
v 0.000000 3.500000 -2.001582
v -2.995874 3.500000 -2.001582
v -2.995874 2.735856 -2.001582
v 0.000000 2.735856 -2.001582
v 0.000000 2.087174 -2.001582
v -2.995874 2.087174 -2.001582
v -2.995874 0.020121 -2.001582
v 0.000000 0.020121 -2.001582
v 0.000000 1.742597 -2.001582
v -2.995874 1.742597 -2.001582
v 3.018637 0.020121 -4.994803
v 3.018637 2.735856 -4.994803
v 3.018637 2.735856 -2.001582
v 3.018637 1.807243 -2.001582
v 3.018637 1.462666 -2.001582
v 3.018637 0.020121 -2.001582
v 3.018637 3.500000 -4.994803
v 3.018637 3.500000 -2.001582
vt 0.575296 0.875857
vt 0.644308 0.875857
vt 0.139406 0.929361
vt 0.644308 0.931698
vt 0.139406 0.943189
vt 0.193621 0.943189
vt 0.575296 0.550315
vt 0.644308 0.550315
vt 0.575296 0.619081
vt 0.644308 0.619081
vt 0.644308 0.711363
vt 0.575296 0.711363
vt 0.644308 0.780313
vt 0.575296 0.780313
vt 0.713844 0.780313
vt 0.713844 0.711363
vt 0.718726 0.944869
vt 0.718726 0.875857
vt 0.731895 0.944869
vt 0.731895 0.875857
vt 0.772084 0.944869
vt 0.772084 0.875857
vt 0.840850 0.944869
vt 0.840850 0.875857
vt 0.793586 0.711363
vt 0.793586 0.642597
vt 0.849427 0.711363
vt 0.828320 0.642597
vt 0.344416 0.702245
vt 0.344416 0.629749
vt 0.338180 0.629749
vt 0.354762 0.702245
vt 0.368590 0.756267
vt 0.368590 0.702245
vt 0.354762 0.629749
vt 0.368590 0.629749
vt 0.790576 0.711548
vt 0.790576 0.780313
vt 0.281242 0.756412
vt 0.264661 0.810434
vt 0.275007 0.756412
vt 0.264661 0.756412
vt 0.275007 0.683916
vt 0.281242 0.683916
vt 0.250833 0.756412
vt 0.264661 0.629749
vt 0.250833 0.810434
vt 0.250833 0.683916
vt 0.264661 0.683916
vt 0.790576 0.550315
vt 0.790576 0.619266
vt 0.250833 0.629749
vt 0.734654 0.944869
vt 0.734654 0.875857
vt 0.769387 0.944869
vt 0.769387 0.875857
vt 0.943483 0.688863
vt 0.887642 0.688863
vt 0.943483 0.619851
vt 0.887642 0.619851
vt 0.370955 0.738591
vt 0.943483 0.550315
vt 0.370955 0.684376
vt 0.384784 0.629749
vt 0.370955 0.629749
vt 0.964690 0.829041
vt 0.951521 0.829041
vt 0.445312 0.794499
vt 0.951521 0.760030
vt 0.964690 0.690494
vt 0.943299 0.690494
vt 0.459140 0.739872
vt 0.943583 0.760030
vt 0.459140 0.794499
vt 0.935361 0.690494
vt 0.908849 0.760030
vt 0.908849 0.829041
vt 0.908849 0.690494
vt 0.943583 0.829041
vt 0.906342 0.851541
vt 0.837392 0.851541
vt 0.906342 0.782530
vt 0.837392 0.782530
vt 0.906342 0.712994
vt 0.837392 0.712994
vt 0.716001 0.875857
vt 0.716001 0.931698
vt 0.647051 0.875857
vt 0.647051 0.902369
vt 0.647051 0.910307
vt 0.195776 0.929361
vt 0.249943 0.943189
vt 0.195776 0.943189
vt 0.765873 0.781944
vt 0.834885 0.781944
vt 0.834885 0.874226
vt 0.765873 0.874226
vt 0.694355 0.781944
vt 0.763366 0.781944
vt 0.763366 0.874226
vt 0.694355 0.874226
vt 0.622836 0.781944
vt 0.691848 0.781944
vt 0.691848 0.874226
vt 0.622836 0.874226
vt 0.836258 0.642597
vt 0.836258 0.642597
vt 0.763366 0.781944
vt 0.344416 0.702245
vt 0.943583 0.760030
vt 0.943583 0.760030
vt 0.943583 0.760030
vt 0.943583 0.760030
vt 0.622836 0.874226
vt 0.338180 0.629749
vt 0.731895 0.944869
vt 0.747905 0.711548
vt 0.747905 0.711548
vt 0.275007 0.756412
vt 0.755843 0.619266
vt 0.755843 0.619266
vt 0.755843 0.619266
vt 0.281242 0.683916
vt 0.755843 0.711548
vt 0.755843 0.711548
vt 0.755843 0.711548
vt 0.691848 0.781944
vt 0.747905 0.619266
vt 0.747905 0.619266
vt 0.951521 0.829041
vt 0.694355 0.874226
vt 0.575296 0.619081
vt 0.575296 0.619081
vt 0.250833 0.756412
vt 0.250833 0.756412
vt 0.250833 0.756412
vt 0.734736 0.619266
vt 0.264661 0.683916
vt 0.264661 0.683916
vt 0.368590 0.702245
vt 0.644308 0.619081
vt 0.644308 0.619081
vt 0.250833 0.683916
vt 0.250833 0.683916
vt 0.575296 0.711363
vt 0.575296 0.711363
vt 0.575296 0.711363
vt 0.264661 0.756412
vt 0.734736 0.711548
vt 0.834885 0.781944
vt 0.445312 0.794499
vt 0.964690 0.760030
vt 0.964690 0.760030
vt 0.964690 0.760030
vt 0.765873 0.874226
vt 0.718726 0.875857
vt 0.849427 0.642597
vt 0.354762 0.702245
vt 0.354762 0.702245
vt 0.354762 0.702245
vt 0.644308 0.711363
vt 0.644308 0.711363
vt 0.644308 0.711363
vt 0.368590 0.629749
vt 0.734654 0.875857
vt 0.828320 0.642597
vt 0.338180 0.702245
vt 0.951521 0.760030
vt 0.951521 0.760030
vt 0.951521 0.760030
vt 0.459140 0.739872
vt 0.249943 0.943189
vt 0.713844 0.780313
vt 0.644308 0.780313
vt 0.644308 0.780313
vt 0.370955 0.684376
vt 0.370955 0.684376
vt 0.887642 0.550315
vt 0.716001 0.931698
vt 0.716001 0.931698
vt 0.716001 0.931698
vt 0.249943 0.929361
vt 0.384784 0.629749
vt 0.943483 0.619851
vt 0.943483 0.619851
vt 0.837392 0.782530
vt 0.837392 0.782530
vt 0.647051 0.875857
vt 0.906342 0.712994
vt 0.906342 0.782530
vt 0.906342 0.782530
vt 0.908849 0.760030
vt 0.908849 0.760030
vt 0.935361 0.690494
vt 0.647051 0.902369
vt 0.935361 0.690494
vt 0.943299 0.690494
vt 0.647051 0.910307
vt 0.943299 0.690494
vt 0.445312 0.739872
vt 0.195776 0.929361
vt 0.647051 0.931698
vt 0.964690 0.690494
vt 0.384784 0.684376
vt 0.384784 0.684376
vt 0.384784 0.684376
vt 0.887642 0.619851
vt 0.887642 0.619851
vt 0.943483 0.550315
vt 0.908849 0.829041
vt 0.734736 0.550315
vt 0.734736 0.550315
vt 0.734736 0.550315
vt 0.887642 0.688863
vt 0.384784 0.738591
vt 0.264661 0.629749
vt 0.837392 0.851541
vt 0.790576 0.550315
vt 0.370955 0.738591
vt 0.769387 0.944869
vt 0.575296 0.931698
vt 0.575296 0.931698
vt 0.734736 0.780313
vt 0.734736 0.780313
vt 0.734736 0.780313
vt 0.264661 0.810434
vt 0.840850 0.944869
vt 0.790576 0.780313
vt 0.644308 0.550315
vt 0.368590 0.756267
vt 0.849427 0.711363
vt 0.849427 0.711363
vt 0.193621 0.929361
vt 0.193621 0.929361
vt 0.354762 0.756267
vt 0.849427 0.711363
vt 0.772084 0.875857
vt 0.793586 0.642597
vt 0.139406 0.943189
vt 0.644308 0.875857
vn 0.000000 0.000000 1.000000
vn 0.000000 0.000000 1.000000
vn 0.000000 0.000000 1.000000
vn 0.000000 0.000000 1.000000
vn 0.000000 0.000000 1.000000
vn 0.000000 0.000000 1.000000
vn 0.000000 1.000000 0.000000
vn 0.000000 1.000000 0.000000
vn 0.000000 1.000000 0.000000
vn 0.000000 1.000000 0.000000
vn 0.000000 0.000000 -1.000000
vn 0.000000 0.000000 -1.000000
vn 0.000000 0.000000 -1.000000
vn 0.000000 0.000000 -1.000000
vn 0.000000 -1.000000 0.000000
vn 0.000000 -1.000000 0.000000
vn 0.000000 -1.000000 0.000000
vn 0.000000 -1.000000 0.000000
vn 1.000000 0.000000 0.000000
vn 1.000000 0.000000 0.000000
vn 1.000000 0.000000 0.000000
vn 1.000000 0.000000 0.000000
vn 1.000000 0.000000 0.000000
vn 1.000000 0.000000 0.000000
vn 1.000000 0.000000 0.000000
vn 1.000000 0.000000 0.000000
vn -1.000000 0.000000 0.000000
vn -1.000000 0.000000 0.000000
vn -1.000000 0.000000 0.000000
vn -1.000000 0.000000 0.000000
vn -1.000000 0.000000 0.000000
vn -1.000000 0.000000 -0.000000
vn -1.000000 0.000000 -0.000000
vn -1.000000 0.000000 0.000000
vn 0.000000 0.000000 -1.000000
vn 0.000000 0.000000 -1.000000
vn 0.000000 0.000000 -1.000000
vn 0.000000 0.000000 -1.000000
vn 0.000000 0.000000 -1.000000
vn 0.000000 0.000000 -1.000000
vn 0.000000 0.000000 -1.000000
vn 0.000000 0.000000 -1.000000
vn 0.000000 0.000000 -1.000000
vn 0.000000 0.000000 -1.000000
vn 0.000000 1.000000 0.000000
vn 0.000000 1.000000 0.000000
vn 0.000000 1.000000 0.000000
vn 0.000000 1.000000 0.000000
vn 0.000000 0.000000 1.000000
vn 0.000000 0.000000 1.000000
vn 0.000000 0.000000 1.000000
vn -0.000000 0.000000 1.000000
vn 0.000000 -1.000000 0.000000
vn 0.000000 -1.000000 0.000000
vn 0.000000 -1.000000 0.000000
vn 0.000000 -1.000000 0.000000
vn 1.000000 0.000000 0.000000
vn 1.000000 0.000000 0.000000
vn 1.000000 0.000000 0.000000
vn 1.000000 0.000000 0.000000
vn 1.000000 0.000000 0.000000
vn 1.000000 0.000000 0.000000
vn 1.000000 0.000000 0.000000
vn 1.000000 0.000000 0.000000
vn -1.000000 0.000000 0.000000
vn -1.000000 0.000000 -0.000000
vn -1.000000 0.000000 -0.000000
vn -1.000000 0.000000 -0.000000
vn -1.000000 0.000000 -0.000000
vn -1.000000 0.000000 -0.000000
vn -1.000000 0.000000 -0.000000
vn -1.000000 0.000000 0.000000
vn 0.000000 0.000000 1.000000
vn 0.000000 0.000000 1.000000
vn -0.000000 0.000000 1.000000
vn -0.000000 0.000000 1.000000
vn 0.000000 0.000000 -1.000000
vn 0.000000 0.000000 -1.000000
vn 0.000000 0.000000 1.000000
vn -0.000000 0.000000 1.000000
vn -0.000000 0.000000 1.000000
vn 0.000000 0.000000 1.000000
vn 0.000000 -1.000000 0.000000
vn 0.000000 -1.000000 0.000000
vn 0.000000 0.000000 -1.000000
vn 0.000000 1.000000 0.000000
vn 0.000000 1.000000 0.000000
vn 0.000000 0.000000 1.000000
vn 0.000000 0.000000 1.000000
vn 1.000000 0.000000 0.000000
vn 1.000000 0.000000 0.000000
vn 0.000000 -1.000000 0.000000
vn 0.000000 -1.000000 0.000000
vn 0.000000 -1.000000 0.000000
vn 0.000000 -1.000000 0.000000
vn 0.000000 1.000000 0.000000
vn 0.000000 1.000000 0.000000
vn 0.000000 1.000000 0.000000
vn 0.000000 1.000000 0.000000
vn 0.000000 -1.000000 0.000000
vn 0.000000 -1.000000 0.000000
vn 0.000000 -1.000000 0.000000
vn 0.000000 -1.000000 0.000000
vn 1.000000 0.000000 0.000000
vn 1.000000 0.000000 0.000000
vn 1.000000 0.000000 0.000000
vn 1.000000 0.000000 0.000000
s 1
g SuperMarket:pCube1
usemtl lambert2SG
f 1/1/1 2/240/2 3/222/3
f 3/221/3 2/2/2 4/4/4
f 3/3/3 4/233/4 5/5/5
f 5/239/5 4/234/4 6/6/6
s 2
f 5/7/7 6/8/8 7/133/9
f 7/132/9 6/229/8 8/141/10
s 3
f 9/17/11 10/18/12 15/116/13
f 15/19/13 10/156/12 13/20/14
s 4
f 11/21/15 12/22/16 1/227/17
f 1/23/17 12/237/16 2/24/18
s 5
f 2/25/19 12/238/20 4/232/21
f 12/26/20 14/28/22 4/231/21
f 14/166/22 13/106/23 4/27/21
f 13/107/23 10/157/24 4/236/21
f 4/235/21 10/158/24 6/33/25
f 6/230/25 10/159/24 8/140/26
s 6
f 11/37/27 1/228/28 16/126/29
f 1/38/28 3/223/30 16/125/29
f 16/124/29 3/224/30 15/118/31
f 3/225/30 9/149/32 15/117/31
f 9/148/32 3/226/30 7/135/33
f 7/134/33 3/40/30 5/47/34
s 7
f 16/53/35 14/54/36 11/55/37
f 11/220/37 14/165/36 12/56/38
s 8
f 17/57/39 20/58/40 18/185/41
f 18/184/41 20/214/40 19/207/42
f 20/215/40 22/219/43 19/206/42
f 19/205/42 22/61/43 21/176/44
s 2
f 22/14/45 24/145/46 21/175/47
f 21/174/47 24/146/46 23/161/48
s 10
f 25/66/49 28/67/50 26/154/51
f 26/153/51 28/130/50 27/69/52
s 11
f 29/80/53 17/81/54 30/191/55
f 30/190/55 17/217/54 18/186/56
s 12
f 33/86/57 34/87/58 38/188/59
f 38/88/59 34/179/58 37/195/60
f 37/89/60 34/180/58 36/198/61
f 34/181/58 35/202/62 36/90/61
f 34/182/58 39/92/63 35/201/62
f 35/91/62 39/172/63 40/93/64
s 6
f 29/51/65 32/120/66 17/50/67
f 17/218/67 32/121/66 20/213/68
f 32/122/66 28/128/69 20/212/68
f 28/129/69 25/137/70 20/211/68
f 25/138/70 24/143/71 20/46/68
f 20/216/68 24/144/71 22/52/72
s 10
f 32/79/73 29/210/74 31/113/75
f 31/112/75 29/77/74 30/192/76
s 8
f 18/59/41 19/208/42 33/62/77
f 33/209/77 19/60/42 34/178/78
s 10
f 26/152/51 27/168/52 35/70/79
f 35/203/79 27/169/52 36/197/80
f 27/170/52 31/73/75 36/71/80
f 36/199/80 31/110/75 37/194/81
f 31/111/75 30/193/76 37/75/81
f 37/196/81 30/76/76 38/78/82
s 11
f 30/82/55 18/187/56 38/84/83
f 38/189/83 18/83/56 33/85/84
s 8
f 19/204/42 21/177/44 34/64/78
f 34/183/78 21/63/44 39/65/85
s 2
f 21/13/47 23/162/48 39/15/86
f 39/173/86 23/163/48 40/16/87
s 10
f 23/74/88 26/68/51 40/72/89
f 40/171/89 26/151/51 35/200/79
s 5
f 8/34/26 10/160/24 23/36/90
f 23/164/90 10/32/24 26/35/91
s 15
f 10/94/92 9/150/93 26/97/94
f 26/155/94 9/95/93 25/96/95
s 2
f 7/9/9 8/142/10 24/12/46
f 24/147/46 8/10/10 23/11/48
s 6
f 9/42/32 7/136/33 25/49/70
f 25/139/70 7/45/33 24/48/71
s 16
f 15/98/96 13/99/97 28/101/98
f 28/131/98 13/108/97 27/100/99
s 17
f 14/102/100 16/127/101 31/114/102
f 31/105/102 16/103/101 32/104/103
s 6
f 16/39/29 15/119/31 32/44/66
f 32/123/66 15/41/31 28/43/69
s 18
f 27/30/104 13/109/105 31/31/106
f 31/115/106 13/29/105 14/167/107
