# This file uses centimeters as units for non-parametric coordinates.

mtllib cashregister.mtl
g default
v -0.905519 0.000665 0.894123
v 0.921215 0.000665 0.894123
v -0.905519 0.321177 0.894123
v 0.921215 0.321177 0.894123
v -0.905519 0.321177 -0.899952
v 0.921215 0.321177 -0.899952
v -0.905519 0.000665 -0.899952
v 0.921215 0.000665 -0.899952
v 0.620606 0.321177 0.894123
v 0.620606 0.321177 -0.899952
v 0.620606 0.000665 -0.899952
v 0.620606 0.000665 0.894123
v -0.905519 1.013554 0.894123
v -0.254521 1.013554 0.894123
v -0.254521 1.013554 -0.899952
v -0.905519 1.013554 -0.899952
vt 0.947690 0.636165
vt 0.947690 0.718385
vt 0.783251 0.718385
vt 0.783251 0.636165
vt 0.783251 0.636165
vt 0.783251 0.718385
vt 0.618813 0.718385
vt 0.618813 0.636165
vt 0.618813 0.636165
vt 0.618813 0.718385
vt 0.454374 0.718385
vt 0.454374 0.636165
vt 0.289936 0.718385
vt 0.289936 0.636165
vt 0.947690 0.800604
vt 0.947690 0.965042
vt 0.783251 0.965042
vt 0.783251 0.800604
vt 0.947690 0.471727
vt 0.783251 0.471727
vt 0.618813 0.800604
vt 0.454374 0.800604
vt 0.289936 0.800604
vt 0.178935 0.262394
vt 0.769738 0.277962
vt 0.766984 0.491447
vt 0.176181 0.475879
vn 0.000000 -0.000001 1.000000
vn 0.000000 -0.000001 1.000000
vn 0.000000 -0.000000 1.000000
vn 0.000000 -0.000000 1.000000
vn 0.000000 1.000000 0.000000
vn 0.000000 1.000000 0.000000
vn 0.000000 1.000000 0.000000
vn 0.000000 1.000000 0.000000
vn 0.000000 0.000000 -1.000000
vn 0.000000 0.000000 -1.000000
vn 0.000000 0.000000 -1.000000
vn 0.000000 0.000000 -1.000000
vn 0.000000 -1.000000 0.000000
vn 0.000000 -1.000000 0.000000
vn 0.000000 -1.000000 0.000000
vn 0.000000 -1.000000 0.000000
vn 1.000000 -0.000001 0.000000
vn 1.000000 -0.000001 0.000000
vn 1.000000 -0.000001 0.000000
vn 1.000000 -0.000001 0.000000
vn -1.000000 0.000000 0.000000
vn -1.000000 0.000000 0.000000
vn -1.000000 0.000000 0.000000
vn -1.000000 0.000000 0.000000
vn 0.000000 1.000000 0.000000
vn 0.000000 1.000000 0.000000
vn 0.000000 1.000000 0.000000
vn 0.000000 1.000000 0.000000
vn 0.000000 0.000000 -1.000000
vn 0.000000 0.000000 -1.000000
vn 0.000000 -1.000000 0.000000
vn 0.000000 -1.000000 0.000000
vn 0.000000 -0.000001 1.000000
vn 0.000000 -0.000001 1.000000
vn 0.000000 0.000000 1.000000
vn 0.000000 0.000000 1.000000
vn 0.620465 0.784234 0.000000
vn 0.620465 0.784234 0.000000
vn 0.620465 0.784234 0.000000
vn 0.620465 0.784234 0.000000
vn 0.000000 0.000000 -1.000000
vn 0.000000 0.000000 -1.000000
vn -1.000000 0.000000 0.000000
vn -1.000000 0.000000 0.000000
s 1
g Scanner1
usemtl lambert6SG
f 1/1/1 12/2/2 9/3/3 3/4/4
s off
f 13/5/5 14/6/6 15/7/7 16/8/8
s 2
f 5/9/9 10/10/10 11/11/11 7/12/12
s 3
f 7/12/13 11/11/14 12/13/15 1/14/16
s off
f 2/15/17 8/16/18 6/17/19 4/18/20
s 4
f 7/19/21 1/1/22 3/4/23 5/20/24
s off
f 9/3/25 4/18/26 6/21/27 10/10/28
s 2
f 11/11/11 10/10/10 6/21/29 8/22/30
s 3
f 12/13/15 11/11/14 8/22/31 2/23/32
s 1
f 9/3/3 12/2/2 2/15/33 4/18/34
f 3/4/4 9/3/3 14/6/35 13/5/36
s off
f 9/24/37 10/25/38 15/26/39 14/27/40
s 2
f 10/10/10 5/9/9 16/8/41 15/7/42
s 4
f 5/9/24 3/4/23 13/5/43 16/8/44
