# This file uses centimeters as units for non-parametric coordinates.

mtllib cereal.mtl
g default
v -0.700000 0.000000 0.200000
v 0.700000 0.000000 0.200000
v -0.700000 2.000000 0.200000
v 0.700000 2.000000 0.200000
v -0.700000 2.000000 -0.200000
v 0.700000 2.000000 -0.200000
v -0.700000 0.000000 -0.200000
v 0.700000 0.000000 -0.200000
vt 0.674550 0.500406
vt 0.996551 0.500406
vt 0.996551 0.999145
vt 0.674550 0.999145
vt 0.097375 0.997058
vt 0.097375 0.497972
vt 0.242852 0.497972
vt 0.242852 0.997058
vt 0.999572 0.498448
vt 0.677570 0.498448
vt 0.677570 -0.000291
vt 0.999572 -0.000291
vt 0.101695 0.500674
vt 0.101695 0.001587
vt 0.247172 0.001587
vt 0.247172 0.500674
vt 0.250041 0.001645
vt 0.457706 0.001645
vt 0.457706 0.998851
vt 0.250041 0.998851
vt 0.462328 0.001645
vt 0.669994 0.001645
vt 0.669994 0.998851
vt 0.462328 0.998851
vn 0.000000 0.000000 1.000000
vn 0.000000 0.000000 1.000000
vn 0.000000 0.000000 1.000000
vn 0.000000 0.000000 1.000000
vn 0.000000 1.000000 0.000000
vn 0.000000 1.000000 0.000000
vn 0.000000 1.000000 0.000000
vn 0.000000 1.000000 0.000000
vn 0.000000 0.000000 -1.000000
vn 0.000000 0.000000 -1.000000
vn 0.000000 0.000000 -1.000000
vn 0.000000 0.000000 -1.000000
vn 0.000000 -1.000000 0.000000
vn 0.000000 -1.000000 0.000000
vn 0.000000 -1.000000 0.000000
vn 0.000000 -1.000000 0.000000
vn 1.000000 0.000000 0.000000
vn 1.000000 0.000000 0.000000
vn 1.000000 0.000000 0.000000
vn 1.000000 0.000000 0.000000
vn -1.000000 0.000000 0.000000
vn -1.000000 0.000000 0.000000
vn -1.000000 0.000000 0.000000
vn -1.000000 0.000000 0.000000
s off
g pCube3
usemtl lambert5SG
f 1/1/1 2/2/2 4/3/3 3/4/4
f 3/5/5 4/6/6 6/7/7 5/8/8
f 5/9/9 6/10/10 8/11/11 7/12/12
f 7/13/13 8/14/14 2/15/15 1/16/16
f 2/17/17 8/18/18 6/19/19 4/20/20
f 7/21/21 1/22/22 3/23/23 5/24/24
