# This file uses centimeters as units for non-parametric coordinates.

mtllib door.mtl
g default
v -2.000000 0.000000 0.132808
v 2.000000 0.000000 0.132808
v -2.000000 8.000000 0.132808
v 2.000000 8.000000 0.132808
v -2.000000 8.000000 -0.132808
v 2.000000 8.000000 -0.132808
v -2.000000 0.000000 -0.132808
v 2.000000 0.000000 -0.132808
vt -0.000687 0.000927
vt 0.500387 0.000927
vt 0.500387 1.003074
vt -0.000687 1.003074
vt 0.805811 0.502639
vt 0.805811 0.042225
vt 0.851852 0.042225
vt 0.851852 0.502639
vt -0.000424 1.003074
vt 0.500649 1.003074
vt 0.500649 0.000927
vt -0.000424 0.000927
vt 0.806473 0.967528
vt 0.806473 0.507114
vt 0.852515 0.507114
vt 0.852515 0.967528
vt 0.696552 0.042225
vt 0.742593 0.042225
vt 0.742593 0.963053
vt 0.696552 0.963053
vt 0.751181 0.042225
vt 0.797223 0.042225
vt 0.797223 0.963053
vt 0.751181 0.963053
vn 0.000000 0.000000 1.000000
vn 0.000000 0.000000 1.000000
vn 0.000000 0.000000 1.000000
vn 0.000000 0.000000 1.000000
vn 0.000000 1.000000 0.000000
vn 0.000000 1.000000 0.000000
vn 0.000000 1.000000 0.000000
vn 0.000000 1.000000 0.000000
vn 0.000000 0.000000 -1.000000
vn 0.000000 0.000000 -1.000000
vn 0.000000 0.000000 -1.000000
vn 0.000000 0.000000 -1.000000
vn 0.000000 -1.000000 0.000000
vn 0.000000 -1.000000 0.000000
vn 0.000000 -1.000000 0.000000
vn 0.000000 -1.000000 0.000000
vn 1.000000 0.000000 0.000000
vn 1.000000 0.000000 0.000000
vn 1.000000 0.000000 0.000000
vn 1.000000 0.000000 0.000000
vn -1.000000 0.000000 0.000000
vn -1.000000 0.000000 0.000000
vn -1.000000 0.000000 0.000000
vn -1.000000 0.000000 0.000000
s 1
g pCube1
usemtl lambert2SG
f 1/1/1 2/2/2 3/4/3
f 3/4/3 2/2/2 4/3/4
s 2
f 3/5/5 4/6/6 5/8/7
f 5/8/7 4/6/6 6/7/8
s 3
f 5/9/9 6/10/10 7/12/11
f 7/12/11 6/10/10 8/11/12
s 4
f 7/13/13 8/14/14 1/16/15
f 1/16/15 8/14/14 2/15/16
s 5
f 2/17/17 8/18/18 4/20/19
f 4/20/19 8/18/18 6/19/20
s 6
f 7/21/21 1/22/22 5/24/23
f 5/24/23 1/22/22 3/23/24
