# This file uses centimeters as units for non-parametric coordinates.

mtllib elevatordoor.mtl
g default
v -4.375000 0.000000 0.262500
v 4.375000 0.000000 0.262500
v -4.375000 17.500000 0.262500
v 4.375000 17.500000 0.262500
v -4.375000 17.500000 -0.262500
v 4.375000 17.500000 -0.262500
v -4.375000 0.000000 -0.262500
v 4.375000 0.000000 -0.262500
vt 0.001992 0.001651
vt 0.412631 0.001651
vt 0.001992 0.822929
vt 0.412631 0.822929
vt 0.933786 0.412290
vt 0.933786 0.001651
vt 0.974850 0.412290
vt 0.974850 0.001651
vt 0.829902 0.822929
vt 0.419263 0.822929
vt 0.829902 0.001651
vt 0.419263 0.001651
vt 0.956944 0.826921
vt 0.956944 0.416282
vt 0.998008 0.826921
vt 0.998008 0.416282
vt 0.836339 0.001651
vt 0.877403 0.001651
vt 0.836339 0.822929
vt 0.877403 0.822929
vt 0.885062 0.001651
vt 0.926126 0.001651
vt 0.885062 0.822929
vt 0.926126 0.822929
vn 0.000000 0.000000 1.000000
vn 0.000000 0.000000 1.000000
vn 0.000000 0.000000 1.000000
vn 0.000000 0.000000 1.000000
vn 0.000000 1.000000 0.000000
vn 0.000000 1.000000 0.000000
vn 0.000000 1.000000 0.000000
vn 0.000000 1.000000 0.000000
vn 0.000000 0.000000 -1.000000
vn 0.000000 0.000000 -1.000000
vn 0.000000 0.000000 -1.000000
vn 0.000000 0.000000 -1.000000
vn 0.000000 -1.000000 0.000000
vn 0.000000 -1.000000 0.000000
vn 0.000000 -1.000000 0.000000
vn 0.000000 -1.000000 0.000000
vn 1.000000 0.000000 0.000000
vn 1.000000 0.000000 0.000000
vn 1.000000 0.000000 0.000000
vn 1.000000 0.000000 0.000000
vn -1.000000 0.000000 0.000000
vn -1.000000 0.000000 0.000000
vn -1.000000 0.000000 0.000000
vn -1.000000 0.000000 0.000000
s 1
g pCube1 group1 pCube6
usemtl lambert11SG
f 1/1/1 2/2/2 3/3/3
f 3/3/3 2/2/2 4/4/4
s 2
f 3/5/5 4/6/6 5/7/7
f 5/7/7 4/6/6 6/8/8
s 3
f 5/9/9 6/10/10 7/11/11
f 7/11/11 6/10/10 8/12/12
s 4
f 7/13/13 8/14/14 1/15/15
f 1/15/15 8/14/14 2/16/16
s 5
f 2/17/17 8/18/18 4/19/19
f 4/19/19 8/18/18 6/20/20
s 6
f 7/21/21 1/22/22 5/23/23
f 5/23/23 1/22/22 3/24/24
