# This file uses centimeters as units for non-parametric coordinates.

mtllib fishtanktop.mtl
g default
v -7.000000 -0.875000 3.937500
v 7.000000 -0.875000 3.937500
v -7.000000 0.875000 3.937500
v 7.000000 0.875000 3.937500
v -7.000000 0.875000 -3.937500
v 7.000000 0.875000 -3.937500
v -7.000000 -0.875000 -3.937500
v 7.000000 -0.875000 -3.937500
vt 0.001895 0.870868
vt 0.001895 0.374758
vt 0.249950 0.374758
vt 0.249950 0.870868
vt 0.256032 0.870868
vt 0.256032 0.374758
vt 0.535094 0.374758
vt 0.535094 0.870868
vt 0.541496 0.870868
vt 0.541496 0.374758
vt 0.789551 0.374758
vt 0.789551 0.870868
vt 0.670151 0.998008
vt 0.670151 0.501898
vt 0.949213 0.501898
vt 0.949213 0.998008
vt 0.416261 0.780960
vt 0.416261 0.501898
vt 0.664316 0.501898
vt 0.664316 0.780960
vt 0.410426 0.501898
vt 0.410426 0.780960
vt 0.162371 0.780960
vt 0.162371 0.501898
vn 0.000000 0.000000 1.000000
vn 0.000000 0.000000 1.000000
vn 0.000000 0.000000 1.000000
vn 0.000000 0.000000 1.000000
vn 0.000000 1.000000 0.000000
vn 0.000000 1.000000 0.000000
vn 0.000000 1.000000 0.000000
vn 0.000000 1.000000 0.000000
vn 0.000000 0.000000 -1.000000
vn 0.000000 0.000000 -1.000000
vn 0.000000 0.000000 -1.000000
vn 0.000000 0.000000 -1.000000
vn 0.000000 -1.000000 0.000000
vn 0.000000 -1.000000 0.000000
vn 0.000000 -1.000000 0.000000
vn 0.000000 -1.000000 0.000000
vn 1.000000 0.000000 0.000000
vn 1.000000 0.000000 0.000000
vn 1.000000 0.000000 0.000000
vn 1.000000 0.000000 0.000000
vn -1.000000 0.000000 0.000000
vn -1.000000 0.000000 0.000000
vn -1.000000 0.000000 0.000000
vn -1.000000 0.000000 0.000000
s off
g pCube21 group1
usemtl lambert7SG
f 1/1/1 2/2/2 4/3/3 3/4/4
f 3/5/5 4/6/6 6/7/7 5/8/8
f 5/9/9 6/10/10 8/11/11 7/12/12
f 7/13/13 8/14/14 2/15/15 1/16/16
f 2/17/17 8/18/18 6/19/19 4/20/20
f 7/21/21 1/22/22 3/23/23 5/24/24
