# This file uses centimeters as units for non-parametric coordinates.

mtllib laptop.mtl
g default
v 1.750000 2.412562 0.657299
v 1.750000 -0.000000 0.107270
v 1.750000 -0.000000 -2.275000
v 1.750000 2.587562 0.550029
v 1.750000 0.175000 -0.000000
v 1.750000 0.175000 -2.275000
v -1.750000 2.587562 0.550029
v -1.750000 0.175000 -0.000000
v -1.750000 0.175000 -2.275000
v -1.750000 2.412562 0.657299
v -1.750000 -0.000000 0.107270
v -1.750000 -0.000000 -2.275000
vt 0.903861 0.371437
vt 0.831249 0.354883
vt 0.836516 0.351654
vt 0.909128 0.368209
vt 0.831249 0.283183
vt 0.836516 0.283183
vt -0.000719 1.000707
vt -0.000719 0.529393
vt 0.813275 0.529393
vt 0.813276 1.000707
vt 0.886554 0.505549
vt 0.886554 0.922697
vt 0.009295 0.473788
vt 0.009295 0.000354
vt 0.738251 0.000354
vt 0.738251 0.473788
vt 0.751821 0.368209
vt 0.824433 0.351654
vt 0.829700 0.354883
vt 0.757088 0.371437
vt 0.824433 0.283183
vt 0.829700 0.283183
vt 0.882418 0.176835
vt 0.955030 0.176835
vt 0.955030 0.282175
vt 0.882418 0.282175
vt 0.989193 0.388524
vt 0.917493 0.388524
vt 0.917493 0.283183
vt 0.989193 0.283183
vt 0.910677 0.388524
vt 0.910677 0.283183
vt 0.915944 0.283183
vt 0.915944 0.388524
vt 0.829700 0.354883
vt 0.831249 0.354883
vt 0.824433 0.351654
vt 0.907411 0.505549
vt 0.836516 0.351654
vt 0.907411 0.922697
vn 1.000000 0.000000 0.000001
vn 1.000000 0.000000 0.000000
vn 1.000000 0.000000 0.000001
vn 1.000000 0.000000 0.000001
vn 1.000000 0.000000 0.000000
vn 1.000000 0.000000 0.000000
vn 0.000000 0.222282 -0.974983
vn 0.000000 0.760438 -0.649411
vn 0.000000 0.760438 -0.649411
vn 0.000000 0.222282 -0.974983
vn 0.000000 1.000000 0.000000
vn 0.000000 1.000000 0.000000
vn -1.000000 0.000000 0.000001
vn -1.000000 0.000000 0.000001
vn -1.000000 0.000000 0.000000
vn -1.000000 0.000000 0.000001
vn -1.000000 0.000000 -0.000000
vn -1.000000 0.000000 -0.000000
vn -0.000000 -0.222282 0.974983
vn -0.000000 -0.772224 0.635351
vn -0.000000 -0.772224 0.635351
vn -0.000000 -0.222282 0.974983
vn 0.000000 -1.000000 0.000000
vn 0.000000 -1.000000 0.000000
vn 0.000000 0.000000 -1.000000
vn 0.000000 0.000000 -1.000000
vn 0.000000 0.000000 -1.000000
vn 0.000000 0.000000 -1.000000
vn -0.000000 0.522605 0.852575
vn -0.000000 0.522605 0.852575
vn -0.000000 0.522605 0.852575
vn -0.000000 0.522605 0.852575
s 1
g pCube18 group1
usemtl lambert12SG
f 1/1/1 2/2/2 5/39/3 4/4/4
f 2/36/2 3/5/5 6/6/6 5/3/3
s 2
f 4/7/7 5/8/8 8/9/9 7/10/10
f 5/13/8 6/14/11 9/15/12 8/16/9
s 3
f 7/17/13 8/37/14 11/35/15 10/20/16
f 8/18/14 9/21/17 12/22/18 11/19/15
s 4
f 10/23/19 11/24/20 2/25/21 1/26/22
f 11/27/20 12/28/23 3/29/24 2/30/21
s off
f 3/31/25 12/32/26 9/33/27 6/34/28
f 10/11/29 1/12/30 4/40/31 7/38/32
