# This file uses centimeters as units for non-parametric coordinates.

mtllib table.mtl
g default
v -7.000000 6.881875 4.024992
v -6.318552 6.881875 4.024992
v -7.000000 7.450622 4.024992
v -6.318552 7.450622 4.024992
v -7.000000 7.450622 3.395874
v -6.318552 7.450622 3.395874
v -7.000000 7.450622 -3.395881
v -6.318552 7.450622 -3.395881
v -7.000000 7.450622 -4.024996
v -6.318552 7.450622 -4.024996
v -7.000000 6.881876 -4.024996
v -6.318552 6.881875 -4.024996
v -7.000000 6.881875 -3.395880
v -6.318552 6.881876 -3.395880
v -7.000000 6.881876 3.395874
v -6.318552 6.881875 3.395874
v -7.116199 -0.006925 -4.024996
v -6.717558 -0.006925 -4.024996
v -6.717558 -0.006925 -3.395880
v -7.116199 -0.006925 -3.395880
v -7.116199 -0.006925 3.395874
v -6.717558 -0.006925 3.395874
v -6.717558 -0.006925 4.024992
v -7.116199 -0.006925 4.024992
v -6.318552 5.946407 4.024992
v -6.318552 5.946407 3.395874
v -7.000000 5.946407 3.395874
v -7.000000 5.946407 -3.395880
v -6.318552 5.946407 -3.395880
v -6.318552 5.946407 -4.024996
v -6.318552 5.946407 -3.605586
v -6.318552 5.946407 -3.815291
v -6.772851 5.946407 -3.395880
v -6.545702 5.946407 -3.395880
v -6.545702 5.946407 3.395874
v -6.772851 5.946407 3.395874
v -6.318552 5.946407 3.815289
v -6.318552 5.946407 3.605581
v -6.318552 6.881875 3.605581
v -6.318552 6.881875 3.815290
v -6.318552 6.881875 -3.815290
v -6.318552 6.881875 -3.605586
v -6.772851 6.881875 3.395874
v -6.545702 6.881875 3.395874
v -6.772851 6.881875 -3.395880
v -6.545702 6.881875 -3.395880
v 7.049155 6.881875 4.024992
v 6.367707 6.881875 4.024992
v 6.367707 7.450622 4.024992
v 7.049155 7.450622 4.024992
v 6.367707 7.450622 3.395874
v 7.049155 7.450622 3.395874
v 6.367707 7.450622 -3.395881
v 7.049155 7.450622 -3.395881
v 6.367707 7.450622 -4.024996
v 7.049155 7.450622 -4.024996
v 6.367707 6.881875 -4.024996
v 7.049155 6.881876 -4.024996
v 7.165354 -0.006925 -4.024996
v 6.766713 -0.006925 -4.024996
v 6.766713 -0.006925 -3.395880
v 7.165354 -0.006925 -3.395880
v 6.367707 6.881876 -3.395880
v 6.367707 6.881875 -3.605586
v 6.367707 6.881875 -3.815290
v 7.049155 6.881875 -3.395880
v 6.822006 6.881875 -3.395880
v 6.594855 6.881875 -3.395880
v 6.367707 6.881875 3.395874
v 6.594855 6.881875 3.395874
v 6.822006 6.881875 3.395874
v 7.049155 6.881876 3.395874
v 7.165354 -0.006925 3.395874
v 6.766713 -0.006925 3.395874
v 6.766713 -0.006925 4.024992
v 7.165354 -0.006925 4.024992
v 6.367707 6.881875 3.815290
v 6.367707 6.881875 3.605581
v 6.367707 5.946407 -4.024996
v 6.367707 5.946407 -3.815291
v 6.594855 5.946407 -3.395880
v 6.367707 5.946407 -3.395880
v 7.049155 5.946407 -3.395880
v 6.822006 5.946407 3.395874
v 7.049155 5.946407 3.395874
v 6.367707 5.946407 3.605581
v 6.367707 5.946407 3.395874
v 6.367707 5.946407 4.024992
v 6.367707 5.946407 3.815289
v 6.594855 5.946407 3.395874
v 6.822006 5.946407 -3.395880
v 6.367707 5.946407 -3.605586
vt 0.002476 0.922047
vt 0.006174 0.922047
vt 0.002476 0.998008
vt 0.006174 0.797108
vt 0.006174 0.998008
vt 0.001846 0.001992
vt 0.075007 0.998008
vt 0.004009 0.001992
vt 0.075007 0.922047
vt 0.078704 0.998008
vt 0.078704 0.922047
vt 0.075007 0.797108
vt 0.079334 0.001992
vt 0.077172 0.001992
vt 0.702308 0.969243
vt 0.702308 0.943769
vt 0.724435 0.969243
vt 0.724435 0.943769
vt 0.724435 0.469522
vt 0.963310 0.969243
vt 0.702308 0.469522
vt 0.963310 0.469522
vt 0.963310 0.943769
vt 0.724435 0.444048
vt 0.963310 0.444048
vt 0.985436 0.969243
vt 0.702308 0.444048
vt 0.985436 0.469522
vt 0.985436 0.444048
vt 0.985436 0.943769
vt 0.161948 0.998008
vt 0.158251 0.998008
vt 0.161948 0.922047
vt 0.158251 0.922047
vt 0.089418 0.922047
vt 0.158251 0.797108
vt 0.089418 0.998008
vt 0.160416 0.001992
vt 0.085720 0.922047
vt 0.162579 0.001992
vt 0.085720 0.998008
vt 0.089418 0.797108
vt 0.087253 0.001992
vt 0.085090 0.001992
vt 0.537510 0.513552
vt 0.529440 0.513552
vt 0.537510 0.498278
vt 0.529440 0.498278
vt 0.681121 0.918295
vt 0.442247 0.918295
vt 0.681121 0.444049
vt 0.442247 0.444049
vt 0.508232 0.513552
vt 0.500163 0.513552
vt 0.508232 0.498278
vt 0.500163 0.498278
vt 0.169959 0.922047
vt 0.175896 0.922047
vt 0.169959 0.998008
vt 0.169959 0.001992
vt 0.175895 0.998008
vt 0.175896 0.797108
vt 0.239984 0.922047
vt 0.175896 0.001992
vt 0.239984 0.998008
vt 0.245920 0.922047
vt 0.245920 0.001992
vt 0.245920 0.998008
vt 0.239984 0.797108
vt 0.239984 0.001992
vt 0.342023 0.922047
vt 0.340044 0.922047
vt 0.342023 0.797108
vt 0.340044 0.797108
vt 0.342023 0.001992
vt 0.336086 0.001992
vt 0.338065 0.797108
vt 0.336086 0.797108
vt 0.338065 0.922047
vt 0.336086 0.922047
vt 0.353054 0.922047
vt 0.351821 0.922047
vt 0.353054 0.797108
vt 0.351821 0.797108
vt 0.350889 0.001992
vt 0.350589 0.797108
vt 0.349357 0.797108
vt 0.350589 0.922047
vt 0.348726 0.001992
vt 0.349357 0.922047
vt 0.363258 0.922047
vt 0.362025 0.922047
vt 0.363258 0.797108
vt 0.362025 0.797108
vt 0.363888 0.001992
vt 0.361725 0.001992
vt 0.360793 0.797108
vt 0.359560 0.797108
vt 0.360793 0.922047
vt 0.359560 0.922047
vt 0.410640 0.922047
vt 0.408661 0.922047
vt 0.410640 0.797108
vt 0.408661 0.797108
vt 0.410640 0.001992
vt 0.406682 0.797108
vt 0.404704 0.001992
vt 0.404704 0.797108
vt 0.406682 0.922047
vt 0.404704 0.922047
vt 0.610536 0.012895
vt 0.610536 0.242170
vt 0.511490 0.012895
vt 0.511490 0.242170
vt 0.743957 0.663170
vt 0.739358 0.663170
vt 0.743957 0.498278
vt 0.739358 0.498278
vt 0.620326 0.242170
vt 0.620326 0.012895
vt 0.719372 0.242170
vt 0.719372 0.012895
vt 0.718151 0.663170
vt 0.713553 0.663170
vt 0.718151 0.498278
vt 0.713553 0.498278
vt 0.470886 0.513552
vt 0.470886 0.498278
vt 0.478955 0.513552
vt 0.478955 0.498278
vt 0.441608 0.513552
vt 0.441608 0.498278
vt 0.449678 0.513552
vt 0.449678 0.498278
vt 0.328984 0.922047
vt 0.328984 0.998008
vt 0.323047 0.922047
vt 0.323047 0.998008
vt 0.328984 0.001992
vt 0.258959 0.922047
vt 0.323047 0.797108
vt 0.258959 0.998008
vt 0.323047 0.001992
vt 0.253023 0.922047
vt 0.253023 0.998008
vt 0.253023 0.001992
vt 0.258959 0.797108
vt 0.258959 0.001992
vt 0.370395 0.922047
vt 0.370395 0.797108
vt 0.372374 0.922047
vt 0.372374 0.797108
vt 0.370395 0.001992
vt 0.376331 0.001992
vt 0.374352 0.797108
vt 0.376331 0.797108
vt 0.374352 0.922047
vt 0.376331 0.922047
vt 0.383035 0.922047
vt 0.383035 0.797108
vt 0.384267 0.922047
vt 0.384267 0.797108
vt 0.385200 0.001992
vt 0.385500 0.797108
vt 0.386732 0.797108
vt 0.385500 0.922047
vt 0.387363 0.001992
vt 0.386732 0.922047
vt 0.394500 0.922047
vt 0.394500 0.797108
vt 0.395732 0.922047
vt 0.395732 0.797108
vt 0.396032 0.001992
vt 0.393869 0.001992
vt 0.396965 0.797108
vt 0.398197 0.797108
vt 0.396965 0.922047
vt 0.398197 0.922047
vt 0.417344 0.922047
vt 0.417344 0.797108
vt 0.419323 0.922047
vt 0.419323 0.797108
vt 0.417344 0.001992
vt 0.423280 0.001992
vt 0.421302 0.797108
vt 0.423280 0.797108
vt 0.421302 0.922047
vt 0.423280 0.922047
vt 0.729163 0.012895
vt 0.828208 0.012895
vt 0.729163 0.242170
vt 0.828208 0.242170
vt 0.687747 0.663170
vt 0.687747 0.498278
vt 0.692345 0.663170
vt 0.692345 0.498278
vt 0.937044 0.242170
vt 0.837999 0.242170
vt 0.937044 0.012895
vt 0.837999 0.012895
vt 0.661941 0.663170
vt 0.661941 0.498278
vt 0.666539 0.663170
vt 0.666539 0.498278
vt 0.829938 0.249737
vt 0.829938 0.479012
vt 0.723560 0.249737
vt 0.723560 0.479012
vt 0.972680 0.675378
vt 0.965297 0.675378
vt 0.972680 0.498278
vt 0.965297 0.498278
vt 0.840768 0.479012
vt 0.840768 0.249737
vt 0.947146 0.479012
vt 0.947146 0.249737
vt 0.944090 0.675378
vt 0.936707 0.675378
vt 0.944090 0.498278
vt 0.936707 0.498278
vt 0.714648 0.248957
vt 0.714648 0.478232
vt 0.608269 0.248957
vt 0.608269 0.478232
vt 0.915499 0.675379
vt 0.908116 0.675379
vt 0.915499 0.498278
vt 0.908116 0.498278
vt 0.493106 0.478232
vt 0.493106 0.248957
vt 0.599484 0.478232
vt 0.599484 0.248957
vt 0.886909 0.675379
vt 0.879526 0.675379
vt 0.886909 0.498278
vt 0.879526 0.498278
vt 0.858318 0.675379
vt 0.850936 0.675379
vt 0.858318 0.498278
vt 0.850936 0.498278
vt 0.829728 0.675379
vt 0.822345 0.675379
vt 0.829728 0.498278
vt 0.822345 0.498278
vt 0.801137 0.675378
vt 0.793755 0.675378
vt 0.801137 0.498278
vt 0.793755 0.498278
vt 0.772547 0.675378
vt 0.765164 0.675378
vt 0.772547 0.498278
vt 0.765164 0.498278
vt 0.640733 0.663170
vt 0.636135 0.663170
vt 0.640733 0.498278
vt 0.636135 0.498278
vt 0.610329 0.498278
vt 0.614927 0.498278
vt 0.610329 0.663170
vt 0.614927 0.663170
vt 0.589121 0.663170
vt 0.584523 0.663170
vt 0.589121 0.498278
vt 0.584523 0.498278
vt 0.563316 0.663170
vt 0.558718 0.663170
vt 0.563316 0.498278
vt 0.558718 0.498278
vn -0.000000 0.000000 1.000000
vn 0.000000 0.000000 1.000000
vn 0.000000 0.000000 1.000000
vn 0.000000 0.000000 1.000000
vn 0.000000 0.000000 1.000000
vn 0.000000 0.000000 1.000000
vn 0.000000 1.000000 0.000000
vn 0.000000 1.000000 0.000000
vn 0.000000 1.000000 0.000000
vn 0.000000 1.000000 0.000000
vn 0.000000 1.000000 0.000000
vn 0.000000 1.000000 0.000000
vn 0.000000 1.000000 0.000000
vn 0.000000 1.000000 0.000000
vn 0.000000 1.000000 0.000000
vn 0.000000 1.000000 0.000000
vn 0.000000 1.000000 0.000000
vn 0.000000 1.000000 0.000000
vn 0.000000 0.000000 -1.000000
vn -0.000000 0.000000 -1.000000
vn 0.000000 0.000000 -1.000000
vn 0.000000 0.000000 -1.000000
vn 0.000000 0.000000 -1.000000
vn 0.000000 0.000000 -1.000000
vn 0.000000 -1.000000 0.000000
vn 0.000000 -1.000000 0.000000
vn 0.000000 -1.000000 0.000000
vn 0.000000 -1.000000 0.000000
vn 0.000000 -1.000000 -0.000000
vn 0.000000 -1.000000 -0.000000
vn 0.000000 -1.000000 -0.000000
vn 0.000000 -1.000000 -0.000000
vn 0.000000 -1.000000 0.000000
vn 0.000000 -1.000000 0.000000
vn 0.000000 -1.000000 0.000000
vn 0.000000 -1.000000 0.000000
vn -0.999879 0.015579 0.000000
vn -0.999964 0.008526 0.000053
vn -1.000000 0.000000 0.000000
vn -1.000000 0.000000 0.000000
vn -0.999964 0.008526 -0.000053
vn -1.000000 0.000000 0.000000
vn -0.999879 0.015579 0.000000
vn -1.000000 0.000000 0.000000
vn 0.000000 0.000000 -1.000000
vn 0.000000 0.000000 -1.000000
vn 0.000001 0.000000 -1.000000
vn 1.000000 0.000000 0.000000
vn 1.000000 0.000000 0.000000
vn 0.998327 -0.057824 0.000000
vn 0.998074 -0.062042 0.000000
vn 0.000003 0.000000 1.000000
vn 0.000003 0.000000 1.000000
vn 0.000003 -0.000000 1.000000
vn 0.000001 -0.000000 1.000000
vn -0.999810 0.019500 0.000018
vn -0.983848 0.000287 0.179007
vn -0.999810 0.019515 0.000000
vn 0.000000 0.000000 -1.000000
vn 0.000000 -0.000000 -1.000000
vn 0.000000 -0.000000 -1.000000
vn -0.000001 -0.000000 -1.000000
vn 1.000000 0.000000 0.000000
vn 1.000000 0.000000 0.000000
vn 0.998327 -0.057824 0.000000
vn 0.998075 -0.062021 0.000000
vn -0.000000 0.000000 1.000000
vn -0.000000 0.000000 1.000000
vn 0.000000 0.000000 1.000000
vn -0.999810 0.019500 -0.000019
vn -0.983848 0.000287 -0.179006
vn -0.999810 0.019515 0.000000
vn 0.997762 -0.066872 0.000000
vn 0.998327 -0.057824 0.000000
vn 0.997762 -0.066872 0.000000
vn 0.998074 -0.062042 0.000000
vn 0.000003 -0.000000 -1.000000
vn -0.000000 -0.000000 -1.000000
vn 0.000000 -0.000000 -1.000000
vn 0.000000 0.000000 -1.000000
vn 0.000000 -0.000000 1.000000
vn -0.000001 -0.000000 1.000000
vn 0.000000 0.000000 1.000000
vn -0.000003 -0.000000 1.000000
vn 0.997762 -0.066872 0.000000
vn 0.998327 -0.057824 0.000000
vn 0.997762 -0.066872 0.000000
vn 0.998075 -0.062020 0.000000
vn 1.000000 0.000000 0.000000
vn 1.000000 0.000000 0.000000
vn 0.000000 0.000000 -1.000000
vn 0.000000 0.000000 -1.000000
vn -0.000003 0.000000 1.000000
vn -0.000003 0.000000 1.000000
vn 1.000000 0.000000 0.000000
vn 1.000000 0.000000 0.000000
vn 1.000000 0.000000 0.000000
vn 1.000000 0.000000 0.000000
vn 1.000000 0.000000 0.000000
vn 1.000000 0.000000 0.000000
vn 0.000000 1.000000 0.000000
vn 0.000000 1.000000 0.000000
vn 0.000000 1.000000 0.000000
vn 0.000000 1.000000 0.000000
vn -1.000000 0.000000 0.000000
vn -1.000000 0.000000 0.000000
vn -1.000000 0.000000 0.000000
vn -1.000000 0.000000 0.000000
vn 0.000000 -1.000000 0.000000
vn 0.000000 -1.000000 0.000000
vn 0.000000 -1.000000 0.000000
vn 0.000000 -1.000000 0.000000
vn 0.000000 0.000000 1.000000
vn 0.000000 0.000000 1.000000
vn 0.000000 1.000000 0.000000
vn 0.000000 1.000000 0.000000
vn 0.000000 1.000000 0.000000
vn 0.000000 1.000000 0.000000
vn 0.000000 0.000000 -1.000000
vn -0.000000 0.000000 -1.000000
vn 0.000000 -1.000000 0.000000
vn 0.000000 -1.000000 0.000000
vn 0.000000 -1.000000 0.000000
vn 0.000000 -1.000000 0.000000
vn 0.000000 -1.000000 0.000000
vn 0.000000 -1.000000 0.000000
vn 0.000000 -1.000000 0.000000
vn 0.000000 -1.000000 0.000000
vn 0.999879 0.015579 0.000000
vn 1.000000 -0.000000 0.000000
vn 0.999964 0.008526 0.000053
vn 1.000000 0.000001 0.000000
vn 0.999964 0.008526 -0.000053
vn 1.000000 0.000000 0.000000
vn 0.999879 0.015580 0.000000
vn 1.000000 0.000000 0.000000
vn 0.000000 0.000000 -1.000000
vn -0.000000 0.000000 -1.000000
vn -0.000000 0.000000 -1.000000
vn -1.000000 0.000000 0.000000
vn -0.998327 -0.057824 0.000000
vn -1.000000 -0.000000 0.000000
vn -0.998074 -0.062042 0.000000
vn -0.000003 0.000000 1.000000
vn -0.000003 -0.000000 1.000000
vn -0.000003 0.000000 1.000000
vn -0.000001 -0.000000 1.000000
vn 0.999810 0.019515 0.000000
vn 0.999810 0.019500 0.000018
vn 0.983848 0.000287 0.179007
vn 0.000001 0.000000 -1.000000
vn 0.000000 -0.000000 -1.000000
vn 0.000001 -0.000000 -1.000000
vn 0.000001 -0.000000 -1.000000
vn -1.000000 0.000000 0.000000
vn -0.998327 -0.057824 0.000000
vn -1.000000 0.000000 0.000000
vn -0.998074 -0.062042 0.000000
vn 0.000001 0.000000 1.000000
vn 0.000000 0.000000 1.000000
vn 0.000000 0.000000 1.000000
vn 0.999810 0.019500 -0.000019
vn 0.983848 0.000287 -0.179006
vn 0.999810 0.019515 0.000000
vn -0.997762 -0.066872 0.000000
vn -0.997762 -0.066872 0.000000
vn -0.998327 -0.057824 0.000000
vn -0.998075 -0.062021 0.000000
vn 0.000000 0.000000 -1.000000
vn -0.000000 -0.000000 -1.000000
vn -0.000003 -0.000000 -1.000000
vn -0.000000 -0.000000 -1.000000
vn -0.000000 -0.000000 1.000000
vn 0.000000 0.000000 1.000000
vn 0.000003 -0.000000 1.000000
vn 0.000001 -0.000000 1.000000
vn -0.997762 -0.066872 0.000000
vn -0.997762 -0.066872 0.000000
vn -0.998327 -0.057824 0.000000
vn -0.998075 -0.062020 0.000000
vn -1.000000 -0.000000 0.000000
vn -1.000000 0.000000 0.000000
vn 0.000000 0.000000 -1.000000
vn 0.000000 0.000000 -1.000000
vn 0.000003 0.000000 1.000000
vn 0.000003 0.000000 1.000000
vn -1.000000 0.000000 0.000000
vn -1.000000 0.000000 0.000000
vn -1.000000 0.000000 0.000000
vn -1.000000 0.000000 0.000000
vn -1.000000 0.000000 0.000000
vn -1.000000 0.000000 0.000000
vn 0.000000 1.000000 0.000000
vn 0.000000 1.000000 0.000000
vn 0.000000 1.000000 0.000000
vn 0.000000 1.000000 0.000000
vn 1.000000 0.000000 0.000000
vn 1.000000 0.000000 0.000000
vn 1.000000 0.000000 0.000000
vn 1.000000 0.000000 0.000000
vn 0.000000 -1.000000 0.000000
vn 0.000000 -1.000000 0.000000
vn 0.000000 -1.000000 0.000000
vn 0.000000 -1.000000 0.000000
vn 0.000000 0.000000 -1.000000
vn 0.000000 0.000000 -1.000000
vn 0.000000 0.000000 -1.000000
vn 0.000000 0.000000 -1.000000
vn 0.000000 1.000000 0.000000
vn 0.000000 1.000000 0.000000
vn 0.000000 1.000000 0.000000
vn 0.000000 1.000000 0.000000
vn 0.000000 -0.000001 1.000000
vn 0.000000 -0.000001 1.000000
vn 0.000000 -0.000001 1.000000
vn 0.000000 -0.000001 1.000000
vn 0.000000 -1.000000 0.000000
vn 0.000000 -1.000000 0.000000
vn 0.000000 -1.000000 0.000000
vn 0.000000 -1.000000 0.000000
vn 0.000000 0.000000 -1.000000
vn 0.000000 0.000000 -1.000000
vn 0.000000 0.000000 -1.000000
vn 0.000000 0.000000 -1.000000
vn 0.000000 1.000000 0.000000
vn 0.000000 1.000000 0.000000
vn 0.000000 1.000000 0.000000
vn 0.000000 1.000000 0.000000
vn 0.000000 0.000000 1.000000
vn 0.000000 0.000000 1.000000
vn 0.000000 0.000000 1.000000
vn 0.000000 0.000000 1.000000
vn 0.000000 -1.000000 0.000000
vn 0.000000 -1.000000 0.000000
vn 0.000000 -1.000000 0.000000
vn 0.000000 -1.000000 0.000000
vn 0.000000 -1.000000 0.000003
vn 0.000000 -1.000000 0.000003
vn 0.000000 -1.000000 0.000003
vn 0.000000 -1.000000 0.000002
vn 0.000000 -1.000000 0.000000
vn 0.000000 -1.000000 0.000000
vn 0.000000 -1.000000 0.000000
vn 0.000000 -1.000000 0.000000
vn 0.000000 -1.000000 0.000000
vn 0.000000 -1.000000 0.000000
vn 0.000000 -1.000000 0.000000
vn 0.000000 -1.000000 0.000000
vn 0.000000 -1.000000 0.000000
vn 0.000000 -1.000000 0.000000
vn 0.000000 -1.000000 0.000000
vn 0.000000 -1.000000 0.000000
vn -0.000000 -1.000000 0.000000
vn -0.000000 -1.000000 0.000000
vn -0.000002 -1.000000 0.000000
vn -0.000002 -1.000000 0.000000
vn 0.000000 -1.000000 -0.000000
vn 0.000000 -1.000000 -0.000000
vn 0.000002 -1.000000 -0.000000
vn 0.000002 -1.000000 0.000000
vn 0.000000 -1.000000 0.000000
vn 0.000000 -1.000000 0.000000
vn 0.000002 -1.000000 0.000000
vn 0.000002 -1.000000 0.000000
vn -0.000002 -1.000000 -0.000000
vn -0.000002 -1.000000 -0.000000
vn -0.000000 -1.000000 -0.000000
vn 0.000000 -1.000000 0.000000
s 1
g Ex6_Combined:pCube2 group1
usemtl lambert4SG
f 1/1/1 2/2/2 3/3/3
f 3/3/3 2/2/2 4/5/4
f 4/5/4 2/2/2 49/7/5
f 49/7/5 2/2/2 48/9/6
s 2
f 3/15/7 4/16/8 5/17/9
f 5/17/9 4/16/8 6/18/10
f 6/18/10 4/16/8 51/19/11
f 51/19/11 4/16/8 49/21/12
f 5/17/9 6/18/10 7/20/13
f 7/20/13 6/18/10 8/23/14
f 8/23/14 6/18/10 53/22/15
f 53/22/15 6/18/10 51/19/11
f 7/20/13 8/23/14 9/26/16
f 9/26/16 8/23/14 10/30/17
f 10/30/17 8/23/14 55/28/18
f 55/28/18 8/23/14 53/22/15
s 3
f 9/31/19 10/32/20 11/33/21
f 11/33/21 10/32/20 12/34/22
f 12/34/22 10/32/20 57/35/23
f 57/35/23 10/32/20 55/37/24
s 4
f 17/45/25 18/46/26 20/47/27
f 20/47/27 18/46/26 19/48/28
s 5
f 16/49/29 14/50/30 69/51/31
f 69/51/31 14/50/30 63/52/32
s 6
f 21/53/33 22/54/34 24/55/35
f 24/55/35 22/54/34 23/56/36
s 7
f 11/57/37 13/58/38 9/59/39
f 9/59/39 13/58/38 7/61/40
f 13/58/38 15/63/41 7/61/40
f 7/61/40 15/63/41 5/65/42
f 15/63/41 1/66/43 5/65/42
f 5/65/42 1/66/43 3/68/44
s 3
f 17/40/45 11/33/21 18/38/46
f 12/34/22 30/36/47 11/33/21
f 11/33/21 30/36/47 18/38/46
s 9
f 12/71/48 41/72/49 30/73/50
f 30/73/50 41/72/49 32/74/51
s 10
f 14/81/52 46/82/53 29/83/54
f 29/83/54 46/82/53 34/84/55
s 7
f 11/57/37 17/60/56 13/58/38
f 13/58/38 17/60/56 28/62/57
f 17/60/56 20/64/58 28/62/57
s 11
f 15/91/59 43/92/60 27/93/61
f 27/93/61 43/92/60 36/94/62
s 12
f 16/101/63 39/102/64 26/103/65
f 26/103/65 39/102/64 38/104/66
s 1
f 2/2/2 1/1/1 25/4/67
f 1/1/1 24/6/68 25/4/67
f 24/6/68 23/8/69 25/4/67
s 7
f 1/66/43 15/63/41 24/67/70
f 15/63/41 27/69/71 24/67/70
f 27/69/71 21/70/72 24/67/70
s 12
f 26/103/65 38/104/66 22/105/73
f 25/108/74 23/107/75 37/106/76
f 23/107/75 22/105/73 37/106/76
f 38/104/66 37/106/76 22/105/73
s 11
f 26/98/77 22/96/78 35/97/79
f 35/97/79 22/96/78 36/94/62
f 22/96/78 21/95/80 36/94/62
f 27/93/61 36/94/62 21/95/80
s 10
f 29/83/54 34/84/55 19/85/81
f 34/84/55 33/86/82 19/85/81
f 20/89/83 19/85/81 28/87/84
f 33/86/82 28/87/84 19/85/81
s 9
f 30/73/50 32/74/51 18/75/85
f 29/78/86 19/76/87 31/77/88
f 18/75/85 32/74/51 19/76/87
f 32/74/51 31/77/88 19/76/87
s 12
f 37/106/76 40/109/89 25/108/74
f 25/108/74 40/109/89 2/110/90
s 11
f 35/97/79 44/99/91 26/98/77
f 26/98/77 44/99/91 16/100/92
s 10
f 33/86/82 45/88/93 28/87/84
f 28/87/84 45/88/93 13/90/94
s 9
f 31/77/88 42/79/95 29/78/86
f 29/78/86 42/79/95 14/80/96
s 16
f 34/111/97 46/112/98 35/113/99
f 35/113/99 46/112/98 44/114/100
s 17
f 46/115/101 45/116/102 44/117/103
f 44/117/103 45/116/102 43/118/104
s 18
f 45/119/105 33/120/106 43/121/107
f 43/121/107 33/120/106 36/122/108
s 19
f 33/123/109 34/124/110 36/125/111
f 36/125/111 34/124/110 35/126/112
s 1
f 47/11/113 50/10/114 48/9/6
f 48/9/6 50/10/114 49/7/5
s 2
f 50/27/115 52/24/116 49/21/12
f 49/21/12 52/24/116 51/19/11
f 52/24/116 54/25/117 51/19/11
f 51/19/11 54/25/117 53/22/15
f 54/25/117 56/29/118 53/22/15
f 53/22/15 56/29/118 55/28/18
s 3
f 56/41/119 58/39/120 55/37/24
f 55/37/24 58/39/120 57/35/23
s 20
f 59/127/121 62/128/122 60/129/123
f 60/129/123 62/128/122 61/130/124
s 21
f 73/131/125 76/132/126 74/133/127
f 74/133/127 76/132/126 75/134/128
s 22
f 58/135/129 56/136/130 66/137/131
f 66/137/131 56/136/130 54/138/132
f 66/137/131 54/138/132 72/140/133
f 72/140/133 54/138/132 52/142/134
f 72/140/133 52/142/134 47/144/135
f 47/144/135 52/142/134 50/145/136
s 3
f 59/44/137 60/43/138 58/39/120
f 57/35/23 58/39/120 79/42/139
f 58/39/120 60/43/138 79/42/139
s 24
f 57/149/140 79/150/141 65/151/142
f 65/151/142 79/150/141 80/152/143
s 25
f 63/159/144 82/160/145 68/161/146
f 68/161/146 82/160/145 81/162/147
s 22
f 62/143/148 59/139/149 83/141/150
f 58/135/129 66/137/131 59/139/149
f 66/137/131 83/141/150 59/139/149
s 27
f 72/169/151 85/170/152 71/171/153
f 71/171/153 85/170/152 84/172/154
s 28
f 69/179/155 87/180/156 78/181/157
f 78/181/157 87/180/156 86/182/158
s 1
f 48/9/6 88/12/159 47/11/113
f 47/11/113 88/12/159 76/13/160
f 88/12/159 75/14/161 76/13/160
s 22
f 47/144/135 76/146/162 72/140/133
f 72/140/133 76/146/162 85/147/163
f 76/146/162 73/148/164 85/147/163
s 28
f 87/180/156 74/183/165 86/182/158
f 74/183/165 75/184/166 86/182/158
f 88/186/167 89/185/168 75/184/166
f 75/184/166 89/185/168 86/182/158
s 27
f 73/174/169 74/173/170 85/170/152
f 85/170/152 74/173/170 84/172/154
f 87/176/171 90/175/172 74/173/170
f 74/173/170 90/175/172 84/172/154
s 25
f 82/160/145 61/163/173 81/162/147
f 62/167/174 83/165/175 61/163/173
f 83/165/175 91/164/176 61/163/173
f 61/163/173 91/164/176 81/162/147
s 24
f 79/150/141 60/153/177 80/152/143
f 60/153/177 61/154/178 80/152/143
f 82/156/179 92/155/180 61/154/178
f 61/154/178 92/155/180 80/152/143
s 28
f 89/185/168 88/186/167 77/187/181
f 77/187/181 88/186/167 48/188/182
s 27
f 90/175/172 87/176/171 70/177/183
f 70/177/183 87/176/171 69/178/184
s 25
f 91/164/176 83/165/175 67/166/185
f 67/166/185 83/165/175 66/168/186
s 24
f 92/155/180 82/156/179 64/157/187
f 64/157/187 82/156/179 63/158/188
s 33
f 81/189/189 90/190/190 68/191/191
f 68/191/191 90/190/190 70/192/192
s 34
f 68/193/193 70/194/194 67/195/195
f 67/195/195 70/194/194 71/196/196
s 35
f 67/197/197 71/198/198 91/199/199
f 91/199/199 71/198/198 84/200/200
s 36
f 91/201/201 84/202/202 81/203/203
f 81/203/203 84/202/202 90/204/204
s 37
f 38/205/205 39/206/206 86/207/207
f 86/207/207 39/206/206 78/208/208
s 38
f 39/209/209 40/210/210 78/211/211
f 78/211/211 40/210/210 77/212/212
s 39
f 40/213/213 37/214/214 77/215/215
f 77/215/215 37/214/214 89/216/216
s 40
f 37/217/217 38/218/218 89/219/219
f 89/219/219 38/218/218 86/220/220
s 41
f 32/221/221 41/222/222 80/223/223
f 80/223/223 41/222/222 65/224/224
s 42
f 41/225/225 42/226/226 65/227/227
f 65/227/227 42/226/226 64/228/228
s 43
f 42/229/229 31/230/230 64/231/231
f 64/231/231 31/230/230 92/232/232
s 44
f 31/233/233 32/234/234 92/235/235
f 92/235/235 32/234/234 80/236/236
s 45
f 14/237/237 42/238/238 63/239/239
f 63/239/239 42/238/238 64/240/240
s 46
f 41/241/241 12/242/242 65/243/243
f 65/243/243 12/242/242 57/244/244
s 47
f 39/245/245 16/246/246 78/247/247
f 78/247/247 16/246/246 69/248/248
s 48
f 2/249/249 40/250/250 48/251/251
f 48/251/251 40/250/250 77/252/252
s 49
f 13/253/253 45/254/254 15/255/255
f 15/255/255 45/254/254 43/256/256
s 50
f 16/257/257 44/258/258 14/259/259
f 14/259/259 44/258/258 46/260/260
s 51
f 67/261/261 66/262/262 71/263/263
f 71/263/263 66/262/262 72/264/264
s 52
f 63/265/265 68/266/266 69/267/267
f 69/267/267 68/266/266 70/268/268
