# This file uses centimeters as units for non-parametric coordinates.

mtllib fpArm.mtl
g default
v -0.274908 1.251151 -0.250000
v 0.225092 1.251534 -0.250000
v -0.272991 -1.248849 -0.250000
v 0.227009 -1.248465 -0.250000
v -0.272991 -1.248849 0.250000
v 0.227009 -1.248465 0.250000
v -0.274908 1.251151 0.250000
v 0.225092 1.251534 0.250000
vt 0.689445 0.002029
vt 0.747619 0.002029
vt 0.747619 0.370997
vt 0.689445 0.370997
vt 0.689761 0.497545
vt 0.689761 0.374777
vt 0.749202 0.374777
vt 0.749202 0.497545
vt 0.873717 0.372532
vt 0.812990 0.372532
vt 0.812990 0.005005
vt 0.873717 0.005005
vt 0.752338 0.497382
vt 0.752338 0.375630
vt 0.807937 0.375630
vt 0.807937 0.497382
vt 0.751477 0.002896
vt 0.810844 0.002896
vt 0.810844 0.370130
vt 0.751477 0.370130
vt 0.627683 0.006789
vt 0.686324 0.006789
vt 0.686324 0.370747
vt 0.627683 0.370747
vn 0.000000 0.000000 -1.000000
vn 0.000000 0.000000 -1.000000
vn 0.000000 0.000000 -1.000000
vn 0.000000 0.000000 -1.000000
vn 0.000767 -1.000000 0.000000
vn 0.000767 -1.000000 0.000000
vn 0.000767 -1.000000 0.000000
vn 0.000767 -1.000000 0.000000
vn 0.000000 0.000000 1.000000
vn 0.000000 0.000000 1.000000
vn 0.000000 0.000000 1.000000
vn 0.000000 0.000000 1.000000
vn -0.000767 1.000000 -0.000000
vn -0.000767 1.000000 -0.000000
vn -0.000767 1.000000 -0.000000
vn -0.000767 1.000000 -0.000000
vn 1.000000 0.000767 0.000000
vn 1.000000 0.000767 0.000000
vn 1.000000 0.000767 0.000000
vn 1.000000 0.000767 0.000000
vn -1.000000 -0.000767 0.000000
vn -1.000000 -0.000767 0.000000
vn -1.000000 -0.000767 0.000000
vn -1.000000 -0.000767 0.000000
s off
g ScreenHand:pCube2
usemtl lambert2SG
f 1/1/1 2/2/2 4/3/3 3/4/4
f 3/5/5 4/6/6 6/7/7 5/8/8
f 5/9/9 6/10/10 8/11/11 7/12/12
f 7/13/13 8/14/14 2/15/15 1/16/16
f 2/17/17 8/18/18 6/19/19 4/20/20
f 7/21/21 1/22/22 3/23/23 5/24/24
