# This file uses centimeters as units for non-parametric coordinates.

mtllib LeftLeg.mtl
g default
v -0.630901 -0.008957 0.250000
v -0.130901 -0.008957 0.250000
v -0.630901 2.991043 0.250000
v -0.130901 2.991043 0.250000
v -0.630901 2.991043 -0.250000
v -0.130901 2.991043 -0.250000
v -0.630901 -0.008957 -0.250000
v -0.130901 -0.008957 -0.250000
vt 0.060603 0.001688
vt 0.127412 0.001688
vt 0.127412 0.375888
vt 0.060603 0.375888
vt 0.063791 0.501327
vt 0.063791 0.376779
vt 0.127638 0.376779
vt 0.127638 0.501327
vt 0.248704 0.375888
vt 0.190779 0.375888
vt 0.190779 0.001688
vt 0.248704 0.001688
vt 0.128865 0.499176
vt 0.128865 0.376108
vt 0.188270 0.376108
vt 0.188270 0.499176
vt 0.129140 0.001688
vt 0.187065 0.001688
vt 0.187065 0.375889
vt 0.129140 0.375889
vt 0.001361 0.001688
vt 0.060767 0.001688
vt 0.060767 0.375888
vt 0.001361 0.375888
vn 0.000000 0.000000 1.000000
vn 0.000000 0.000000 1.000000
vn 0.000000 0.000000 1.000000
vn 0.000000 0.000000 1.000000
vn 0.000000 1.000000 0.000000
vn 0.000000 1.000000 0.000000
vn 0.000000 1.000000 0.000000
vn 0.000000 1.000000 0.000000
vn 0.000000 0.000000 -1.000000
vn 0.000000 0.000000 -1.000000
vn 0.000000 0.000000 -1.000000
vn 0.000000 0.000000 -1.000000
vn 0.000000 -1.000000 0.000000
vn 0.000000 -1.000000 0.000000
vn 0.000000 -1.000000 0.000000
vn 0.000000 -1.000000 0.000000
vn 1.000000 0.000000 0.000000
vn 1.000000 0.000000 0.000000
vn 1.000000 0.000000 0.000000
vn 1.000000 0.000000 0.000000
vn -1.000000 0.000000 0.000000
vn -1.000000 0.000000 0.000000
vn -1.000000 0.000000 0.000000
vn -1.000000 0.000000 0.000000
s off
g Leg2:pasted__pasted__pCube2 Leg2:pasted__group Leg2:group1 group4
usemtl pasted__lambert3SG1
f 1/1/1 2/2/2 4/3/3 3/4/4
f 3/5/5 4/6/6 6/7/7 5/8/8
f 5/9/9 6/10/10 8/11/11 7/12/12
f 7/13/13 8/14/14 2/15/15 1/16/16
f 2/17/17 8/18/18 6/19/19 4/20/20
f 7/21/21 1/22/22 3/23/23 5/24/24
