# This file uses centimeters as units for non-parametric coordinates.

mtllib coolershelf.mtl
g default
v -2.386031 0.017301 7.037667
v -1.363140 0.017301 7.037667
v 2.279621 0.017301 7.037667
v -1.363140 2.017301 7.037667
v 2.613969 2.017301 7.037667
v -2.386031 0.017301 6.766684
v -1.857747 2.017301 6.766684
v -1.363140 2.017301 6.766684
v 2.613969 2.017301 6.766684
v -2.386031 0.017301 -6.766684
v -1.857747 2.017301 -6.766684
v -1.363140 2.017301 -6.766684
v 2.613969 2.017301 -6.766684
v -2.386031 0.017301 -7.037667
v -1.363140 2.017301 -7.037667
v 2.613969 2.017301 -7.037667
v -1.363140 0.017301 -7.037667
v 2.279621 0.017301 -7.037667
v 2.279621 0.017301 -6.766684
v 2.279621 0.017301 6.766684
v -2.386031 8.277276 6.766686
v -1.857747 7.326690 6.766684
v 2.636860 8.277278 6.766686
v -2.386031 8.277276 7.037669
v -1.363140 6.335796 7.037668
v 2.636860 8.277278 7.037669
v -1.363140 6.335796 6.766685
v -2.386031 8.277276 -6.766685
v -2.386031 8.277276 -7.037668
v -1.857747 7.326690 -6.766684
v 2.636860 8.277278 -6.766685
v -1.363140 6.335796 -6.766685
v -1.363140 6.335796 -7.037668
v 2.636860 8.277278 -7.037668
v -2.386031 8.277276 6.766684
v -1.857747 4.646275 6.766684
v -1.857747 5.008134 6.766684
v -1.857747 5.314741 6.766684
v -1.857747 5.676601 6.766684
v -1.857747 4.646275 -6.766684
v -1.857747 5.008134 -6.766684
v -1.857747 5.314741 -6.766684
v -1.857747 5.676601 -6.766684
v -2.386031 8.277276 -6.766684
v 2.636860 7.323202 7.037668
v 2.636860 7.323202 6.766685
v 2.636860 7.323202 -6.766685
v 2.636860 7.323202 -7.037668
v 2.142253 4.646275 6.766684
v 2.142253 4.646275 -6.766684
v 2.142253 5.008134 -6.766684
v 2.142253 5.008134 6.766684
v 2.613969 2.017301 6.919419
v -1.363140 2.017301 6.919419
v 2.613969 2.017301 -6.919419
v -1.363140 2.017301 -6.919419
v -1.363140 6.335796 6.919420
v 2.636860 7.323202 6.919420
v -1.363140 6.335796 -6.919420
v 2.636860 7.323202 -6.919420
v -1.857747 5.495671 -6.766684
v -1.857747 5.495671 6.766684
vt 0.199781 0.156712
vt 0.217092 0.156712
vt 0.199781 0.166216
vt 0.218681 0.166216
vt 0.190324 0.156712
vt 0.190324 0.180582
vt 0.189036 0.156712
vt 0.189036 0.180582
vt 0.180006 0.175612
vt 0.179444 0.175612
vt 0.180006 0.156712
vt 0.179444 0.156712
vt 0.207175 0.091960
vt 0.231045 0.091960
vt 0.207175 0.156273
vt 0.231045 0.156273
vt 0.421541 0.977180
vt 0.421541 0.957566
vt 0.422258 0.977180
vt 0.422258 0.957566
vt 0.428022 0.977180
vt 0.428022 0.957566
vt 0.188362 0.180582
vt 0.187074 0.180582
vt 0.188362 0.156712
vt 0.187074 0.156712
vt 0.443156 0.181678
vt 0.442780 0.181678
vt 0.443156 0.171835
vt 0.442780 0.171835
vt 0.219464 0.156712
vt 0.224325 0.165938
vt 0.219464 0.195965
vt 0.224325 0.186460
vt 0.224325 0.195965
vt 0.243225 0.186460
vt 0.241636 0.195965
vt 0.156133 0.091960
vt 0.156133 0.093248
vt 0.138822 0.091960
vt 0.133961 0.093248
vt 0.133961 0.091960
vt 0.133961 0.157561
vt 0.156133 0.157561
vt 0.156133 0.158849
vt 0.138822 0.158849
vt 0.133961 0.158849
vt 0.156882 0.093248
vt 0.156882 0.091960
vt 0.166386 0.093248
vt 0.166386 0.092522
vt 0.166386 0.091960
vt 0.156882 0.157561
vt 0.166386 0.157561
vt 0.156882 0.158849
vt 0.166386 0.158849
vt 0.166386 0.158287
vt 0.400276 0.137181
vt 0.389216 0.139520
vt 0.387916 0.137181
vt 0.192959 0.156712
vt 0.194246 0.156712
vt 0.192959 0.195965
vt 0.194246 0.195965
vt 0.194920 0.195965
vt 0.194920 0.156712
vt 0.199781 0.186738
vt 0.218790 0.195965
vt 0.218790 0.191431
vt 0.185113 0.156712
vt 0.185675 0.156712
vt 0.185113 0.177234
vt 0.186401 0.156712
vt 0.186401 0.177234
vt 0.185675 0.177234
vt 0.176247 0.156712
vt 0.176809 0.156712
vt 0.176247 0.161246
vt 0.177535 0.161246
vt 0.177535 0.156712
vt 0.445157 0.124275
vt 0.445157 0.125658
vt 0.438643 0.125653
vt 0.439360 0.127089
vt 0.438643 0.133348
vt 0.439360 0.133348
vt 0.190997 0.195965
vt 0.190997 0.156712
vt 0.192285 0.195965
vt 0.192285 0.156712
vt 0.417823 0.178739
vt 0.405463 0.178739
vt 0.406763 0.176399
vt 0.438419 0.133348
vt 0.431905 0.131970
vt 0.438419 0.131965
vt 0.432622 0.130534
vt 0.431905 0.124275
vt 0.432622 0.124275
vt 0.183151 0.156712
vt 0.183877 0.156712
vt 0.183151 0.177234
vt 0.183877 0.177234
vt 0.184439 0.156712
vt 0.184439 0.177234
vt 0.174286 0.156712
vt 0.175012 0.156712
vt 0.174286 0.161246
vt 0.175574 0.161246
vt 0.175574 0.156712
vt 0.418512 0.158413
vt 0.419812 0.163334
vt 0.419812 0.166864
vt 0.419812 0.167755
vt 0.418512 0.178739
vt 0.419812 0.171448
vt 0.419812 0.172339
vt 0.419812 0.176399
vt 0.418512 0.178739
vt 0.430872 0.178739
vt 0.015044 0.351795
vt 0.979707 0.351796
vt 0.015044 0.454056
vt 0.979707 0.454056
vt -1.762685 0.872456
vt 2.868042 0.872455
vt -1.762685 0.996272
vt 2.868042 0.996272
vt 0.015044 0.677362
vt 0.015044 0.559744
vt 0.015044 0.559292
vt 0.015044 0.558840
vt 0.015044 0.451852
vt 0.979707 0.451852
vt 0.979707 0.558841
vt 0.979707 0.559292
vt 0.979707 0.559744
vt 0.979707 0.677362
vt 0.231787 0.156273
vt 0.231787 0.091960
vt 0.236321 0.156273
vt 0.236321 0.091960
vt 0.380646 0.173277
vt 0.379346 0.178199
vt 0.380646 0.169747
vt 0.380646 0.168856
vt 0.380646 0.165163
vt 0.380646 0.164272
vt 0.379346 0.157873
vt 0.380646 0.160212
vt 0.379346 0.157873
vt 0.391706 0.157873
vt 0.206408 0.156273
vt 0.206408 0.156273
vt 0.206408 0.091960
vt 0.206408 0.091960
vt 0.243333 0.161246
vt 0.243333 0.156712
vt 0.414765 0.977180
vt 0.414765 0.957566
vt 0.421279 0.977180
vt 0.421279 0.957566
vt 0.454917 0.182896
vt 0.452578 0.171835
vt 0.454926 0.171835
vt 0.457836 0.171835
vt 0.455497 0.182896
vt 0.455489 0.171835
vt 0.428310 0.977180
vt 0.428310 0.957566
vt 0.434108 0.977180
vt 0.434108 0.957566
vt 0.434367 0.977180
vt 0.434367 0.957566
vt 0.440164 0.977180
vt 0.440164 0.957566
vt 0.444094 0.171835
vt 0.444094 0.181678
vt 0.443719 0.171835
vt 0.443719 0.181678
vt 0.178771 0.156712
vt 0.178771 0.175612
vt 0.178209 0.156712
vt 0.178209 0.175612
vt 0.445511 0.181678
vt 0.445511 0.171835
vt 0.445887 0.181678
vt 0.445887 0.171835
vt 0.180680 0.156712
vt 0.181242 0.156712
vt 0.180680 0.175721
vt 0.181242 0.175721
vt 0.181916 0.175720
vt 0.181916 0.156712
vt 0.182478 0.175720
vt 0.182478 0.156712
vt 0.446449 0.171835
vt 0.446825 0.171835
vt 0.446449 0.181678
vt 0.446825 0.181678
vt 0.449180 0.171835
vt 0.449556 0.171835
vt 0.449180 0.182462
vt 0.449556 0.182462
vt 0.527605 0.144248
vt 0.553922 0.144248
vt 0.527605 0.172824
vt 0.554074 0.179358
vt 0.554548 0.144248
vt 0.555558 0.144248
vt 0.554548 0.179358
vt 0.555558 0.179358
vt 0.555965 0.179358
vt 0.555965 0.150782
vt 0.582282 0.179358
vt 0.582434 0.144248
vt 0.566986 0.214732
vt 0.566986 0.186156
vt 0.593303 0.214732
vt 0.593455 0.179622
vt 0.448242 0.171835
vt 0.448618 0.171835
vt 0.448242 0.182462
vt 0.448618 0.182462
vt 0.540111 0.179622
vt 0.566429 0.179622
vt 0.540111 0.208198
vt 0.566580 0.214732
vt 0.538695 0.179622
vt 0.539706 0.179622
vt 0.538695 0.214732
vt 0.539706 0.214732
vn 0.000000 0.000000 1.000000
vn 0.000000 0.000000 1.000000
vn 0.000000 0.000000 1.000000
vn 0.000000 0.000000 1.000000
vn 0.000000 0.000000 1.000000
vn 0.000000 0.000000 1.000000
vn -0.000000 1.000000 0.000000
vn -0.000000 1.000000 0.000000
vn -0.000000 1.000000 0.000000
vn -0.000000 1.000000 0.000000
vn -0.000000 1.000000 0.000000
vn -0.000000 1.000000 0.000000
vn 0.000000 1.000000 0.000000
vn 0.000000 1.000000 0.000000
vn 0.000000 1.000000 0.000000
vn 0.000000 1.000000 0.000000
vn 0.000000 1.000000 0.000000
vn 0.000000 1.000000 0.000000
vn -0.000000 1.000000 0.000000
vn -0.000000 1.000000 0.000000
vn -0.000000 1.000000 0.000000
vn -0.000000 1.000000 0.000000
vn -0.000000 1.000000 0.000000
vn -0.000000 1.000000 0.000000
vn 0.000000 1.000000 0.000000
vn 0.000000 1.000000 0.000000
vn 0.000000 1.000000 0.000000
vn 0.000000 1.000000 0.000000
vn 0.000000 1.000000 0.000000
vn 0.000000 1.000000 0.000000
vn 0.000000 1.000000 0.000000
vn 0.000000 1.000000 0.000000
vn 0.000000 1.000000 0.000000
vn 0.000000 1.000000 0.000000
vn 0.000000 1.000000 0.000000
vn 0.000000 1.000000 0.000000
vn -0.000000 1.000000 0.000000
vn -0.000000 1.000000 0.000000
vn -0.000000 1.000000 0.000000
vn -0.000000 1.000000 0.000000
vn -0.000000 1.000000 0.000000
vn -0.000000 1.000000 0.000000
vn -0.239658 0.970858 0.000000
vn -0.239658 0.970858 0.000000
vn -0.239658 0.970858 0.000000
vn -0.239658 0.970858 0.000000
vn -0.239658 0.970858 0.000000
vn -0.239658 0.970858 0.000000
vn 0.000000 -0.000000 -1.000000
vn 0.000000 -0.000000 -1.000000
vn 0.000000 -0.000000 -1.000000
vn 0.000000 -0.000000 -1.000000
vn 0.000000 -0.000000 -1.000000
vn 0.000000 -0.000000 -1.000000
vn 0.000000 0.000000 -1.000000
vn 0.000000 0.000000 -1.000000
vn 0.000000 0.000000 -1.000000
vn 0.000000 0.000000 -1.000000
vn 0.000000 0.000000 -1.000000
vn 0.000000 0.000000 -1.000000
vn 0.000000 0.000000 -1.000000
vn 0.000000 0.000000 -1.000000
vn 0.000000 0.000000 -1.000000
vn 0.000000 -1.000000 0.000000
vn 0.000000 -1.000000 0.000000
vn 0.000000 -1.000000 0.000000
vn 0.000000 -1.000000 0.000000
vn 0.000000 -1.000000 0.000000
vn 0.000000 -1.000000 0.000000
vn 0.000000 -1.000000 0.000000
vn 0.000000 -1.000000 0.000000
vn 0.000000 -1.000000 0.000000
vn 0.000000 -1.000000 0.000000
vn 0.000000 -1.000000 0.000000
vn 0.000000 -1.000000 0.000000
vn 0.000000 -1.000000 0.000000
vn 0.000000 -1.000000 0.000000
vn 0.000000 -1.000000 0.000000
vn 0.000000 -1.000000 0.000000
vn 0.000000 -1.000000 0.000000
vn 0.000000 -1.000000 0.000000
vn 0.000000 -1.000000 0.000000
vn 0.000000 -1.000000 0.000000
vn 0.000000 -1.000000 0.000000
vn 0.000000 -1.000000 -0.000000
vn 0.000000 -1.000000 -0.000000
vn 0.000000 -1.000000 -0.000000
vn 0.986313 -0.164886 0.000000
vn 0.986313 -0.164886 0.000000
vn 0.986313 -0.164886 0.000000
vn 0.986313 -0.164886 0.000000
vn 0.986313 -0.164886 0.000000
vn 0.986313 -0.164886 0.000000
vn 0.986313 -0.164886 0.000000
vn 0.986313 -0.164886 0.000000
vn 0.986313 -0.164886 0.000000
vn 0.986313 -0.164886 0.000000
vn 0.986313 -0.164886 0.000000
vn 0.986313 -0.164886 0.000000
vn 0.986313 -0.164886 0.000000
vn 0.986313 -0.164886 0.000000
vn 0.986313 -0.164886 0.000000
vn 0.986313 -0.164886 0.000000
vn 0.986313 -0.164886 0.000000
vn 0.986313 -0.164886 0.000000
vn 0.986313 -0.164886 0.000000
vn 0.986313 -0.164886 0.000000
vn 0.986313 -0.164886 0.000000
vn 0.986313 -0.164886 0.000000
vn 0.986313 -0.164886 0.000000
vn 0.986313 -0.164886 0.000000
vn -0.000000 0.000002 -1.000000
vn -0.000000 0.000002 -1.000000
vn -0.000000 0.000002 -1.000000
vn -1.000000 0.000000 0.000000
vn -1.000000 0.000000 0.000000
vn -1.000000 0.000000 0.000000
vn -1.000000 0.000000 0.000000
vn -1.000000 0.000000 0.000000
vn -1.000000 0.000000 0.000000
vn 0.000002 -0.000000 1.000000
vn 0.000002 -0.000000 1.000000
vn 0.000002 -0.000000 1.000000
vn 0.000001 -0.000000 1.000000
vn 0.000001 -0.000000 1.000000
vn 0.000001 -0.000000 1.000000
vn 0.000000 0.000000 1.000000
vn 0.000000 0.000000 1.000000
vn 0.000000 0.000000 1.000000
vn 0.000000 -0.000000 1.000000
vn 0.000000 -0.000000 1.000000
vn 0.000000 -0.000000 1.000000
vn 0.000000 -0.000001 1.000000
vn 0.000000 -0.000001 1.000000
vn 0.000000 -0.000001 1.000000
vn 1.000000 0.000000 0.000000
vn 1.000000 0.000000 0.000000
vn 1.000000 0.000000 0.000000
vn 1.000000 0.000000 0.000000
vn 1.000000 0.000000 0.000000
vn 1.000000 0.000000 0.000000
vn 1.000000 0.000000 0.000000
vn 1.000000 0.000000 0.000000
vn 1.000000 0.000000 0.000000
vn 1.000000 -0.000000 0.000000
vn 1.000000 -0.000000 0.000000
vn 1.000000 -0.000000 0.000000
vn 1.000000 -0.000000 0.000000
vn 1.000000 -0.000000 0.000000
vn 1.000000 -0.000000 0.000000
vn 1.000000 0.000000 0.000000
vn 1.000000 0.000000 0.000000
vn 1.000000 0.000000 0.000000
vn 1.000000 0.000000 0.000000
vn 1.000000 0.000000 0.000000
vn 1.000000 0.000000 0.000000
vn 0.000000 0.000001 -1.000000
vn 0.000000 0.000001 -1.000000
vn 0.000000 0.000001 -1.000000
vn 0.000000 -0.000001 -1.000000
vn 0.000000 -0.000001 -1.000000
vn 0.000000 -0.000001 -1.000000
vn 0.000000 0.000000 -1.000000
vn 0.000000 0.000000 -1.000000
vn 0.000000 0.000000 -1.000000
vn 0.000000 0.000000 -1.000000
vn 0.000000 0.000000 -1.000000
vn 0.000000 0.000000 -1.000000
vn -1.000000 0.000000 0.000000
vn -1.000000 0.000000 0.000000
vn -1.000000 0.000000 0.000000
vn -1.000000 -0.000000 0.000000
vn -1.000000 0.000000 0.000000
vn -1.000000 0.000000 0.000000
vn 0.000000 0.000001 1.000000
vn 0.000000 0.000001 1.000000
vn 0.000000 0.000001 1.000000
vn 0.000000 0.000000 1.000000
vn 0.000000 0.000000 1.000000
vn 0.000000 0.000000 1.000000
vn 0.000000 -0.000001 1.000000
vn 0.000000 -0.000001 1.000000
vn 0.000000 -0.000001 1.000000
vn 0.000000 0.000000 1.000000
vn 0.000000 0.000000 1.000000
vn 0.000000 0.000000 1.000000
vn 0.000000 0.000000 1.000000
vn 0.000000 0.000000 1.000000
vn 0.000000 0.000000 1.000000
vn 1.000000 0.000000 0.000000
vn 1.000000 0.000000 0.000000
vn 1.000000 0.000000 0.000000
vn 1.000000 0.000000 0.000000
vn 1.000000 0.000000 0.000000
vn 1.000000 0.000000 0.000000
vn 1.000000 0.000000 0.000000
vn 1.000000 0.000000 0.000000
vn 1.000000 0.000000 0.000000
vn 1.000000 0.000000 0.000000
vn 1.000000 0.000000 0.000000
vn 1.000000 0.000000 0.000000
vn 1.000000 0.000000 0.000000
vn 1.000000 0.000000 0.000000
vn 1.000000 0.000000 0.000000
vn 1.000000 0.000000 0.000000
vn 1.000000 0.000000 0.000000
vn 1.000000 0.000000 0.000000
vn 1.000000 0.000000 0.000000
vn 1.000000 0.000000 0.000000
vn 1.000000 0.000000 0.000000
vn 0.000000 0.000000 1.000000
vn 0.000000 0.000000 1.000000
vn 0.000000 0.000000 1.000000
vn 0.000000 0.000000 1.000000
vn 0.000000 0.000000 1.000000
vn 0.000000 0.000000 1.000000
vn 0.000002 -0.000000 1.000000
vn 0.000002 -0.000000 1.000000
vn 0.000002 -0.000000 1.000000
vn 0.000000 0.000000 1.000000
vn 0.000000 0.000000 1.000000
vn 0.000000 0.000000 1.000000
vn 0.000000 0.000000 1.000000
vn 0.000000 0.000000 1.000000
vn 0.000000 0.000000 1.000000
vn 0.000007 0.000000 1.000000
vn 0.000007 0.000000 1.000000
vn 0.000007 0.000000 1.000000
vn -0.000000 1.000000 0.000000
vn -0.000000 1.000000 0.000000
vn -0.000000 0.000000 0.000000
vn 0.000000 -0.000002 1.000000
vn 0.000000 -0.000002 1.000000
vn 0.000000 -0.000002 1.000000
vn 1.000000 0.000000 0.000000
vn 1.000000 0.000000 0.000000
vn 1.000000 0.000000 0.000000
vn 1.000000 0.000000 0.000000
vn 1.000000 0.000000 0.000000
vn 1.000000 0.000000 0.000000
vn 1.000000 0.000000 0.000000
vn 1.000000 0.000000 0.000000
vn 1.000000 0.000000 0.000000
vn 1.000000 0.000000 0.000000
vn 1.000000 0.000000 0.000000
vn 1.000000 0.000000 0.000000
vn 1.000000 0.000000 0.000000
vn 1.000000 0.000000 0.000000
vn 1.000000 0.000000 0.000000
vn 1.000000 0.000000 0.000000
vn 1.000000 0.000000 0.000000
vn 1.000000 0.000000 0.000000
vn 1.000000 0.000000 0.000000
vn 1.000000 0.000000 0.000000
vn 1.000000 0.000000 0.000000
vn 1.000000 0.000000 0.000000
vn 1.000000 -0.000000 0.000000
vn 1.000000 -0.000000 0.000000
vn 1.000000 -0.000000 0.000000
vn 1.000000 0.000000 0.000000
vn 1.000000 0.000000 0.000000
vn 1.000000 0.000000 0.000000
vn 0.000000 0.000000 -1.000000
vn 0.000000 0.000000 -1.000000
vn 0.000000 0.000000 -1.000000
vn 0.000010 0.000000 -1.000000
vn 0.000010 0.000000 -1.000000
vn 0.000010 0.000000 -1.000000
vn 0.000003 0.000000 -1.000000
vn 0.000003 0.000000 -1.000000
vn 0.000003 0.000000 -1.000000
vn -0.000017 0.000000 -1.000000
vn -0.000017 0.000000 -1.000000
vn -0.000017 0.000000 -1.000000
vn 0.000004 0.000000 -1.000000
vn 0.000004 0.000000 -1.000000
vn 0.000004 0.000000 -1.000000
vn -0.000000 1.000000 0.000000
vn -0.000000 0.000000 0.000000
vn -0.000000 1.000000 0.000000
vn 0.000000 -0.000001 -1.000000
vn 0.000000 -0.000001 -1.000000
vn 0.000000 -0.000001 -1.000000
vn 0.000000 -1.000000 0.000000
vn 0.000000 -0.000000 0.000000
vn 0.000000 -0.000000 0.000000
vn 0.000000 0.000000 0.000000
vn 0.000000 0.000000 0.000000
vn 0.000000 0.000000 0.000000
vn 0.000000 0.000000 -1.000000
vn 0.000000 0.000000 -1.000000
vn 0.000000 0.000000 -1.000000
vn 0.000000 0.000000 -1.000000
vn 0.000000 0.000000 -1.000000
vn 0.000000 0.000000 -1.000000
vn -0.000776 -1.000000 0.000000
vn -0.000776 -1.000000 0.000000
vn -0.000776 -1.000000 0.000000
vn -0.000776 -1.000000 0.000000
vn -0.000776 -1.000000 0.000000
vn -0.000776 -1.000000 0.000000
vn -0.000000 0.000000 -1.000000
vn -0.000000 0.000000 -1.000000
vn -0.000000 0.000000 -1.000000
vn -0.000000 -0.000001 1.000000
vn -0.000000 -0.000001 1.000000
vn -0.000000 -0.000001 1.000000
vn 0.000000 -1.000000 0.000000
vn 0.000000 -1.000000 0.000000
vn 0.000000 -1.000000 0.000000
vn 0.000000 -1.000000 0.000000
vn 0.000000 -1.000000 0.000000
vn 0.000000 -1.000000 0.000000
vn 0.000000 1.000000 0.000000
vn 0.000000 1.000000 0.000000
vn 0.000000 1.000000 0.000000
vn 0.000000 1.000000 0.000000
vn 0.000000 1.000000 0.000000
vn 0.000000 1.000000 0.000000
vn -0.239658 0.970858 0.000000
vn -0.239658 0.970858 0.000000
vn -0.239658 0.970858 0.000000
vn -0.239658 0.970858 0.000000
vn -0.239658 0.970858 0.000000
vn -0.239658 0.970858 0.000000
vn 0.000000 1.000000 0.000000
vn 0.000000 1.000000 0.000000
vn 0.000000 1.000000 0.000000
vn 0.000000 1.000000 0.000000
vn 0.000000 1.000000 0.000000
vn 0.000000 1.000000 0.000000
vn 0.239658 -0.970858 0.000000
vn 0.239658 -0.970858 0.000000
vn 0.239658 -0.970858 0.000000
vn 0.239658 -0.970858 0.000000
vn 0.239658 -0.970858 0.000000
vn 0.239658 -0.970858 0.000000
vn 0.239660 -0.970857 0.000000
vn 0.239660 -0.970857 0.000000
vn 0.239660 -0.970857 0.000000
vn 0.239656 -0.970858 0.000000
vn 0.239656 -0.970858 0.000000
vn 0.239656 -0.970858 0.000000
vn 0.239656 -0.970858 0.000000
vn 0.239656 -0.970858 0.000000
vn 0.239656 -0.970858 0.000000
vn 0.239660 -0.970857 0.000000
vn 0.239660 -0.970857 0.000000
vn 0.239660 -0.970857 0.000000
vn 0.239658 -0.970858 0.000000
vn 0.239658 -0.970858 0.000000
vn 0.239658 -0.970858 0.000000
vn 0.239658 -0.970858 0.000000
vn 0.239658 -0.970858 0.000000
vn 0.239658 -0.970858 0.000000
vn -1.000000 0.000000 0.000000
vn -1.000000 0.000000 0.000000
vn -1.000000 0.000000 0.000000
vn -1.000000 0.000000 0.000000
vn -1.000000 0.000000 0.000000
vn -1.000000 0.000000 0.000000
vn 0.000000 0.000000 1.000000
vn 0.000000 0.000000 1.000000
vn 0.000000 0.000000 1.000000
vn 0.000000 0.000000 1.000000
vn 0.000000 0.000000 1.000000
vn 0.000000 0.000000 1.000000
vn 0.999991 -0.004314 0.000000
vn 0.999991 -0.004314 0.000000
vn 0.999991 -0.004314 0.000000
vn 0.999991 -0.004314 0.000000
vn 0.999991 -0.004314 0.000000
vn 0.999991 -0.004314 0.000000
vn 0.000000 -0.000000 -1.000000
vn 0.000000 -0.000000 -1.000000
vn 0.000000 -0.000000 -1.000000
vn 0.000000 -0.000000 -1.000000
vn 0.000000 -0.000000 -1.000000
vn 0.000000 -0.000000 -1.000000
vn 0.000000 0.000000 -1.000000
vn 0.000000 0.000000 -1.000000
vn 0.000000 0.000000 -1.000000
vn 0.000000 0.000000 -1.000000
vn 0.000000 0.000000 -1.000000
vn 0.000000 0.000000 -1.000000
vn -1.000000 -0.000000 0.000000
vn -1.000000 -0.000000 0.000000
vn -1.000000 -0.000000 0.000000
vn -1.000000 0.000000 0.000000
vn -1.000000 0.000000 0.000000
vn -1.000000 0.000000 0.000000
vn 0.000000 -0.000000 1.000000
vn 0.000000 -0.000000 1.000000
vn 0.000000 -0.000000 1.000000
vn 0.000000 -0.000000 1.000000
vn 0.000000 -0.000000 1.000000
vn 0.000000 -0.000000 1.000000
vn 0.999991 -0.004314 0.000000
vn 0.999991 -0.004314 0.000000
vn 0.999991 -0.004314 0.000000
vn 0.999991 -0.004314 0.000000
vn 0.999991 -0.004314 0.000000
vn 0.999991 -0.004314 0.000000
vn -1.000000 0.000000 0.000000
vn -1.000000 0.000000 0.000000
s off
g coolershelf:pCube1
usemtl initialShadingGroup
f 2/1/1 3/2/2 4/3/3
f 4/3/4 3/2/5 5/4/6
f 23/5/7 21/6/8 26/7/9
f 26/7/10 21/6/11 24/8/12
f 54/9/13 4/10/14 53/11/15
f 53/11/16 4/10/17 5/12/18
f 35/13/19 23/14/20 44/15/21
f 44/15/22 23/14/23 31/16/24
f 11/17/25 7/18/26 12/19/27
f 7/18/28 8/20/29 12/19/30
f 12/19/31 8/20/32 13/21/33
f 8/20/34 9/22/35 13/21/36
f 29/23/37 28/24/38 34/25/39
f 34/25/40 28/24/41 31/26/42
f 59/27/43 32/28/44 60/29/45
f 60/29/46 32/28/47 47/30/48
f 29/31/49 33/32/50 14/33/51
f 33/32/52 15/34/53 14/33/54
f 15/34/55 17/35/56 14/33/57
f 16/36/58 18/37/59 15/34/60
f 15/34/61 18/37/62 17/35/63
f 18/38/64 19/39/65 17/40/66
f 10/41/67 14/42/68 19/39/69
f 14/42/70 17/40/71 19/39/72
f 6/43/73 10/41/74 20/44/75
f 20/44/76 10/41/77 19/39/78
f 3/45/79 2/46/80 20/44/81
f 1/47/82 6/43/83 2/46/84
f 2/46/85 6/43/86 20/44/87
f 19/48/88 18/49/89 13/50/90
f 13/50/91 18/49/92 55/51/93
f 18/49/94 16/52/95 55/51/96
f 20/53/97 19/48/98 9/54/99
f 9/54/100 19/48/101 13/50/102
f 3/55/103 20/53/104 5/56/105
f 5/56/106 20/53/107 53/57/108
f 20/53/109 9/54/110 53/57/111
f 23/58/112 22/59/113 21/60/114
f 6/61/115 1/62/116 21/63/117
f 21/63/118 1/62/119 24/64/120
f 24/65/121 1/66/122 25/67/123
f 25/67/124 1/66/125 4/3/126
f 4/3/127 1/66/128 2/1/129
f 24/65/130 25/67/131 26/68/132
f 26/68/133 25/67/134 45/69/135
f 4/70/136 54/71/137 25/72/138
f 8/73/139 27/74/140 54/71/141
f 27/74/142 57/75/143 54/71/144
f 54/71/145 57/75/146 25/72/147
f 45/76/148 58/77/149 26/78/150
f 26/78/151 58/77/152 23/79/153
f 58/77/154 46/80/155 23/79/156
f 23/81/157 46/82/158 22/83/159
f 46/82/160 27/84/161 22/83/162
f 22/83/163 27/84/164 7/85/165
f 27/84/166 8/86/167 7/85/168
f 29/87/169 14/88/170 28/89/171
s 1
f 28/89/172 14/88/173 10/90/174
s off
f 31/91/175 28/92/176 30/93/177
f 31/94/178 30/95/179 47/96/180
f 47/96/181 30/95/182 32/97/183
f 30/95/184 11/98/185 32/97/186
f 32/97/187 11/98/188 12/99/189
f 12/100/190 56/101/191 32/102/192
f 32/102/193 56/101/194 59/103/195
f 56/101/196 15/104/197 59/103/198
f 15/104/199 33/105/200 59/103/201
f 47/106/202 60/107/203 31/108/204
f 31/108/205 60/107/206 34/109/207
f 60/107/208 48/110/209 34/109/210
f 6/111/211 7/112/212 36/113/213
f 6/111/214 36/113/215 37/114/216
f 6/111/217 37/114/218 21/115/219
f 21/115/220 37/114/221 38/116/222
f 21/115/223 38/116/224 39/117/225
f 21/115/226 39/117/227 22/118/228
f 35/119/229 21/115/230 23/120/231
f 21/115/232 22/118/233 23/120/234
f 7/121/235 11/122/236 36/123/237
f 36/123/238 11/122/239 40/124/240
f 49/125/241 50/126/242 52/127/243
f 52/127/244 50/126/245 51/128/246
s 2
f 22/129/247 39/130/248 30/138/249
f 30/138/249 39/130/248 43/137/250
f 39/130/248 62/131/251 43/137/250
f 37/133/252 41/134/253 38/132/254
f 41/134/253 42/135/255 38/132/254
f 38/132/254 42/135/255 62/131/251
f 42/135/255 61/136/256 62/131/251
f 62/131/251 61/136/256 43/137/250
s off
f 46/139/257 47/140/258 23/141/259
f 23/141/260 47/140/261 31/142/262
f 11/143/263 10/144/264 40/145/265
f 40/145/266 10/144/267 41/146/268
f 41/146/269 10/144/270 42/147/271
f 42/147/272 10/144/273 43/148/274
f 43/148/275 28/149/276 30/150/277
f 44/151/278 31/152/279 28/149/280
f 30/150/281 28/149/282 31/152/283
f 44/153/284 28/154/285 35/155/286
f 35/155/287 28/154/288 21/156/289
f 48/157/290 33/32/291 34/158/292
f 34/158/293 33/32/294 29/31/295
f 22/159/296 30/160/297 46/161/298
f 46/161/299 30/160/300 47/162/301
f 30/163/302 31/164/303 47/165/304
f 23/166/305 22/167/306 46/168/307
f 36/169/308 40/170/309 49/171/310
f 49/171/311 40/170/312 50/172/313
f 41/173/314 37/174/315 51/175/316
f 51/175/317 37/174/318 52/176/319
f 46/177/320 27/178/321 58/179/322
f 58/179/323 27/178/324 57/180/325
f 16/181/326 15/182/327 55/183/328
f 55/183/329 15/182/330 56/184/331
f 27/185/332 46/186/333 57/187/334
f 57/187/335 46/186/336 58/188/337
f 58/189/338 45/190/339 57/191/340
f 57/191/341 45/190/342 25/192/343
f 33/193/344 48/194/345 59/195/346
f 59/195/347 48/194/348 60/196/349
f 60/197/350 47/198/351 59/199/352
f 59/199/353 47/198/354 32/200/355
f 56/201/356 12/202/357 59/203/358
f 59/203/359 12/202/360 32/204/361
f 12/205/362 13/206/363 32/207/364
f 32/207/365 13/206/366 47/208/367
f 13/209/368 55/210/369 47/211/370
f 47/211/371 55/210/372 60/212/373
f 56/213/374 59/214/375 55/215/376
f 55/215/377 59/214/378 60/216/379
f 8/217/380 27/218/381 9/219/382
f 9/219/383 27/218/384 46/220/385
f 8/221/386 54/222/387 27/223/388
f 27/223/389 54/222/390 57/224/391
f 54/225/392 53/226/393 57/227/394
f 57/227/395 53/226/396 58/228/397
f 53/229/398 9/230/399 58/231/400
f 58/231/401 9/230/402 46/232/403
s 1
f 6/61/404 21/63/405 10/90/174
f 10/90/174 21/63/405 28/89/172
