# This file uses centimeters as units for non-parametric coordinates.

mtllib coolershelf.mtl
g default
v -3.154360 0.017301 7.037667
v -2.131469 0.017301 7.037667
v 1.511292 0.017301 7.037667
v -2.131469 2.017301 7.037667
v 1.845640 2.017301 7.037667
v -3.154360 0.017301 6.766684
v -2.626076 2.017301 6.766684
v -2.131469 2.017301 6.766684
v 1.845640 2.017301 6.766684
v -3.154360 0.017301 -6.766684
v -2.626076 2.017301 -6.766684
v -2.131469 2.017301 -6.766684
v 1.845640 2.017301 -6.766684
v -3.154360 0.017301 -7.037667
v -2.131469 2.017301 -7.037667
v 1.845640 2.017301 -7.037667
v -2.131469 0.017301 -7.037667
v 1.511292 0.017301 -7.037667
v 1.511292 0.017301 -6.766684
v 1.511292 0.017301 6.766684
v -3.154360 8.277276 6.766686
v -2.626076 7.326690 6.766684
v 1.868531 8.277278 6.766686
v -3.154360 8.277276 7.037669
v -2.131469 6.335796 7.037668
v 1.868531 8.277278 7.037669
v -2.131469 6.335796 6.766685
v -3.154360 8.277276 -6.766685
v -3.154360 8.277276 -7.037668
v -2.626076 7.326690 -6.766684
v 1.868531 8.277278 -6.766685
v -2.131469 6.335796 -6.766685
v -2.131469 6.335796 -7.037668
v 1.868531 8.277278 -7.037668
v -3.154360 8.277276 6.766684
v -2.626076 3.451925 6.766684
v -2.626076 3.813785 6.766684
v -2.626076 5.314741 6.766684
v -2.626076 5.676601 6.766684
v -2.626076 3.451925 -6.766684
v -2.626076 3.813785 -6.766684
v -2.626076 5.314741 -6.766684
v -2.626076 5.676601 -6.766684
v -3.154360 8.277276 -6.766684
v 1.868531 7.323202 7.037668
v 1.868531 7.323202 6.766685
v 1.868531 7.323202 -6.766685
v 1.868531 7.323202 -7.037668
v 1.373924 3.451925 6.766684
v 1.373924 3.451925 -6.766684
v 1.373924 3.813785 -6.766684
v 1.373924 3.813785 6.766684
v 1.373924 5.314741 6.766684
v 1.373924 5.314741 -6.766684
v 1.373924 5.676601 -6.766684
v 1.373924 5.676601 6.766684
v 1.845640 2.017301 6.919419
v -2.131469 2.017301 6.919419
v 1.845640 2.017301 -6.919419
v -2.131469 2.017301 -6.919419
v -2.131469 6.335796 6.919420
v 1.868531 7.323202 6.919420
v -2.131469 6.335796 -6.919420
v 1.868531 7.323202 -6.919420
vt 0.443156 0.181678
vt 0.442780 0.181678
vt 0.442780 0.171835
vt 0.443156 0.171835
vt 0.389216 0.139520
vt 0.389216 0.152585
vt 0.387916 0.157507
vt 0.387916 0.137181
vt 0.400276 0.137181
vt 0.406763 0.176399
vt 0.417823 0.178739
vt 0.405463 0.178739
vt 0.405463 0.158413
vt 0.406763 0.163334
vt 0.418512 0.158413
vt 0.419812 0.163334
vt 0.419812 0.166864
vt 0.419812 0.167755
vt 0.429655 0.166864
vt 0.429655 0.167755
vt 0.419812 0.171448
vt 0.418512 0.178739
vt 0.419812 0.172339
vt 0.429655 0.171448
vt 0.429655 0.172339
vt 0.419812 0.176399
vt 0.430872 0.178739
vt 0.418512 0.178739
vt 0.015044 0.351795
vt 0.979707 0.351796
vt 0.979707 0.454056
vt 0.015044 0.454056
vt -1.762685 0.872456
vt 2.868042 0.872455
vt 2.868042 0.996272
vt -1.762685 0.996272
vt 0.979707 0.558841
vt 0.015044 0.558840
vt 0.015044 0.451852
vt 0.979707 0.451852
vt -1.762686 0.870185
vt 2.868043 0.870182
vt 2.868043 0.993998
vt -1.762686 0.994000
vt 0.015044 0.559744
vt 0.979707 0.559744
vt 0.979707 0.677362
vt 0.015044 0.677362
vt 0.380646 0.173277
vt 0.379346 0.178199
vt 0.380646 0.169747
vt 0.380646 0.168856
vt 0.380646 0.165163
vt 0.390489 0.168856
vt 0.390489 0.169747
vt 0.380646 0.164272
vt 0.379346 0.157873
vt 0.380646 0.160212
vt 0.390489 0.164272
vt 0.390489 0.165163
vt 0.379346 0.157873
vt 0.391706 0.157873
vt 0.454917 0.182896
vt 0.452578 0.171835
vt 0.454926 0.171835
vt 0.457836 0.171835
vt 0.455497 0.182896
vt 0.455489 0.171835
vt 0.444094 0.171835
vt 0.444094 0.181678
vt 0.443719 0.181678
vt 0.443719 0.171835
vt 0.445511 0.181678
vt 0.445511 0.171835
vt 0.445887 0.171835
vt 0.445887 0.181678
vt 0.446449 0.171835
vt 0.446825 0.171835
vt 0.446825 0.181678
vt 0.446449 0.181678
vt 0.449180 0.171835
vt 0.449556 0.171835
vt 0.449556 0.182462
vt 0.449180 0.182462
vt 0.448242 0.171835
vt 0.448618 0.171835
vt 0.448618 0.182462
vt 0.448242 0.182462
vt 0.199781 0.156712
vt 0.217092 0.156712
vt 0.218681 0.166216
vt 0.199781 0.166216
vt 0.199781 0.186738
vt 0.194920 0.195965
vt 0.194920 0.156712
vt 0.218790 0.195965
vt 0.218790 0.191431
vt 0.190324 0.156712
vt 0.190324 0.180582
vt 0.189036 0.180582
vt 0.189036 0.156712
vt 0.180006 0.175612
vt 0.179444 0.175612
vt 0.179444 0.156712
vt 0.180006 0.156712
vt 0.207175 0.091960
vt 0.231045 0.091960
vt 0.231045 0.156273
vt 0.207175 0.156273
vt 0.188362 0.180582
vt 0.187074 0.180582
vt 0.187074 0.156712
vt 0.188362 0.156712
vt 0.224325 0.186460
vt 0.224325 0.195965
vt 0.219464 0.195965
vt 0.219464 0.156712
vt 0.224325 0.165938
vt 0.243225 0.186460
vt 0.241636 0.195965
vt 0.243333 0.156712
vt 0.243333 0.161246
vt 0.133961 0.093248
vt 0.133961 0.091960
vt 0.138822 0.091960
vt 0.156133 0.091960
vt 0.156133 0.093248
vt 0.133961 0.157561
vt 0.156133 0.157561
vt 0.138822 0.158849
vt 0.133961 0.158849
vt 0.156133 0.158849
vt 0.156882 0.093248
vt 0.156882 0.091960
vt 0.166386 0.091960
vt 0.166386 0.092522
vt 0.166386 0.093248
vt 0.156882 0.157561
vt 0.166386 0.157561
vt 0.156882 0.158849
vt 0.166386 0.158287
vt 0.166386 0.158849
vt 0.192959 0.156712
vt 0.194246 0.156712
vt 0.194246 0.195965
vt 0.192959 0.195965
vt 0.185113 0.156712
vt 0.185675 0.156712
vt 0.186401 0.156712
vt 0.186401 0.177234
vt 0.185675 0.177234
vt 0.185113 0.177234
vt 0.176247 0.156712
vt 0.176809 0.156712
vt 0.177535 0.156712
vt 0.177535 0.161246
vt 0.176247 0.161246
vt 0.190997 0.195965
vt 0.190997 0.156712
vt 0.192285 0.156712
vt 0.192285 0.195965
vt 0.183151 0.156712
vt 0.183877 0.156712
vt 0.184439 0.156712
vt 0.184439 0.177234
vt 0.183877 0.177234
vt 0.183151 0.177234
vt 0.174286 0.156712
vt 0.175012 0.156712
vt 0.175574 0.156712
vt 0.175574 0.161246
vt 0.174286 0.161246
vt 0.231787 0.156273
vt 0.231787 0.091960
vt 0.236321 0.091960
vt 0.236321 0.156273
vt 0.206408 0.156273
vt 0.167155 0.156273
vt 0.167155 0.091960
vt 0.206408 0.091960
vt 0.206408 0.091960
vt 0.206408 0.156273
vt 0.178771 0.156712
vt 0.178771 0.175612
vt 0.178209 0.175612
vt 0.178209 0.156712
vt 0.180680 0.156712
vt 0.181242 0.156712
vt 0.181242 0.175721
vt 0.180680 0.175721
vt 0.181916 0.175720
vt 0.181916 0.156712
vt 0.182478 0.156712
vt 0.182478 0.175720
vt 0.527605 0.144248
vt 0.553922 0.144248
vt 0.554074 0.179358
vt 0.527605 0.172824
vt 0.554548 0.144248
vt 0.555558 0.144248
vt 0.555558 0.179358
vt 0.554548 0.179358
vt 0.582282 0.179358
vt 0.555965 0.179358
vt 0.555965 0.150782
vt 0.582434 0.144248
vt 0.593303 0.214732
vt 0.566986 0.214732
vt 0.566986 0.186156
vt 0.593455 0.179622
vt 0.540111 0.179622
vt 0.566429 0.179622
vt 0.566580 0.214732
vt 0.540111 0.208198
vt 0.538695 0.179622
vt 0.539706 0.179622
vt 0.539706 0.214732
vt 0.538695 0.214732
vt 0.422258 0.977180
vt 0.421541 0.977180
vt 0.421541 0.957566
vt 0.422258 0.957566
vt 0.428022 0.957566
vt 0.428022 0.977180
vt 0.439360 0.127089
vt 0.439360 0.133348
vt 0.438643 0.133348
vt 0.438643 0.125653
vt 0.445157 0.124275
vt 0.445157 0.125658
vt 0.432622 0.130534
vt 0.438419 0.131965
vt 0.438419 0.133348
vt 0.431905 0.131970
vt 0.431905 0.124275
vt 0.432622 0.124275
vt 0.414765 0.977180
vt 0.414765 0.957566
vt 0.421279 0.957566
vt 0.421279 0.977180
vt 0.428310 0.977180
vt 0.428310 0.957566
vt 0.434108 0.957566
vt 0.434108 0.977180
vt 0.434367 0.977180
vt 0.434367 0.957566
vt 0.440164 0.957566
vt 0.440164 0.977180
vt 0.440423 0.977180
vt 0.440423 0.957566
vt 0.446220 0.957566
vt 0.446220 0.977180
vt 0.445382 0.996940
vt 0.445382 0.977326
vt 0.451179 0.977326
vt 0.451179 0.996940
vn 0.000000 0.000000 1.000000
vn 0.000000 0.000000 1.000000
vn 0.000000 -0.000000 1.000000
vn 0.000000 0.000000 1.000000
vn 0.178648 0.983913 -0.000002
vn -0.000000 1.000000 -0.000000
vn 0.178620 0.983918 -0.000002
vn -0.000000 1.000000 0.000000
vn 0.000000 1.000000 -0.000001
vn 0.000000 1.000000 -0.000001
vn 0.000000 1.000000 -0.000001
vn 0.000000 1.000000 -0.000001
vn -0.000000 1.000000 0.000000
vn 0.186609 0.982434 0.000000
vn -0.000000 1.000000 0.000000
vn 0.186609 0.982434 0.000000
vn 0.000000 1.000000 0.000000
vn 0.000000 1.000000 0.000000
vn 0.000000 1.000000 0.000000
vn 0.000000 1.000000 0.000000
vn 0.000000 1.000000 0.000000
vn 0.000000 1.000000 0.000000
vn -0.000000 1.000000 0.000000
vn -0.000000 1.000000 0.000000
vn 0.178621 0.983918 0.000002
vn 0.178648 0.983913 0.000002
vn -0.239657 0.970858 0.000000
vn -0.239657 0.970858 0.000000
vn -0.239658 0.970857 0.000000
vn -0.239658 0.970857 0.000000
vn -0.000000 -0.000000 -1.000000
vn -0.000000 -0.000000 -1.000000
vn -0.000000 -0.000000 -1.000000
vn 0.000000 -0.000000 -1.000000
vn 0.000000 0.000000 -1.000000
vn 0.000000 0.000000 -1.000000
vn 0.000000 0.000000 -1.000000
vn 0.000000 -1.000000 0.000000
vn 0.000000 -1.000000 0.000000
vn 0.000000 -1.000000 0.000000
vn -0.870700 -0.491815 0.000000
vn -0.876747 -0.480952 0.000000
vn -0.873390 -0.487021 0.000000
vn 0.000000 -1.000000 0.000000
vn 0.000000 -1.000000 0.000000
vn 0.000000 -1.000000 0.000000
vn -0.992419 -0.122899 -0.000000
vn 0.986313 -0.164886 0.000000
vn 0.986313 -0.164886 0.000000
vn 0.987054 -0.160391 0.000000
vn 0.997575 -0.069596 0.000000
vn 0.986313 -0.164886 -0.000000
vn 0.986313 -0.164886 -0.000000
vn 0.987054 -0.160387 -0.000000
vn 0.986313 -0.164886 0.000000
vn 0.986313 -0.164886 0.000000
vn 0.997605 -0.069176 -0.000000
vn -0.000000 0.000002 -1.000000
vn -0.000001 0.000001 -1.000000
vn -0.000001 0.000002 -1.000000
vn -0.000001 0.000000 -1.000000
vn -0.000001 0.000000 -1.000000
vn -1.000000 0.000000 -0.000001
vn -1.000000 0.000000 -0.000001
vn 0.000000 -0.000000 1.000000
vn 0.000000 -0.000000 1.000000
vn 0.000000 -0.000000 1.000000
vn 0.000000 -0.000001 1.000000
vn 0.000000 -0.000001 1.000000
vn 1.000000 0.000000 0.000000
vn 1.000000 0.000000 0.000000
vn 1.000000 0.000000 0.000000
vn 1.000000 0.000000 0.000000
vn 1.000000 0.000000 0.000000
vn 1.000000 0.000000 0.000000
vn 1.000000 -0.000000 0.000000
vn 1.000000 -0.000000 0.000000
vn 1.000000 -0.000000 0.000000
vn 0.000000 0.000001 -1.000000
vn 0.000000 0.000001 -1.000000
vn 0.000000 -0.000000 -1.000000
vn 0.000000 0.000000 -1.000000
vn -1.000000 -0.000000 0.000000
vn -1.000000 -0.000000 0.000000
vn 0.000000 0.000002 1.000000
vn 0.000000 0.000001 1.000000
vn 0.000000 0.000000 1.000000
vn -0.000002 0.000000 1.000000
vn -0.000001 0.000000 1.000000
vn 0.000000 0.000000 1.000000
vn 0.000000 0.000000 1.000000
vn 0.000000 -0.000000 1.000000
vn 0.000000 0.000000 1.000000
vn 1.000000 0.000000 0.000000
vn 1.000000 0.000000 0.000000
vn 1.000000 0.000000 0.000000
vn 1.000000 0.000000 0.000000
vn 1.000000 0.000000 0.000000
vn 1.000000 0.000000 0.000000
vn 1.000000 -0.000000 0.000000
vn 1.000000 -0.000000 -0.000000
vn 1.000000 0.000000 0.000000
vn 0.000003 -0.000000 1.000000
vn 0.000000 0.000000 1.000000
vn 0.000000 0.000000 1.000000
vn 0.000003 -0.000000 1.000000
vn 0.000001 0.000001 1.000000
vn 0.000000 0.000000 1.000000
vn 0.000000 0.000000 1.000000
vn 0.000001 -0.000002 1.000000
vn -0.000000 1.000000 0.000000
vn 0.000000 -0.000002 1.000000
vn 1.000000 0.000000 0.000000
vn 1.000000 0.000000 0.000000
vn 1.000000 0.000000 0.000000
vn 1.000000 0.000000 0.000000
vn 1.000000 0.000000 0.000000
vn 1.000000 0.000000 0.000000
vn 1.000000 0.000000 0.000000
vn 1.000000 0.000000 0.000000
vn 1.000000 0.000000 0.000000
vn 1.000000 0.000000 0.000000
vn 1.000000 0.000000 0.000000
vn 1.000000 0.000000 0.000000
vn 1.000000 0.000000 0.000000
vn 1.000000 0.000000 0.000000
vn 1.000000 0.000000 0.000000
vn 1.000000 0.000000 0.000000
vn 1.000000 -0.000000 0.000000
vn 1.000000 -0.000000 0.000000
vn 1.000000 -0.000000 0.000000
vn 1.000000 0.000000 0.000000
vn 1.000000 0.000000 0.000000
vn 1.000000 0.000000 0.000000
vn 0.000000 0.000000 -1.000000
vn 0.000003 -0.000000 -1.000000
vn -0.000001 0.000000 -1.000000
vn -0.000000 0.000000 -1.000000
vn -0.000002 0.000000 -1.000000
vn 0.000003 -0.000000 -1.000000
vn 0.000000 0.000000 -1.000000
vn 0.000000 -0.000001 -1.000000
vn -0.000000 0.900892 -0.434043
vn -0.000000 -0.000002 -1.000000
vn 0.000000 0.000000 0.000000
vn -1.000000 -0.000000 0.000000
vn 0.000000 -0.000000 0.000000
vn -1.000000 -0.000000 0.000000
vn 0.000000 0.000000 -1.000000
vn 0.000000 0.000000 -1.000000
vn -0.000776 -1.000000 0.000000
vn -0.000776 -1.000000 0.000000
vn -0.000776 -1.000000 0.000000
vn -0.000776 -1.000000 0.000000
vn -0.000000 -0.000000 -1.000000
vn -0.000000 -0.000000 -1.000000
vn -0.000000 -0.000000 -1.000000
vn -0.000000 -0.000001 1.000000
vn -0.000000 -0.000001 1.000000
vn -0.000000 -0.000001 1.000000
vn 0.000000 -1.000000 0.000000
vn 0.000000 -1.000000 0.000000
vn 0.000000 -1.000000 0.000000
vn 0.000000 -1.000000 0.000000
vn 0.000000 0.000000 -1.000000
vn 0.000000 0.000000 -1.000000
vn 0.000000 1.000000 0.000000
vn 0.000000 1.000000 0.000000
vn 0.000000 1.000000 0.000000
vn 0.000000 1.000000 0.000000
vn 0.000000 0.000000 1.000000
vn 0.000000 0.000000 1.000000
vn 0.000000 -1.000000 0.000000
vn 0.000000 -1.000000 0.000000
vn 0.000000 -1.000000 0.000000
vn 0.000000 -1.000000 0.000000
vn 0.000000 0.000000 -1.000000
vn 0.000000 0.000000 -1.000000
vn 0.000000 1.000000 0.000000
vn 0.000000 1.000000 0.000000
vn 0.000000 1.000000 0.000000
vn 0.000000 1.000000 0.000000
vn 0.000000 0.000000 1.000000
vn 0.000000 0.000000 1.000000
vn -0.239658 0.970857 0.000000
vn -0.239657 0.970858 0.000000
vn -0.239658 0.970857 0.000000
vn -0.239657 0.970858 0.000000
vn 0.000000 1.000000 0.000001
vn 0.000000 1.000000 0.000001
vn 0.000000 1.000000 0.000001
vn 0.000000 1.000000 0.000001
vn 0.239658 -0.970857 0.000000
vn 0.239657 -0.970858 0.000000
vn 0.239658 -0.970857 0.000000
vn 0.239657 -0.970858 0.000000
vn 0.239660 -0.970857 0.000000
vn 0.239660 -0.970857 0.000000
vn 0.239656 -0.970858 0.000000
vn 0.239656 -0.970858 0.000000
vn 0.239656 -0.970858 0.000000
vn 0.239660 -0.970857 0.000000
vn 0.239656 -0.970858 0.000000
vn 0.239660 -0.970857 0.000000
vn 0.239657 -0.970858 0.000000
vn 0.239657 -0.970858 0.000000
vn 0.239658 -0.970857 0.000000
vn 0.239658 -0.970857 0.000000
vn -1.000000 -0.000000 0.000000
vn -1.000000 -0.000000 0.000000
vn -1.000000 -0.000000 0.000000
vn -1.000000 -0.000000 0.000000
vn -0.000000 0.000000 1.000000
vn -0.000000 0.000000 1.000000
vn -0.000000 0.000000 1.000000
vn -0.000000 0.000000 1.000000
vn 0.999991 -0.004314 0.000000
vn 0.999991 -0.004314 0.000000
vn -0.000000 -0.000000 -1.000000
vn -0.000000 -0.000000 -1.000000
vn -0.000000 -0.000000 -1.000000
vn 0.000000 -0.000000 -1.000000
vn -0.000000 0.000000 -1.000000
vn -0.000000 0.000000 -1.000000
vn -0.000000 0.000000 -1.000000
vn 0.000000 0.000000 -1.000000
vn -1.000000 -0.000000 0.000000
vn -1.000000 -0.000000 0.000000
vn -1.000000 -0.000000 0.000000
vn -1.000000 0.000000 0.000000
vn -0.000000 -0.000000 1.000000
vn -0.000000 -0.000000 1.000000
vn -0.000000 -0.000000 1.000000
vn 0.000000 -0.000000 1.000000
vn 0.999991 -0.004314 -0.000000
vn 0.999991 -0.004314 0.000000
s 1
g pCube1
usemtl lambert2SG
f 2/89/1 3/90/2 4/92/3
f 4/92/3 3/90/2 5/91/4
s 2
f 23/98/5 21/99/6 26/101/7
f 26/101/7 21/99/6 24/100/8
s 3
f 58/102/9 4/103/10 57/105/11
f 57/105/11 4/103/10 5/104/12
s 4
f 35/106/13 23/107/14 44/109/15
f 44/109/15 23/107/14 31/108/16
s 5
f 11/220/17 7/221/18 12/219/19
f 7/221/18 8/222/20 12/219/19
f 12/219/19 8/222/20 13/224/21
f 8/222/20 9/223/22 13/224/21
s 6
f 29/110/23 28/111/24 34/113/25
f 34/113/25 28/111/24 31/112/26
s 7
f 63/1/27 32/2/28 64/4/29
f 64/4/29 32/2/28 47/3/30
s 8
f 29/117/31 33/118/32 14/116/33
f 33/118/32 15/114/34 14/116/33
f 15/114/34 17/115/35 14/116/33
f 16/119/36 18/120/37 15/114/34
f 15/114/34 18/120/37 17/115/35
s 9
f 18/126/38 19/127/39 17/125/40
f 10/123/41 14/124/42 19/127/39
f 14/124/42 17/125/40 19/127/39
f 6/128/43 10/123/41 20/129/44
f 20/129/44 10/123/41 19/127/39
f 3/132/45 2/130/46 20/129/44
f 1/131/47 6/128/43 2/130/46
f 2/130/46 6/128/43 20/129/44
s 13
f 19/133/48 18/134/49 13/137/50
f 13/137/50 18/134/49 59/136/51
f 18/134/49 16/135/52 59/136/51
f 20/138/53 19/133/48 9/139/54
f 9/139/54 19/133/48 13/137/50
f 3/140/55 20/138/53 5/142/56
f 5/142/56 20/138/53 57/141/57
f 20/138/53 9/139/54 57/141/57
s 15
f 23/9/58 22/5/59 21/8/60
s 16
f 6/7/61 21/8/60 7/6/62
f 22/5/59 7/6/62 21/8/60
s 9
f 6/143/43 1/144/47 21/146/63
f 21/146/63 1/144/47 24/145/64
s 1
f 24/94/65 1/95/66 25/93/67
f 25/93/67 1/95/66 4/92/3
f 4/92/3 1/95/66 2/89/1
f 24/94/65 25/93/67 26/96/68
f 26/96/68 25/93/67 45/97/69
s 18
f 4/147/70 58/148/71 25/152/72
s 19
f 8/149/73 27/150/74 58/148/71
s 20
f 27/150/74 61/151/75 58/148/71
s 18
f 58/148/71 61/151/75 25/152/72
s 2
f 45/153/76 62/154/77 26/157/7
f 26/157/7 62/154/77 23/156/5
f 62/154/77 46/155/78 23/156/5
s 21
f 23/229/79 46/230/80 22/228/59
s 16
f 46/230/80 27/225/81 22/228/59
f 22/228/59 27/225/81 7/227/62
f 27/225/81 8/226/82 7/227/62
s 9
f 29/158/83 14/159/42 28/161/84
f 28/161/84 14/159/42 10/160/41
s 22
f 31/11/85 28/12/86 30/10/87
s 23
f 10/13/88 11/14/89 28/12/86
f 30/10/87 28/12/86 11/14/89
s off
f 31/233/90 30/234/87 47/232/91
s 23
f 47/232/91 30/234/87 32/231/92
f 30/234/87 11/235/89 32/231/92
f 32/231/92 11/235/89 12/236/93
s 24
f 12/162/94 60/163/95 32/167/96
f 32/167/96 60/163/95 63/166/97
s 25
f 60/163/95 15/164/98 63/166/97
f 15/164/98 33/165/99 63/166/97
s 6
f 47/168/100 64/169/101 31/172/26
f 31/172/26 64/169/101 34/171/25
f 64/169/101 48/170/102 34/171/25
s 15
f 6/15/103 7/16/104 36/17/105
f 6/15/103 36/17/105 37/18/106
f 6/15/103 37/18/106 21/22/107
f 21/22/107 37/18/106 38/21/108
f 21/22/107 38/21/108 39/23/109
f 21/22/107 39/23/109 22/26/110
s off
f 35/28/111 21/22/107 23/27/112
s 16
f 21/22/107 22/26/110 23/27/112
s 27
f 7/29/113 11/30/114 36/32/115
f 36/32/115 11/30/114 40/31/116
s 28
f 49/33/117 50/34/118 52/36/119
f 52/36/119 50/34/118 51/35/120
s 29
f 42/37/121 38/38/122 41/40/123
f 41/40/123 38/38/122 37/39/124
s 30
f 53/41/125 54/42/126 56/44/127
f 56/44/127 54/42/126 55/43/128
s 31
f 39/45/129 43/46/130 22/48/131
f 22/48/131 43/46/130 30/47/132
s 4
f 46/173/133 47/174/134 23/176/14
f 23/176/14 47/174/134 31/175/16
s 32
f 11/49/135 10/50/136 40/51/137
f 40/51/137 10/50/136 41/52/138
f 41/52/138 10/50/136 42/53/139
f 42/53/139 10/50/136 43/56/140
f 10/50/136 28/57/141 43/56/140
f 43/56/140 28/57/141 30/58/142
s 22
f 44/61/143 31/62/144 28/57/141
f 30/58/142 28/57/141 31/62/144
s 9
f 44/182/145 28/177/146 35/181/147
f 35/181/147 28/177/146 21/180/148
f 28/177/146 10/178/41 21/180/148
f 10/178/41 6/179/43 21/180/148
s 8
f 48/122/149 33/118/32 34/121/150
f 34/121/150 33/118/32 29/117/31
s 21
f 22/237/151 30/238/152 46/240/153
f 46/240/153 30/238/152 47/239/154
s off
f 30/63/155 31/64/156 47/65/157
f 23/66/158 22/67/159 46/68/160
s 34
f 36/241/161 40/242/162 49/244/163
f 49/244/163 40/242/162 50/243/164
s 32
f 40/51/137 41/52/138 50/55/165
f 50/55/165 41/52/138 51/54/166
s 35
f 41/245/167 37/246/168 51/248/169
f 51/248/169 37/246/168 52/247/170
s 15
f 37/18/106 36/17/105 52/20/171
f 52/20/171 36/17/105 49/19/172
s 36
f 38/249/173 42/250/174 53/252/175
f 53/252/175 42/250/174 54/251/176
s 32
f 42/53/139 43/56/140 54/60/177
f 54/60/177 43/56/140 55/59/178
s 37
f 43/253/179 39/254/180 55/256/181
f 55/256/181 39/254/180 56/255/182
s 15
f 39/23/109 38/21/108 56/25/183
f 56/25/183 38/21/108 53/24/184
s 38
f 46/69/185 27/70/186 62/72/187
f 62/72/187 27/70/186 61/71/188
s 39
f 16/183/189 15/184/190 59/186/191
f 59/186/191 15/184/190 60/185/192
s 40
f 27/73/193 46/74/194 61/76/195
f 61/76/195 46/74/194 62/75/196
s 41
f 62/187/197 45/188/198 61/190/199
f 61/190/199 45/188/198 25/189/200
s 42
f 33/191/201 48/192/202 63/194/203
f 63/194/203 48/192/202 64/193/204
s 43
f 64/77/205 47/78/206 63/80/207
f 63/80/207 47/78/206 32/79/208
s 44
f 60/81/209 12/82/210 63/84/211
f 63/84/211 12/82/210 32/83/212
s 45
f 12/195/213 13/196/214 32/198/215
f 32/198/215 13/196/214 47/197/216
s 13
f 13/199/50 59/200/51 47/202/217
f 47/202/217 59/200/51 64/201/218
s 46
f 60/204/219 63/205/220 59/203/221
f 59/203/221 63/205/220 64/206/222
s 47
f 8/208/223 27/209/224 9/207/225
f 9/207/225 27/209/224 46/210/226
s 20
f 8/85/227 58/86/228 27/88/229
s 19
f 27/88/229 58/86/228 61/87/230
s 20
f 58/211/231 57/212/232 61/214/233
f 61/214/233 57/212/232 62/213/234
s 13
f 57/215/57 9/216/54 62/218/235
f 62/218/235 9/216/54 46/217/236
