# This file uses centimeters as units for non-parametric coordinates.

mtllib shelf.mtl
g default
v -6.327746 -0.027111 2.331082
v 6.327746 -0.027111 2.331082
v -6.327746 1.861808 2.346978
v 6.327746 1.861808 2.346978
v -6.327746 1.861808 2.168667
v 6.327746 1.861808 2.168667
v -6.327746 -0.027111 2.152770
v 6.327746 -0.027111 2.152770
v -6.327746 1.861808 -2.008855
v -6.327746 1.861808 -2.353282
v 6.327746 1.861808 -2.008855
v 6.327746 1.861808 -2.353282
v 6.327746 -0.027111 -2.008855
v 6.327746 -0.027111 -2.353282
v -6.327746 -0.027111 -2.008855
v -6.327746 -0.027111 -2.353282
v -6.327746 3.681200 -2.008855
v -6.327746 3.911463 -2.008855
v -6.327746 6.417926 -2.008855
v -6.327746 6.669163 -2.008855
v -6.327746 9.093718 -2.008855
v 6.327746 3.681200 -2.008855
v 6.327746 3.911463 -2.008855
v 6.327746 6.417926 -2.008855
v 6.327746 6.669163 -2.008855
v 6.327746 9.093718 -2.008855
v 6.327746 3.681200 -2.353282
v 6.327746 3.911463 -2.353282
v 6.327746 6.417926 -2.353282
v 6.327746 6.669163 -2.353282
v 6.327746 9.093718 -2.353282
v -6.327746 3.681200 -2.353282
v -6.327746 3.911463 -2.353282
v -6.327746 6.417926 -2.353282
v -6.327746 6.669163 -2.353282
v -6.327746 9.093718 -2.353282
v -6.327746 3.681200 2.168810
v -6.327746 3.681200 2.345587
v 6.327746 3.681200 2.168810
v 6.327746 3.681200 2.345587
v 6.327746 3.911463 2.184707
v 6.327746 3.911463 2.361483
v -6.327746 3.911463 2.184707
v -6.327746 3.911463 2.361483
v -6.327746 6.417926 2.168810
v -6.327746 6.417926 2.345587
v 6.327746 6.417926 2.168810
v 6.327746 6.417926 2.345587
v 6.327746 6.669163 2.184707
v 6.327746 6.669163 2.361483
v -6.327746 6.669163 2.184707
v -6.327746 6.669163 2.361483
v -6.327746 6.963837 2.184707
v 6.327746 6.963837 2.184707
v -6.327746 6.963837 2.361483
v 6.327746 6.963837 2.361483
v -6.327746 4.206137 2.184707
v 6.327746 4.206137 2.184707
v -6.327746 4.206137 2.361483
v 6.327746 4.206137 2.361483
v -6.327746 2.156482 2.346978
v 6.327746 2.156482 2.346978
v 6.327746 2.156482 2.168667
v -6.327746 2.156482 2.168667
vt 0.296066 0.020578
vt 0.730243 0.020578
vt 0.730243 0.067858
vt 0.296066 0.067858
vt 0.730242 0.075233
vt 0.296066 0.075233
vt 0.296101 0.921918
vt 0.730278 0.921912
vt 0.730285 0.969192
vt 0.296108 0.969197
vt 0.296098 0.876378
vt 0.730275 0.876373
vt 0.296098 0.870614
vt 0.730275 0.870609
vt 0.296094 0.807877
vt 0.730270 0.807872
vt 0.296093 0.801589
vt 0.730269 0.801584
vt 0.296088 0.740903
vt 0.730264 0.740897
vt 0.296066 0.195336
vt 0.730243 0.195336
vt 0.730243 0.198941
vt 0.296066 0.198941
vt 0.296066 0.111206
vt 0.730243 0.111206
vt 0.296066 0.104243
vt 0.730243 0.104243
vt 0.978961 0.969185
vt 0.969495 0.969185
vt 0.970330 0.921905
vt 0.979796 0.921905
vt 0.748571 0.969191
vt 0.748560 0.921912
vt 0.970328 0.914529
vt 0.979794 0.914529
vt 0.730245 0.320945
vt 0.296069 0.320946
vt 0.730266 0.876373
vt 0.748551 0.876372
vt 0.730266 0.870609
vt 0.748550 0.870609
vt 0.730253 0.807872
vt 0.748537 0.807872
vt 0.971171 0.870602
vt 0.970328 0.876365
vt 0.730251 0.801584
vt 0.748536 0.801583
vt 0.980555 0.870602
vt 0.979712 0.876365
vt 0.730239 0.740897
vt 0.748523 0.740897
vt 0.971156 0.801577
vt 0.970314 0.807865
vt 0.971169 0.863226
vt 0.980553 0.863226
vt 0.980540 0.801576
vt 0.979698 0.807865
vt 0.971155 0.794201
vt 0.980539 0.794201
vt 0.056899 0.969204
vt 0.047433 0.969204
vt 0.046581 0.921924
vt 0.056047 0.921924
vt 0.046579 0.914549
vt 0.056045 0.914548
vt 0.277816 0.921918
vt 0.277825 0.969198
vt 0.730253 0.588473
vt 0.296077 0.588477
vt 0.277807 0.876378
vt 0.296092 0.876378
vt 0.277806 0.870615
vt 0.296090 0.870614
vt 0.056030 0.876385
vt 0.055185 0.870621
vt 0.277794 0.807878
vt 0.296079 0.807877
vt 0.046646 0.876385
vt 0.045801 0.870621
vt 0.277793 0.801589
vt 0.296077 0.801589
vt 0.045799 0.863246
vt 0.055184 0.863245
vt 0.056017 0.807884
vt 0.055172 0.801596
vt 0.277781 0.740903
vt 0.296066 0.740903
vt 0.046633 0.807884
vt 0.045788 0.801596
vt 0.045787 0.794220
vt 0.055171 0.794220
vt 0.296066 0.086214
vt 0.730243 0.086213
vt 0.730243 0.170665
vt 0.296067 0.170665
vt 0.296087 0.733940
vt 0.730263 0.733934
vt 0.296066 0.078838
vt 0.730243 0.078838
vt 0.296069 0.328321
vt 0.730246 0.328320
vt 0.730244 0.216204
vt 0.296068 0.216205
vt 0.296069 0.304233
vt 0.730245 0.304232
vt 0.730245 0.309995
vt 0.296069 0.309996
vt 0.730245 0.317371
vt 0.296069 0.317372
vt 0.296071 0.413097
vt 0.730247 0.413096
vt 0.730249 0.475832
vt 0.296073 0.475834
vt 0.296076 0.563862
vt 0.730253 0.563860
vt 0.730253 0.570149
vt 0.296077 0.570150
vt 0.730253 0.577524
vt 0.296077 0.577526
vt 0.296082 0.673253
vt 0.730259 0.673248
vt 0.730253 0.560286
vt 0.296076 0.560288
vt 0.730253 0.581097
vt 0.296077 0.581101
vt 0.730245 0.300658
vt 0.296068 0.300659
vn 0.000000 -0.008415 0.999965
vn 0.000000 -0.008415 0.999965
vn 0.000000 -0.007280 0.999973
vn 0.000000 -0.007280 0.999973
vn 0.000000 0.000000 -1.000000
vn 0.000000 0.000000 -1.000000
vn 0.000000 0.000000 -1.000000
vn 0.000000 0.000000 -1.000000
vn 0.000000 -1.000000 0.000000
vn 0.000000 -1.000000 0.000000
vn 0.000000 -1.000000 0.000000
vn 0.000000 -1.000000 0.000000
vn 1.000000 0.000000 0.000000
vn 1.000000 -0.000000 0.000000
vn 1.000000 -0.000000 0.000000
vn 1.000000 0.000000 0.000000
vn -1.000000 -0.000000 0.000000
vn -1.000000 -0.000000 0.000000
vn -1.000000 -0.000000 0.000000
vn -1.000000 -0.000000 0.000000
vn 0.000000 1.000000 0.000000
vn 0.000000 1.000000 0.000000
vn 0.000000 1.000000 0.000000
vn 0.000000 1.000000 0.000000
vn 0.000000 1.000000 0.000000
vn 0.000000 1.000000 0.000000
vn 0.000000 1.000000 0.000000
vn 0.000000 1.000000 0.000000
vn 1.000000 -0.000000 0.000000
vn 1.000000 -0.000000 0.000000
vn 1.000000 0.000000 0.000000
vn 1.000000 0.000000 0.000000
vn 0.000000 -1.000000 0.000000
vn 0.000000 -1.000000 0.000000
vn 0.000000 -1.000000 0.000000
vn 0.000000 -1.000000 0.000000
vn -1.000000 -0.000000 0.000000
vn -1.000000 -0.000000 0.000000
vn -1.000000 0.000000 0.000000
vn -1.000000 0.000000 0.000000
vn 0.000000 0.000000 1.000000
vn 0.000000 0.000000 1.000000
vn 0.000000 0.000000 1.000000
vn 0.000000 0.000000 1.000000
vn 0.000000 -0.068872 0.997625
vn 0.000000 -0.068872 0.997625
vn 0.000000 -0.030269 0.999542
vn 0.000000 -0.030269 0.999542
vn 0.000000 0.000000 1.000000
vn 0.000000 0.000000 1.000000
vn 0.000000 0.000000 1.000000
vn 0.000000 0.000000 1.000000
vn 0.000000 -0.063147 0.998004
vn 0.000000 -0.063147 0.998004
vn 0.000000 -0.029107 0.999576
vn 0.000000 -0.029107 0.999576
vn 0.000000 0.000000 1.000000
vn 0.000000 0.000000 1.000000
vn 0.000000 0.000000 1.000000
vn 0.000000 0.000000 1.000000
vn 1.000000 0.000000 0.000000
vn 1.000000 0.000000 0.000000
vn 1.000000 0.000000 0.000000
vn 1.000000 0.000000 0.000000
vn 1.000000 0.000000 0.000000
vn 1.000000 0.000000 0.000000
vn 1.000000 0.000000 0.000000
vn 1.000000 0.000000 0.000000
vn 1.000000 0.000000 0.000000
vn 1.000000 0.000000 0.000000
vn 0.000000 0.000000 -1.000000
vn 0.000000 0.000000 -1.000000
vn 0.000000 0.000000 -1.000000
vn 0.000000 0.000000 -1.000000
vn 0.000000 0.000000 -1.000000
vn 0.000000 0.000000 -1.000000
vn 0.000000 0.000000 -1.000000
vn 0.000000 0.000000 -1.000000
vn 0.000000 0.000000 -1.000000
vn 0.000000 0.000000 -1.000000
vn -1.000000 0.000000 0.000000
vn -1.000000 0.000000 0.000000
vn -1.000000 0.000000 0.000000
vn -1.000000 0.000000 0.000000
vn -1.000000 0.000000 0.000000
vn -1.000000 0.000000 0.000000
vn -1.000000 0.000000 0.000000
vn -1.000000 0.000000 0.000000
vn -1.000000 0.000000 0.000000
vn -1.000000 0.000000 0.000000
vn 0.000000 -1.000000 0.000000
vn 0.000000 -1.000000 0.000000
vn 0.000000 -1.000000 0.000000
vn 0.000000 -1.000000 0.000000
vn 0.000000 -1.000000 0.000000
vn 0.000000 -1.000000 0.000000
vn 1.000000 0.000000 0.000000
vn 1.000000 0.000000 0.000000
vn 1.000000 0.000000 0.000000
vn 1.000000 0.000000 0.000000
vn 0.000000 1.000000 0.000000
vn 0.000000 1.000000 0.000000
vn 0.000000 1.000000 0.000000
vn 0.000000 1.000000 0.000000
vn -1.000000 0.000000 0.000000
vn -1.000000 0.000000 0.000000
vn -1.000000 0.000000 0.000000
vn -1.000000 0.000000 0.000000
vn 0.000000 -1.000000 0.000000
vn 0.000000 -1.000000 0.000000
vn 0.000000 -1.000000 0.000000
vn 0.000000 -1.000000 0.000000
vn 0.000000 -1.000000 0.000000
vn 0.000000 -1.000000 0.000000
vn 1.000000 0.000000 0.000000
vn 1.000000 0.000000 0.000000
vn 1.000000 0.000000 0.000000
vn 1.000000 0.000000 0.000000
vn 0.000000 1.000000 0.000000
vn 0.000000 1.000000 0.000000
vn 0.000000 1.000000 0.000000
vn 0.000000 1.000000 0.000000
vn -1.000000 0.000000 0.000000
vn -1.000000 0.000000 0.000000
vn -1.000000 0.000000 0.000000
vn -1.000000 0.000000 0.000000
vn 0.000000 1.000000 0.000000
vn 0.000000 1.000000 0.000000
vn 0.000000 1.000000 0.000000
vn 0.000000 1.000000 0.000000
vn 0.000000 1.000000 0.000000
vn 0.000000 1.000000 0.000000
vn 0.000000 1.000000 0.000000
vn 0.000000 1.000000 0.000000
vn 0.000000 1.000000 0.000000
vn 0.000000 1.000000 0.000000
vn 0.000000 1.000000 0.000000
vn 0.000000 1.000000 0.000000
vn 0.000000 0.000000 -1.000000
vn 0.000000 0.000000 -1.000000
vn 0.000000 0.000000 -1.000000
vn 0.000000 0.000000 -1.000000
vn -1.000000 0.000000 0.000000
vn -1.000000 0.000000 0.000000
vn 0.000000 0.000000 1.000000
vn 0.000000 0.000000 1.000000
vn 1.000000 0.000000 0.000000
vn 1.000000 0.000000 0.000000
vn 0.000000 0.000000 -1.000000
vn 0.000000 0.000000 -1.000000
vn 0.000000 0.000000 -1.000000
vn 0.000000 0.000000 -1.000000
vn -1.000000 0.000000 0.000000
vn -1.000000 0.000000 0.000000
vn 0.000000 0.000000 1.000000
vn 0.000000 0.000000 1.000000
vn 1.000000 0.000000 0.000000
vn 1.000000 0.000000 0.000000
vn 0.000000 0.000000 1.000000
vn 0.000000 0.000000 1.000000
vn 1.000000 0.000000 0.000000
vn 1.000000 0.000000 0.000000
vn 0.000000 0.000000 -1.000000
vn 0.000000 0.000000 -1.000000
vn 0.000000 0.000000 -1.000000
vn 0.000000 0.000000 -1.000000
vn -1.000000 0.000000 0.000000
vn -1.000000 0.000000 0.000000
s 1
g Shelf
usemtl lambert4SG
f 1/1/1 2/2/2 4/3/3 3/4/4
s 2
f 10/7/5 12/8/6 14/9/7 16/10/8
s 3
f 7/21/9 8/22/10 2/23/11 1/24/12
s 4
f 2/29/13 8/30/14 6/31/15 4/32/16
s 5
f 7/61/17 1/62/18 3/63/19 5/64/20
s off
f 5/93/21 6/94/22 11/95/23 9/96/24
f 21/97/25 26/98/26 31/20/27 36/19/28
s 4
f 6/31/15 8/30/14 13/33/29 11/34/30
f 11/34/30 13/33/29 14/9/31 12/8/32
s 3
f 8/22/10 7/21/9 15/25/33 13/26/34
f 13/26/34 15/25/33 16/27/35 14/28/36
s 5
f 7/61/17 5/64/20 9/67/37 15/68/38
f 15/68/38 9/67/37 10/7/39 16/10/40
s off
f 9/96/41 11/95/42 22/103/43 17/104/44
s 6
f 38/105/45 40/106/46 42/107/47 44/108/48
s off
f 18/111/49 23/112/50 24/113/51 19/114/52
s 7
f 46/115/53 48/116/54 50/117/55 52/118/56
s off
f 20/121/57 25/122/58 26/98/59 21/97/60
s 4
f 11/34/30 12/8/32 27/39/61 22/40/62
f 22/40/62 27/39/61 28/41/63 23/42/64
f 23/42/64 28/41/63 29/43/65 24/44/66
f 24/44/66 29/43/65 30/47/67 25/48/68
f 25/48/68 30/47/67 31/51/69 26/52/70
s 2
f 12/8/6 10/7/5 32/11/71 27/12/72
f 27/12/72 32/11/71 33/13/73 28/14/74
f 28/14/74 33/13/73 34/15/75 29/16/76
f 29/16/76 34/15/75 35/17/77 30/18/78
f 30/18/78 35/17/77 36/19/79 31/20/80
s 5
f 10/7/39 9/67/37 17/71/81 32/72/82
f 32/72/82 17/71/81 18/73/83 33/74/84
f 33/74/84 18/73/83 19/77/85 34/78/86
f 34/78/86 19/77/85 20/81/87 35/82/88
f 35/82/88 20/81/87 21/87/89 36/88/90
s 8
f 17/104/91 22/103/92 39/127/93 37/128/94
f 37/128/94 39/127/93 40/106/95 38/105/96
s 4
f 22/40/62 23/42/64 41/45/97 39/46/98
f 39/46/98 41/45/97 42/49/99 40/50/100
s off
f 23/112/101 18/111/102 43/101/103 41/102/104
s 5
f 18/73/83 17/71/81 37/75/105 43/76/106
f 43/76/106 37/75/105 38/79/107 44/80/108
s 9
f 19/114/109 24/113/110 47/123/111 45/124/112
f 45/124/112 47/123/111 48/116/113 46/115/114
s 4
f 24/44/66 25/48/68 49/53/115 47/54/116
f 47/54/116 49/53/115 50/57/117 48/58/118
s off
f 25/122/119 20/121/120 51/70/121 49/69/122
s 5
f 20/81/87 19/77/85 45/85/123 51/86/124
f 51/86/124 45/85/123 46/89/125 52/90/126
s off
f 54/125/127 53/126/128 55/120/129 56/119/130
f 58/37/131 57/38/132 59/110/133 60/109/134
f 61/6/135 62/5/136 63/100/137 64/99/138
f 49/69/139 51/70/140 53/126/141 54/125/142
s 5
f 51/86/124 52/90/126 55/91/143 53/92/144
s 7
f 52/118/56 50/117/55 56/119/145 55/120/146
s 4
f 50/57/117 49/53/115 54/59/147 56/60/148
s off
f 41/102/149 43/101/150 57/38/151 58/37/152
s 5
f 43/76/106 44/80/108 59/83/153 57/84/154
s 6
f 44/108/48 42/107/47 60/109/155 59/110/156
s 4
f 42/49/99 41/45/97 58/55/157 60/56/158
s 1
f 3/4/4 4/3/3 62/5/159 61/6/160
s 4
f 4/32/16 6/31/15 63/35/161 62/36/162
s off
f 6/94/163 5/93/164 64/99/165 63/100/166
s 5
f 5/64/20 3/63/19 61/65/167 64/66/168
