# This file uses centimeters as units for non-parametric coordinates.

mtllib box.mtl
g default
v -0.517368 0.001290 0.258684
v 0.517368 0.001290 0.258684
v -0.517368 1.294710 0.258684
v 0.517368 1.294710 0.258684
v -0.517368 1.294710 -0.258684
v 0.517368 1.294710 -0.258684
v -0.517368 0.001290 -0.258684
v 0.517368 0.001290 -0.258684
vt 0.109232 0.214799
vt 0.505297 0.214799
vt 0.505297 0.791362
vt 0.109232 0.791362
vt 0.502078 0.859238
vt 0.117548 0.860162
vt 0.116303 0.788777
vt 0.500833 0.787853
vt 0.997568 0.791344
vt 0.616710 0.791344
vt 0.616710 0.217743
vt 0.997568 0.217743
vt 0.999004 0.214252
vt 0.617569 0.213577
vt 0.618415 0.137470
vt 0.999850 0.138145
vt 0.000471 0.214992
vt 0.109247 0.214992
vt 0.109247 0.792526
vt 0.000471 0.792526
vt 0.507116 0.211770
vt 0.615892 0.211770
vt 0.615892 0.790454
vt 0.507116 0.790454
vn 0.000000 0.000000 1.000000
vn 0.000000 0.000000 1.000000
vn 0.000000 0.000000 1.000000
vn 0.000000 0.000000 1.000000
vn 0.000000 1.000000 0.000000
vn 0.000000 1.000000 0.000000
vn 0.000000 1.000000 0.000000
vn 0.000000 1.000000 0.000000
vn 0.000000 0.000000 -1.000000
vn 0.000000 0.000000 -1.000000
vn 0.000000 0.000000 -1.000000
vn 0.000000 0.000000 -1.000000
vn 0.000000 -1.000000 0.000000
vn 0.000000 -1.000000 0.000000
vn 0.000000 -1.000000 0.000000
vn 0.000000 -1.000000 0.000000
vn 1.000000 0.000000 0.000000
vn 1.000000 0.000000 0.000000
vn 1.000000 0.000000 0.000000
vn 1.000000 0.000000 0.000000
vn -1.000000 0.000000 0.000000
vn -1.000000 0.000000 0.000000
vn -1.000000 0.000000 0.000000
vn -1.000000 0.000000 0.000000
s off
g initialShadingGroup pCube1
f 1/1/1 2/2/2 4/3/3 3/4/4
f 3/5/5 4/6/6 6/7/7 5/8/8
f 5/9/9 6/10/10 8/11/11 7/12/12
f 7/13/13 8/14/14 2/15/15 1/16/16
f 2/17/17 8/18/18 6/19/19 4/20/20
f 7/21/21 1/22/22 3/23/23 5/24/24
