# This file uses centimeters as units for non-parametric coordinates.

mtllib cereal.mtl
g default1
v -0.184179 0.000967 0.613128
v 0.199359 0.000967 0.613128
v -0.184179 1.774734 0.613128
v 0.199359 1.774734 0.613128
v -0.184179 1.774734 -0.703921
v 0.199359 1.774734 -0.703921
v -0.184179 0.000967 -0.703921
v 0.199359 0.000967 -0.703921
vt 0.180152 0.175940
vt 0.485754 0.175941
vt 0.485754 0.840292
vt 0.180152 0.840292
vt 0.495467 0.179723
vt 0.678163 0.179723
vt 0.678163 0.848999
vt 0.495467 0.848999
vt 0.188172 0.842219
vt 0.002525 0.842219
vt 0.002525 0.170546
vt 0.188172 0.170546
vt 0.664625 0.180575
vt 1.003402 0.180575
vt 1.003402 0.847883
vt 0.664625 0.847883
vt 0.682409 1.004804
vt 0.682409 0.849069
vt 0.922964 0.849069
vt 0.922964 1.004804
vt 0.992223 0.002091
vt 0.992224 0.178213
vt 0.009908 0.178213
vt 0.009908 0.002090
vn 0.000000 0.000000 1.000000
vn 0.000000 0.000000 1.000000
vn 0.000000 0.000000 1.000000
vn 0.000000 0.000000 1.000000
vn 0.000000 1.000000 0.000000
vn 0.000000 1.000000 0.000000
vn 0.000000 1.000000 0.000000
vn 0.000000 1.000000 0.000000
vn 0.000000 0.000000 -1.000000
vn 0.000000 0.000000 -1.000000
vn 0.000000 0.000000 -1.000000
vn 0.000000 0.000000 -1.000000
vn 0.000000 -1.000000 0.000000
vn 0.000000 -1.000000 0.000000
vn 0.000000 -1.000000 0.000000
vn 0.000000 -1.000000 0.000000
vn 1.000000 0.000000 0.000000
vn 1.000000 0.000000 0.000000
vn 1.000000 0.000000 0.000000
vn 1.000000 0.000000 0.000000
vn -1.000000 0.000000 0.000000
vn -1.000000 0.000000 0.000000
vn -1.000000 0.000000 0.000000
vn -1.000000 0.000000 0.000000
s off
g group initialShadingGroup pasted__group60 pasted__pasted__group57 pasted__pasted__pasted__group56 pasted__pasted__pasted__pasted__group54 pasted__pasted__pasted__pasted__pasted__group29 pasted__pasted__pasted__pasted__pasted__pasted__group27 pasted__pasted__pasted__pasted__pasted__pasted__pasted__pCube1 polySurface1
f 1/5/1 2/6/2 4/7/3 3/8/4
f 3/17/5 4/18/6 6/19/7 5/20/8
f 5/9/9 6/10/10 8/11/11 7/12/12
f 7/21/13 8/22/14 2/23/15 1/24/16
f 2/13/17 8/14/18 6/15/19 4/16/20
f 7/1/21 1/2/22 3/3/23 5/4/24
