# This file uses centimeters as units for non-parametric coordinates.

mtllib ice.mtl
g default
v -0.858005 0.000971 -0.166083
v -0.858005 0.000971 0.166083
v -0.858005 0.937029 -0.166083
v -0.858005 0.937029 0.166083
v 0.858005 0.937029 -0.166083
v 0.858005 0.937029 0.166083
v 0.858005 0.000971 -0.166083
v 0.858005 0.000971 0.166083
vt 0.868244 0.004233
vt 0.999397 0.004233
vt 0.999397 0.442128
vt 0.868244 0.442128
vt 0.005968 0.997244
vt 0.003172 0.889874
vt 0.642410 0.889405
vt 0.645205 0.996775
vt 0.868032 0.005074
vt 0.997839 0.005074
vt 0.997839 0.444506
vt 0.868032 0.444506
vt 0.635479 0.889823
vt 0.638996 0.998947
vt 0.006327 0.998490
vt 0.002810 0.889365
vt 0.001532 0.001859
vt 0.831762 0.001859
vt 0.831762 0.440641
vt 0.001532 0.440641
vt 0.000458 0.440810
vt 0.831118 0.440810
vt 0.831118 0.888937
vt 0.000458 0.888937
vn -1.000000 0.000000 0.000000
vn -1.000000 0.000000 0.000000
vn -1.000000 0.000000 0.000000
vn -1.000000 0.000000 0.000000
vn 0.000000 1.000000 0.000000
vn 0.000000 1.000000 0.000000
vn 0.000000 1.000000 0.000000
vn 0.000000 1.000000 0.000000
vn 1.000000 0.000000 0.000000
vn 1.000000 0.000000 0.000000
vn 1.000000 0.000000 0.000000
vn 1.000000 0.000000 0.000000
vn 0.000000 -1.000000 0.000000
vn 0.000000 -1.000000 0.000000
vn 0.000000 -1.000000 0.000000
vn 0.000000 -1.000000 0.000000
vn 0.000000 0.000000 1.000000
vn 0.000000 0.000000 1.000000
vn 0.000000 0.000000 1.000000
vn 0.000000 0.000000 1.000000
vn -0.000000 0.000000 -1.000000
vn -0.000000 0.000000 -1.000000
vn -0.000000 0.000000 -1.000000
vn -0.000000 0.000000 -1.000000
s off
g initialShadingGroup pCube1
f 1/1/1 2/2/2 4/3/3 3/4/4
f 3/5/5 4/6/6 6/7/7 5/8/8
f 5/9/9 6/10/10 8/11/11 7/12/12
f 7/13/13 8/14/14 2/15/15 1/16/16
f 2/17/17 8/18/18 6/19/19 4/20/20
f 7/21/21 1/22/22 3/23/23 5/24/24
