# This file uses centimeters as units for non-parametric coordinates.

mtllib mountaindew.mtl
g default
v 0.096218 -0.000000 -0.069906
v 0.036752 -0.000000 -0.113111
v -0.036752 -0.000000 -0.113111
v -0.096218 -0.000000 -0.069906
v -0.118932 -0.000000 0.000000
v -0.096218 -0.000000 0.069906
v -0.036752 -0.000000 0.113111
v 0.036752 -0.000000 0.113111
v 0.096218 -0.000000 0.069906
v 0.118932 -0.000000 -0.000000
v 0.105172 0.032552 -0.076412
v 0.040172 0.032552 -0.123637
v -0.040172 0.032552 -0.123637
v -0.105172 0.032552 -0.076412
v -0.130000 0.032552 0.000000
v -0.105172 0.032552 0.076412
v -0.040172 0.032552 0.123637
v 0.040172 0.032552 0.123637
v 0.105172 0.032552 0.076412
v 0.130000 0.032552 0.000000
v 0.105172 0.361771 -0.076412
v 0.040172 0.361771 -0.123637
v -0.040172 0.361771 -0.123637
v -0.105172 0.361771 -0.076412
v -0.130000 0.361771 0.000000
v -0.105172 0.361771 0.076412
v -0.040172 0.361771 0.123637
v 0.040172 0.361771 0.123637
v 0.105172 0.361771 0.076412
v 0.130000 0.361771 0.000000
v 0.090608 0.420000 -0.065831
v 0.034609 0.420000 -0.106516
v -0.034609 0.420000 -0.106516
v -0.090608 0.420000 -0.065831
v -0.111998 0.420000 0.000000
v -0.090608 0.420000 0.065831
v -0.034609 0.420000 0.106516
v 0.034609 0.420000 0.106516
v 0.090608 0.420000 0.065831
v 0.111998 0.420000 -0.000000
v 0.000000 -0.000000 0.000000
v -0.000000 0.420000 0.000000
vt 0.386669 0.655090
vt 0.283467 0.580109
vt 0.155902 0.580109
vt 0.052700 0.655090
vt 0.013280 0.776412
vt 0.052700 0.897733
vt 0.155902 0.972714
vt 0.283467 0.972714
vt 0.386669 0.897733
vt 0.426089 0.776412
vt -0.001262 0.015480
vt 0.098990 0.015480
vt 0.199243 0.015480
vt 0.299495 0.015480
vt 0.399748 0.015480
vt 0.500000 0.015480
vt 0.600253 0.015480
vt 0.700505 0.015480
vt 0.800757 0.015480
vt 0.901010 0.015480
vt 1.001262 0.015480
vt -0.001262 0.072822
vt 0.098990 0.072822
vt 0.199243 0.072822
vt 0.299495 0.072822
vt 0.399748 0.072822
vt 0.500000 0.072822
vt 0.600253 0.072822
vt 0.700505 0.072822
vt 0.800757 0.072822
vt 0.901010 0.072822
vt 1.001262 0.072822
vt -0.001262 0.490345
vt 0.098990 0.490345
vt 0.199243 0.490345
vt 0.299495 0.490345
vt 0.399748 0.490345
vt 0.500000 0.490345
vt 0.600253 0.490345
vt 0.700505 0.490345
vt 0.800757 0.490345
vt 0.901010 0.490345
vt 1.001262 0.490345
vt -0.001262 0.547687
vt 0.098990 0.547687
vt 0.199243 0.547687
vt 0.299495 0.547687
vt 0.399748 0.547687
vt 0.500000 0.547687
vt 0.600253 0.547687
vt 0.700505 0.547687
vt 0.800757 0.547687
vt 0.901010 0.547687
vt 1.001262 0.547687
vt 0.946448 0.651430
vt 0.846816 0.576119
vt 0.723665 0.576119
vt 0.624033 0.651430
vt 0.585977 0.773286
vt 0.624033 0.895143
vt 0.723665 0.970454
vt 0.846816 0.970454
vt 0.946448 0.895143
vt 0.984504 0.773286
vt 0.219685 0.768155
vt 0.785241 0.764994
vn 0.559271 -0.307685 -0.769770
vn 0.559271 -0.307685 -0.769770
vn 0.587583 -0.026215 -0.808739
vn 0.587583 -0.026215 -0.808739
vn -0.000000 -0.307685 -0.951488
vn -0.000000 -0.307685 -0.951488
vn -0.000000 -0.026215 -0.999656
vn -0.000000 -0.026215 -0.999656
vn -0.559271 -0.307685 -0.769770
vn -0.559271 -0.307685 -0.769770
vn -0.587583 -0.026215 -0.808739
vn -0.587583 -0.026215 -0.808739
vn -0.904919 -0.307685 -0.294026
vn -0.904919 -0.307685 -0.294026
vn -0.950730 -0.026215 -0.308911
vn -0.950730 -0.026215 -0.308911
vn -0.904919 -0.307685 0.294026
vn -0.904919 -0.307685 0.294026
vn -0.950730 -0.026215 0.308911
vn -0.950730 -0.026215 0.308911
vn -0.559271 -0.307685 0.769770
vn -0.559271 -0.307685 0.769770
vn -0.587583 -0.026215 0.808739
vn -0.587583 -0.026215 0.808739
vn 0.000000 -0.307685 0.951488
vn 0.000000 -0.307685 0.951488
vn 0.000000 -0.026215 0.999656
vn 0.000000 -0.026215 0.999656
vn 0.559271 -0.307685 0.769770
vn 0.559271 -0.307685 0.769770
vn 0.587583 -0.026215 0.808739
vn 0.587583 -0.026215 0.808739
vn 0.904919 -0.307685 0.294026
vn 0.904919 -0.307685 0.294026
vn 0.950730 -0.026215 0.308911
vn 0.950730 -0.026215 0.308911
vn 0.904919 -0.307685 -0.294026
vn 0.904919 -0.307685 -0.294026
vn 0.950730 -0.026215 -0.308910
vn 0.950730 -0.026215 -0.308910
vn 0.587331 0.039291 -0.808392
vn 0.587331 0.039291 -0.808392
vn -0.000000 0.039291 -0.999228
vn -0.000000 0.039291 -0.999228
vn -0.587331 0.039291 -0.808392
vn -0.587331 0.039291 -0.808392
vn -0.950322 0.039291 -0.308778
vn -0.950322 0.039291 -0.308778
vn -0.950322 0.039291 0.308778
vn -0.950322 0.039291 0.308778
vn -0.587331 0.039291 0.808392
vn -0.587331 0.039291 0.808392
vn 0.000000 0.039291 0.999228
vn 0.000000 0.039291 0.999228
vn 0.587331 0.039291 0.808392
vn 0.587331 0.039291 0.808392
vn 0.950322 0.039291 0.308778
vn 0.950322 0.039291 0.308778
vn 0.950322 0.039291 -0.308778
vn 0.950322 0.039291 -0.308778
vn 0.563913 0.282091 -0.776161
vn 0.563913 0.282091 -0.776161
vn 0.000000 0.282091 -0.959388
vn 0.000000 0.282091 -0.959388
vn -0.563914 0.282091 -0.776161
vn -0.563914 0.282091 -0.776161
vn -0.912432 0.282092 -0.296466
vn -0.912432 0.282092 -0.296466
vn -0.912432 0.282092 0.296466
vn -0.912432 0.282092 0.296466
vn -0.563914 0.282091 0.776161
vn -0.563914 0.282091 0.776161
vn -0.000000 0.282091 0.959388
vn -0.000000 0.282091 0.959388
vn 0.563914 0.282091 0.776161
vn 0.563914 0.282091 0.776161
vn 0.912432 0.282092 0.296466
vn 0.912432 0.282092 0.296466
vn 0.912432 0.282092 -0.296466
vn 0.912432 0.282092 -0.296466
vn 0.000000 -1.000000 0.000000
vn 0.000000 -1.000000 -0.000000
vn 0.000000 -1.000000 -0.000000
vn 0.000000 -1.000000 0.000000
vn 0.000000 -1.000000 -0.000000
vn 0.000000 -1.000000 -0.000000
vn 0.000000 -1.000000 0.000000
vn 0.000000 -1.000000 0.000000
vn 0.000000 -1.000000 0.000000
vn 0.000000 -1.000000 0.000000
vn 0.000000 -1.000000 0.000000
vn 0.000000 1.000000 0.000000
vn 0.000000 1.000000 0.000000
vn 0.000000 1.000000 0.000000
vn 0.000000 1.000000 0.000000
vn 0.000000 1.000000 0.000000
vn 0.000000 1.000000 0.000000
vn 0.000000 1.000000 -0.000000
vn 0.000000 1.000000 -0.000000
vn 0.000000 1.000000 0.000000
vn 0.000000 1.000000 0.000000
vn 0.000000 1.000000 0.000000
s 1
g pCylinder1
usemtl lambert3SG
f 1/11/1 2/12/2 12/23/3 11/22/4
s 2
f 2/12/5 3/13/6 13/24/7 12/23/8
s 3
f 3/13/9 4/14/10 14/25/11 13/24/12
s 4
f 4/14/13 5/15/14 15/26/15 14/25/16
s 5
f 5/15/17 6/16/18 16/27/19 15/26/20
s 6
f 6/16/21 7/17/22 17/28/23 16/27/24
s 7
f 7/17/25 8/18/26 18/29/27 17/28/28
s 8
f 8/18/29 9/19/30 19/30/31 18/29/32
s 9
f 9/19/33 10/20/34 20/31/35 19/30/36
s 10
f 10/20/37 1/21/38 11/32/39 20/31/40
s 1
f 11/22/4 12/23/3 22/34/41 21/33/42
s 2
f 12/23/8 13/24/7 23/35/43 22/34/44
s 3
f 13/24/12 14/25/11 24/36/45 23/35/46
s 4
f 14/25/16 15/26/15 25/37/47 24/36/48
s 5
f 15/26/20 16/27/19 26/38/49 25/37/50
s 6
f 16/27/24 17/28/23 27/39/51 26/38/52
s 7
f 17/28/28 18/29/27 28/40/53 27/39/54
s 8
f 18/29/32 19/30/31 29/41/55 28/40/56
s 9
f 19/30/36 20/31/35 30/42/57 29/41/58
s 10
f 20/31/40 11/32/39 21/43/59 30/42/60
s 1
f 21/33/42 22/34/41 32/45/61 31/44/62
s 2
f 22/34/44 23/35/43 33/46/63 32/45/64
s 3
f 23/35/46 24/36/45 34/47/65 33/46/66
s 4
f 24/36/48 25/37/47 35/48/67 34/47/68
s 5
f 25/37/50 26/38/49 36/49/69 35/48/70
s 6
f 26/38/52 27/39/51 37/50/71 36/49/72
s 7
f 27/39/54 28/40/53 38/51/73 37/50/74
s 8
f 28/40/56 29/41/55 39/52/75 38/51/76
s 9
f 29/41/58 30/42/57 40/53/77 39/52/78
s 10
f 30/42/60 21/43/59 31/54/79 40/53/80
s 11
f 2/2/81 1/1/82 41/65/83
f 3/3/84 2/2/81 41/65/83
f 4/4/85 3/3/84 41/65/83
f 5/5/86 4/4/85 41/65/83
f 6/6/87 5/5/86 41/65/83
f 7/7/88 6/6/87 41/65/83
f 8/8/89 7/7/88 41/65/83
f 9/9/90 8/8/89 41/65/83
f 10/10/91 9/9/90 41/65/83
f 1/1/82 10/10/91 41/65/83
s 12
f 31/63/92 32/62/93 42/66/94
f 32/62/93 33/61/95 42/66/94
f 33/61/95 34/60/96 42/66/94
f 34/60/96 35/59/97 42/66/94
f 35/59/97 36/58/98 42/66/94
f 36/58/98 37/57/99 42/66/94
f 37/57/99 38/56/100 42/66/94
f 38/56/100 39/55/101 42/66/94
f 39/55/101 40/64/102 42/66/94
f 40/64/102 31/63/92 42/66/94
