# This file uses centimeters as units for non-parametric coordinates.

mtllib pizza.mtl
g default
v -0.937602 0.002497 0.937602
v 0.937602 0.002497 0.937602
v -0.937602 0.281667 0.937602
v 0.937602 0.281667 0.937602
v -0.937602 0.281667 -0.937602
v 0.937602 0.281667 -0.937602
v -0.937602 0.002497 -0.937602
v 0.937602 0.002497 -0.937602
vt 0.185145 0.565096
vt 0.814855 0.565096
vt 0.814855 0.684661
vt 0.185145 0.684661
vt 0.001918 -0.001589
vt 0.496207 -0.001589
vt 0.496207 0.492700
vt 0.001918 0.492700
vt 0.815069 0.685866
vt 0.186932 0.687195
vt 0.186679 0.567630
vt 0.814816 0.566301
vt 0.999646 0.497871
vt 0.503512 0.499031
vt 0.502351 0.002897
vt 0.998486 0.001736
vt 0.184512 0.567134
vt 0.815658 0.567134
vt 0.815658 0.683181
vt 0.184512 0.683181
vt 0.185216 0.567406
vt 0.817665 0.567406
vt 0.817665 0.685426
vt 0.185216 0.685426
vn 0.000000 0.000000 1.000000
vn 0.000000 0.000000 1.000000
vn 0.000000 0.000000 1.000000
vn 0.000000 0.000000 1.000000
vn 0.000000 1.000000 0.000000
vn 0.000000 1.000000 0.000000
vn 0.000000 1.000000 0.000000
vn 0.000000 1.000000 0.000000
vn 0.000000 0.000000 -1.000000
vn 0.000000 0.000000 -1.000000
vn 0.000000 0.000000 -1.000000
vn 0.000000 0.000000 -1.000000
vn 0.000000 -1.000000 0.000000
vn 0.000000 -1.000000 0.000000
vn 0.000000 -1.000000 0.000000
vn 0.000000 -1.000000 0.000000
vn 1.000000 0.000000 0.000000
vn 1.000000 0.000000 0.000000
vn 1.000000 0.000000 0.000000
vn 1.000000 0.000000 0.000000
vn -1.000000 0.000000 0.000000
vn -1.000000 0.000000 0.000000
vn -1.000000 0.000000 0.000000
vn -1.000000 0.000000 0.000000
s off
g initialShadingGroup pCube1
f 1/1/1 2/2/2 4/3/3 3/4/4
f 3/5/5 4/6/6 6/7/7 5/8/8
f 5/9/9 6/10/10 8/11/11 7/12/12
f 7/13/13 8/14/14 2/15/15 1/16/16
f 2/17/17 8/18/18 6/19/19 4/20/20
f 7/21/21 1/22/22 3/23/23 5/24/24
