# This file uses centimeters as units for non-parametric coordinates.

mtllib bed.mtl
g default
v -3.500000 3.500000 6.125001
v -3.500000 2.625000 6.125000
v -3.500000 2.625000 5.389146
v -2.734635 2.625000 6.125000
v -2.734635 2.625000 5.389146
v -2.734635 2.625000 0.000000
v -3.500000 2.625000 0.000000
v -3.500000 3.500001 5.393072
v 0.000001 2.625000 0.000000
v 0.000001 2.625000 5.389145
v 0.000001 2.625000 6.125000
v 0.000001 3.500000 6.125000
v -3.500000 -0.000000 6.125000
v -3.500000 -0.000000 5.389146
v -2.734635 -0.000000 5.389146
v -2.734635 -0.000000 6.125000
v 3.500002 -0.000000 6.125000
v 3.500002 -0.000000 5.389146
v 2.734636 -0.000000 5.389146
v 2.734636 -0.000000 6.125000
v 3.500002 2.625000 5.389146
v 3.500002 2.625000 0.000000
v 2.734636 2.625000 0.000000
v 2.734636 2.625000 5.389146
v 2.734636 2.625000 6.125000
v 3.500002 3.500000 6.125001
v 3.500002 2.625000 6.125000
v 3.500002 3.500001 5.393072
v -3.500000 -0.000000 -6.125000
v -3.500000 -0.000000 -5.389146
v -2.734635 -0.000000 -5.389146
v -2.734635 -0.000000 -6.125000
v -3.500000 2.625000 -5.389146
v -2.734635 2.625000 -5.389146
v -2.734635 2.625000 -6.125000
v 0.000001 2.625000 -5.389145
v 0.000001 2.625000 -6.125000
v 0.000001 3.500000 -6.125000
v -3.500000 3.500000 -6.125000
v -3.500000 2.625000 -6.125000
v 3.500002 -0.000000 -6.125000
v 2.734636 -0.000000 -6.125000
v 2.734636 -0.000000 -5.389146
v 3.500002 -0.000000 -5.389146
v 3.500002 2.625000 -5.389146
v 2.734636 2.625000 -5.389146
v 2.734636 2.625000 -6.125000
v 3.500002 2.625000 -6.125000
v 3.500002 3.500000 -6.125000
v -3.500000 7.131217 6.125001
v -3.500000 7.131217 5.393072
v 0.000001 7.131217 6.125000
v 3.500002 7.131217 6.125001
v 3.500002 7.131217 5.393072
v 3.500002 4.375001 5.393072
v -3.500000 4.375001 5.393072
v 3.500002 4.375000 -6.125000
v 0.000001 4.375000 -6.125000
v -3.500000 4.375000 -6.125000
v 2.625000 4.613331 5.250000
v 2.625000 4.613331 1.750000
v 2.625000 5.011669 5.250000
v 2.625000 5.011669 1.750000
v -2.625000 5.011669 5.250000
v -2.625000 5.011669 1.750000
v -2.625000 4.613331 5.250000
v -2.625000 4.613331 1.750000
v -2.625000 4.375000 4.500076
v -2.625000 4.375000 2.499923
v -2.625000 5.250000 4.500076
v -2.625000 5.250000 2.499923
v 2.625000 5.250000 4.500076
v 2.625000 5.250000 2.499923
v 2.625000 4.375000 4.500076
v 2.625000 4.375000 2.499923
vt 0.902368 0.592302
vt 0.874810 0.592302
vt 0.874810 0.563639
vt 0.902368 0.563639
vt 0.509938 0.405545
vt 0.509938 0.252648
vt 0.531652 0.252648
vt 0.531652 0.405545
vt 0.509938 0.099751
vt 0.531652 0.099751
vt 0.609238 0.252648
vt 0.609238 0.405545
vt 0.609238 0.099751
vt 0.686823 0.405545
vt 0.686823 0.252648
vt 0.531652 0.426422
vt 0.609238 0.426422
vt 0.531652 0.078873
vt 0.609238 0.078873
vt 0.686823 0.099751
vt 0.686823 0.426422
vt 0.708537 0.405545
vt 0.708537 0.252648
vt 0.686823 0.078873
vt 0.708537 0.099751
vt 0.830570 0.814692
vt 0.830570 0.839517
vt 0.731270 0.839517
vt 0.731270 0.814692
vt 0.752984 0.814692
vt 0.908155 0.814692
vt 0.929869 0.814692
vt 0.929869 0.839517
vt 0.830570 0.942540
vt 0.731270 0.942540
vt 0.731270 0.740218
vt 0.752984 0.740218
vt 0.908155 0.740218
vt 0.929869 0.740218
vt 0.929869 0.942540
vt 0.726849 0.938817
vt 0.706083 0.938817
vt 0.706083 0.839517
vt 0.706083 0.740218
vt 0.726849 0.740218
vt 0.221973 0.426422
vt 0.221973 0.405545
vt 0.296447 0.405545
vt 0.296447 0.426422
vt 0.197148 0.405656
vt 0.197148 0.426422
vt 0.197148 0.078873
vt 0.221973 0.078873
vt 0.221973 0.099751
vt 0.221973 0.252648
vt 0.094126 0.426422
vt 0.094126 0.405656
vt 0.296447 0.078873
vt 0.296447 0.099751
vt 0.621715 0.661946
vt 0.593052 0.661946
vt 0.593052 0.563639
vt 0.621715 0.563639
vt 0.655829 0.661946
vt 0.628271 0.661946
vt 0.628271 0.563639
vt 0.655829 0.563639
vt 0.961843 0.596099
vt 0.961843 0.624762
vt 0.934286 0.624762
vt 0.934286 0.596099
vt 0.401402 0.405656
vt 0.401402 0.426422
vt 0.376577 0.426422
vt 0.376577 0.405545
vt 0.504424 0.405656
vt 0.504424 0.426422
vt 0.302102 0.426422
vt 0.302102 0.405545
vt 0.376577 0.252648
vt 0.376577 0.099751
vt 0.376577 0.078873
vt 0.401402 0.078873
vt 0.302102 0.099751
vt 0.302102 0.078873
vt 0.663491 0.661946
vt 0.663491 0.563639
vt 0.692154 0.563639
vt 0.692154 0.661946
vt 0.698711 0.661946
vt 0.698711 0.563639
vt 0.726269 0.563639
vt 0.726269 0.661946
vt 0.910030 0.592302
vt 0.910030 0.563639
vt 0.937587 0.563639
vt 0.937587 0.592302
vt 0.652013 0.839517
vt 0.652013 0.761932
vt 0.652013 0.740218
vt 0.676838 0.740218
vt 0.067357 0.854624
vt 0.577538 0.761932
vt 0.577538 0.740218
vt 0.100126 0.723549
vt 0.100126 0.854624
vt 0.067357 0.985699
vt 0.652013 0.938817
vt 0.652013 0.917102
vt 0.100126 0.985699
vt 0.577538 0.938817
vt 0.577538 0.917102
vt 0.733931 0.661946
vt 0.733931 0.563639
vt 0.762594 0.563639
vt 0.762594 0.661946
vt 0.769150 0.661946
vt 0.769150 0.563639
vt 0.796708 0.563639
vt 0.796708 0.661946
vt 0.900892 0.596099
vt 0.928450 0.596099
vt 0.928450 0.624762
vt 0.900892 0.624762
vt 0.361655 0.990504
vt 0.178943 0.990504
vt 0.178943 0.689864
vt 0.270299 0.689864
vt 0.361655 0.689864
vt 0.833033 0.661946
vt 0.804370 0.661946
vt 0.804370 0.563639
vt 0.833033 0.563639
vt 0.867148 0.661946
vt 0.839590 0.661946
vt 0.839590 0.563639
vt 0.867148 0.563639
vt 0.839039 0.343051
vt 0.839039 0.144452
vt 0.942061 0.144452
vt 0.942061 0.343051
vt 0.054109 0.721486
vt 0.054109 0.983637
vt 0.021340 0.983637
vt 0.021340 0.721486
vt 0.152037 0.990504
vt 0.152037 0.689864
vt 0.174876 0.689864
vt 0.174876 0.990504
vt 0.147970 0.689864
vt 0.147970 0.990504
vt 0.125131 0.990504
vt 0.125131 0.689864
vt 0.416075 0.639029
vt 0.407149 0.610944
vt 0.407149 0.536038
vt 0.416075 0.507953
vt 0.430993 0.507953
vt 0.439918 0.536038
vt 0.439918 0.610944
vt 0.430993 0.639029
vt 0.088317 0.503039
vt 0.116402 0.503039
vt 0.116402 0.699652
vt 0.088317 0.699652
vt 0.191308 0.503039
vt 0.191308 0.699652
vt 0.219393 0.503039
vt 0.219393 0.699652
vt 0.455002 0.639029
vt 0.446076 0.610944
vt 0.446076 0.536038
vt 0.455002 0.507953
vt 0.469920 0.507953
vt 0.478845 0.536038
vt 0.478845 0.610944
vt 0.469920 0.639029
vt 0.356565 0.704566
vt 0.328480 0.704566
vt 0.328480 0.507953
vt 0.356565 0.507953
vt 0.253574 0.704566
vt 0.253574 0.507953
vt 0.225489 0.704566
vt 0.225489 0.507953
vt 0.362661 0.704566
vt 0.362661 0.507953
vt 0.377579 0.507953
vt 0.377579 0.704566
vt 0.399823 0.507953
vt 0.399823 0.704566
vt 0.384905 0.704566
vt 0.384905 0.507953
vt 0.100126 0.854624
vt 0.067357 0.723549
vt 0.676838 0.839517
vt 0.067357 0.854624
vt 0.676838 0.938817
vn 0.000000 -1.000000 0.000000
vn 0.000000 -1.000000 0.000000
vn 0.000000 -1.000000 0.000000
vn 0.000000 -1.000000 0.000000
vn 0.000000 -1.000000 0.000000
vn 0.000000 -1.000000 0.000000
vn -0.000000 -1.000000 -0.000000
vn -0.000000 -1.000000 -0.000000
vn 0.000000 -1.000000 0.000000
vn 0.000000 -1.000000 0.000000
vn -0.000000 -1.000000 -0.000000
vn 0.000000 -1.000000 0.000000
vn -0.000000 0.000000 1.000000
vn -0.000000 -0.000000 1.000000
vn -0.000000 0.000000 1.000000
vn 0.000000 -0.000000 1.000000
vn 0.000000 -0.000001 1.000000
vn 0.000000 1.000000 0.000000
vn 0.000000 1.000000 0.000000
vn 0.000000 1.000000 0.000000
vn 0.000000 1.000000 0.000000
vn 0.000000 1.000000 0.000000
vn -1.000000 0.000000 -0.000000
vn -1.000000 0.000000 -0.000000
vn -1.000000 0.000000 -0.000000
vn -1.000000 0.000000 -0.000000
vn 0.000000 0.000000 -1.000000
vn 0.000000 0.000000 -1.000000
vn 0.000000 0.000000 -1.000000
vn 0.000000 0.000000 -1.000000
vn 1.000000 0.000000 0.000000
vn 1.000000 0.000000 0.000000
vn 1.000000 0.000000 0.000000
vn 1.000000 0.000000 0.000000
vn -0.000000 0.000000 1.000000
vn -0.000000 0.000000 1.000000
vn 0.000000 -1.000000 0.000000
vn 0.000000 -1.000000 0.000000
vn 0.000000 -1.000000 0.000000
vn 0.000000 -1.000000 0.000000
vn 0.000000 -1.000000 0.000000
vn 0.000000 -1.000000 0.000000
vn 0.000000 -1.000000 0.000000
vn 0.000000 -1.000000 0.000000
vn 0.000000 -1.000000 0.000000
vn 0.000000 -1.000000 0.000000
vn 0.000000 -1.000000 0.000000
vn 0.000000 -1.000000 0.000000
vn -0.000000 0.000000 1.000000
vn -0.000000 -0.000001 1.000000
vn -0.000000 -0.000000 1.000000
vn -0.000000 -0.000000 1.000000
vn 1.000000 0.000000 -0.000000
vn 1.000000 0.000000 -0.000000
vn 1.000000 0.000000 -0.000000
vn 1.000000 0.000000 0.000000
vn 1.000000 0.000000 0.000000
vn 1.000000 0.000000 0.000000
vn 0.000000 0.000000 -1.000000
vn 0.000000 0.000000 -1.000000
vn 0.000000 0.000000 -1.000000
vn 0.000000 0.000000 -1.000000
vn -1.000000 0.000000 -0.000000
vn -1.000000 0.000000 -0.000000
vn -1.000000 0.000000 -0.000000
vn -1.000000 0.000000 -0.000000
vn -0.000000 0.000000 1.000000
vn -0.000000 0.000000 1.000000
vn 0.000000 -1.000000 0.000000
vn 0.000000 -1.000000 0.000000
vn 0.000000 -1.000000 0.000000
vn 0.000000 -1.000000 0.000000
vn 0.000000 -1.000000 0.000000
vn 0.000000 -1.000000 0.000000
vn 0.000000 -1.000000 0.000000
vn 0.000000 -1.000000 0.000000
vn 0.000000 -1.000000 0.000000
vn 0.000000 -1.000000 0.000000
vn 0.000000 -1.000000 0.000000
vn 0.000000 -1.000000 0.000000
vn 0.000000 0.000000 -1.000000
vn 0.000000 -0.000001 -1.000000
vn 0.000000 -0.000000 -1.000000
vn 0.000000 -0.000000 -1.000000
vn 0.000000 -0.000000 -1.000000
vn -1.000000 0.000000 -0.000000
vn -1.000000 0.000000 -0.000000
vn -1.000000 0.000000 -0.000000
vn -1.000000 0.000000 -0.000000
vn -1.000000 0.000000 -0.000000
vn -1.000000 0.000000 -0.000000
vn -1.000000 0.000000 -0.000000
vn -1.000000 0.000000 -0.000000
vn -0.000000 0.000000 1.000000
vn -0.000000 0.000000 1.000000
vn -0.000000 0.000000 1.000000
vn -0.000000 0.000000 1.000000
vn 1.000000 0.000000 0.000000
vn 1.000000 0.000000 0.000000
vn 1.000000 0.000000 0.000000
vn 1.000000 0.000000 0.000000
vn 0.000000 0.000000 -1.000000
vn 0.000000 0.000000 -1.000000
vn 0.000000 -1.000000 0.000000
vn 0.000000 -1.000000 0.000000
vn 0.000000 -1.000000 0.000000
vn 0.000000 -1.000000 0.000000
vn 0.000000 -1.000000 0.000000
vn 0.000000 -1.000000 0.000000
vn 0.000000 -1.000000 0.000000
vn 0.000000 -1.000000 0.000000
vn 0.000000 -1.000000 0.000000
vn 0.000000 -1.000000 0.000000
vn 0.000000 -1.000000 0.000000
vn 0.000000 -1.000000 0.000000
vn 0.000000 0.000000 -1.000000
vn 0.000000 0.000000 -1.000000
vn -0.000000 -0.000001 -1.000000
vn -0.000000 -0.000001 -1.000000
vn 0.000000 1.000000 -0.000000
vn 0.000000 1.000000 -0.000000
vn -0.000000 1.000000 -0.000000
vn 0.000000 1.000000 -0.000000
vn 0.000000 1.000000 -0.000000
vn 1.000000 0.000000 0.000000
vn 1.000000 0.000000 0.000000
vn 1.000000 0.000000 0.000000
vn 1.000000 0.000000 0.000000
vn -0.000000 0.000000 1.000000
vn -0.000000 0.000000 1.000000
vn -0.000000 0.000000 1.000000
vn -0.000000 0.000000 1.000000
vn -1.000000 0.000000 -0.000000
vn -1.000000 0.000000 -0.000000
vn -1.000000 0.000000 -0.000000
vn -1.000000 0.000000 -0.000000
vn 0.000000 0.000000 -1.000000
vn 0.000000 0.000000 -1.000000
vn -1.000000 0.000000 -0.000000
vn -1.000000 0.000000 -0.000000
vn 1.000000 0.000000 0.000000
vn 1.000000 0.000000 0.000000
vn 1.000000 0.000000 0.000000
vn 1.000000 0.000000 0.000000
vn -1.000000 0.000000 -0.000000
vn -1.000000 0.000000 -0.000000
vn 0.000000 0.000000 1.000000
vn -0.000000 0.000000 1.000000
vn -0.000000 0.000000 1.000000
vn 1.000000 0.000000 0.000000
vn 1.000000 0.000000 0.000000
vn 0.000000 0.000000 -1.000000
vn 0.000000 0.000000 -1.000000
vn 0.000000 0.000000 -1.000000
vn 0.000000 0.000000 -1.000000
vn -0.000000 0.000000 1.000000
vn -0.000000 0.000000 1.000000
vn -0.000000 0.000000 1.000000
vn -0.000000 0.000000 1.000000
vn 1.000000 0.000000 0.000000
vn 1.000000 0.000000 0.000000
vn -0.000000 0.000000 -1.000000
vn -0.000000 0.000000 -1.000000
vn 0.000000 0.000000 -1.000000
vn -1.000000 0.000000 -0.000000
vn -1.000000 0.000000 -0.000000
vn 1.000000 0.000000 0.000000
vn 1.000000 0.000000 0.000000
vn 1.000000 0.000000 0.000000
vn 1.000000 0.000000 0.000000
vn 1.000000 0.000000 0.000000
vn 1.000000 0.000000 0.000000
vn 1.000000 0.000000 0.000000
vn 1.000000 0.000000 0.000000
vn -0.000000 0.953029 0.302879
vn -0.000000 0.996266 0.086340
vn -0.000000 0.953029 0.302879
vn -0.000000 0.996266 0.086340
vn -1.000000 0.000000 -0.000000
vn -1.000000 0.000000 -0.000000
vn -1.000000 0.000000 -0.000000
vn -1.000000 0.000000 -0.000000
vn -1.000000 0.000000 -0.000000
vn -1.000000 0.000000 -0.000000
vn -1.000000 0.000000 -0.000000
vn -1.000000 0.000000 -0.000000
vn -0.000000 -0.953029 0.302879
vn -0.000000 -0.996266 0.086340
vn -0.000000 -0.953029 0.302879
vn -0.000000 -0.996266 0.086340
vn 0.000000 0.000000 -1.000000
vn 0.000000 0.000000 -1.000000
vn 0.000000 0.000000 -1.000000
vn 0.000000 0.000000 -1.000000
vn -0.000000 0.000000 1.000000
vn -0.000000 0.000000 1.000000
vn -0.000000 0.000000 1.000000
vn -0.000000 0.000000 1.000000
vn 0.000000 -0.996266 -0.086340
vn 0.000000 -0.996266 -0.086340
vn 0.000000 -0.953029 -0.302880
vn 0.000000 -0.953029 -0.302880
vn 0.000000 0.996266 -0.086340
vn 0.000000 0.996266 -0.086340
vn 0.000000 0.953029 -0.302880
vn 0.000000 0.953029 -0.302880
s 1
g pCube15 group1
usemtl lambert3SG
f 13/1/1 14/2/2 16/4/3
f 16/4/3 14/2/2 15/3/4
s 2
f 3/5/5 7/6/6 5/8/7
f 5/8/7 7/6/6 6/7/8
f 4/16/9 5/8/7 11/17/10
f 11/17/10 5/8/7 10/12/11
f 5/8/7 6/7/8 10/12/11
f 10/12/11 6/7/8 9/11/12
s 4
f 11/26/13 12/27/14 4/30/15
f 1/28/16 2/29/17 12/27/14
f 12/27/14 2/29/17 4/30/15
s 5
f 51/41/18 50/42/19 54/45/20
f 50/42/19 52/43/21 54/45/20
f 52/43/21 53/44/22 54/45/20
s 6
f 2/46/23 3/47/24 13/49/25
f 13/49/25 3/47/24 14/48/26
s 7
f 3/60/27 5/61/28 14/63/29
f 14/63/29 5/61/28 15/62/30
s 8
f 5/64/31 4/65/32 15/67/33
f 15/67/33 4/65/32 16/66/34
s 4
f 4/30/15 2/29/17 16/37/35
f 16/37/35 2/29/17 13/36/36
s 9
f 17/68/37 20/69/38 18/71/39
f 18/71/39 20/69/38 19/70/40
s 10
f 21/22/41 24/14/42 22/23/43
f 22/23/43 24/14/42 23/15/44
f 25/21/45 11/17/46 24/14/42
f 24/14/42 11/17/46 10/12/47
f 24/14/42 10/12/47 23/15/44
f 23/15/44 10/12/47 9/11/48
s 4
f 11/26/49 25/31/50 12/27/14
f 27/32/51 26/33/52 25/31/50
f 25/31/50 26/33/52 12/27/14
s 13
f 26/73/53 27/74/54 28/72/55
f 28/72/55 27/74/54 21/75/56
f 27/74/54 17/78/57 21/75/56
f 21/75/56 17/78/57 18/79/58
s 14
f 21/86/59 18/87/60 24/89/61
f 24/89/61 18/87/60 19/88/62
s 15
f 24/90/63 19/91/64 25/93/65
f 25/93/65 19/91/64 20/92/66
s 4
f 25/31/50 20/38/67 27/32/51
f 27/32/51 20/38/67 17/39/68
s 16
f 29/94/69 32/95/70 30/97/71
f 30/97/71 32/95/70 31/96/72
s 17
f 33/9/73 34/10/74 7/6/75
f 7/6/75 34/10/74 6/7/76
f 35/18/77 37/19/78 34/10/74
f 34/10/74 37/19/78 36/13/79
f 34/10/74 36/13/79 6/7/76
f 6/7/76 36/13/79 9/11/80
s 19
f 37/98/81 35/99/82 38/196/83
f 40/100/84 39/101/85 35/99/82
f 35/99/82 39/101/85 38/196/83
s 20
f 8/50/86 39/52/87 3/47/88
f 3/47/88 39/52/87 7/55/89
f 40/53/90 33/54/91 39/52/87
f 39/52/87 33/54/91 7/55/89
f 40/53/90 29/58/92 33/54/91
f 33/54/91 29/58/92 30/59/93
s 22
f 33/113/94 30/114/95 34/116/96
f 34/116/96 30/114/95 31/115/97
s 23
f 34/117/98 31/118/99 35/120/100
f 35/120/100 31/118/99 32/119/101
s 19
f 35/99/82 32/103/102 40/100/84
f 40/100/84 32/103/102 29/104/103
s 24
f 41/121/104 44/122/105 42/124/106
f 42/124/106 44/122/105 43/123/107
s 25
f 45/25/108 22/23/109 46/20/110
f 46/20/110 22/23/109 23/15/111
f 47/24/112 46/20/110 37/19/113
f 37/19/113 46/20/110 36/13/114
f 46/20/110 23/15/111 36/13/114
f 36/13/114 23/15/111 9/11/115
s 19
f 37/98/116 38/196/83 47/109/117
f 49/198/118 48/108/119 38/196/83
f 38/196/83 48/108/119 47/109/117
s 28
f 56/125/120 55/126/121 59/129/122
f 59/129/122 55/126/121 58/128/123
f 55/126/121 57/127/124 58/128/123
s 29
f 48/82/125 45/81/126 41/85/127
f 41/85/127 45/81/126 44/84/128
s 30
f 45/130/129 46/131/130 44/133/131
f 44/133/131 46/131/130 43/132/132
s 31
f 46/134/133 47/135/134 43/137/135
f 43/137/135 47/135/134 42/136/136
s 19
f 47/109/117 48/108/119 42/112/137
f 42/112/137 48/108/119 41/111/138
s 6
f 3/47/24 2/46/23 8/50/139
f 8/50/139 2/46/23 1/51/140
s 29
f 28/72/141 21/75/142 49/83/143
f 21/75/142 22/80/144 49/83/143
f 48/82/125 49/83/143 45/81/126
f 22/80/144 45/81/126 49/83/143
s 6
f 8/50/139 1/51/140 51/57/145
f 51/57/145 1/51/140 50/56/146
s 4
f 1/28/16 12/27/14 50/35/147
f 50/35/147 12/27/14 52/34/148
f 12/27/14 26/33/52 52/34/148
f 52/34/148 26/33/52 53/40/149
s 13
f 26/73/53 28/72/55 53/77/150
f 53/77/150 28/72/55 54/76/151
s 33
f 28/138/152 8/139/153 54/141/154
f 54/141/154 8/139/153 51/140/155
s 34
f 8/142/156 28/143/157 56/145/158
f 56/145/158 28/143/157 55/144/159
s 29
f 28/146/141 49/147/143 55/149/160
f 55/149/160 49/147/143 57/148/161
s 19
f 49/107/118 38/197/83 57/110/162
f 57/110/162 38/197/83 58/194/163
f 38/102/83 39/195/85 58/106/163
f 58/106/163 39/195/85 59/105/164
s 20
f 39/150/87 8/151/86 59/153/165
f 59/153/165 8/151/86 56/152/166
s 35
f 60/154/167 74/155/168 62/161/169
f 62/161/169 74/155/168 72/160/170
f 74/155/168 75/156/171 72/160/170
f 72/160/170 75/156/171 73/159/172
f 75/156/171 61/157/173 73/159/172
f 61/157/173 63/158/174 73/159/172
s 36
f 62/162/175 72/163/176 64/165/177
f 64/165/177 72/163/176 70/164/178
s 37
f 64/170/179 70/171/180 66/177/181
f 66/177/181 70/171/180 68/176/182
f 70/171/180 71/172/183 68/176/182
f 68/176/182 71/172/183 69/175/184
f 71/172/183 65/173/185 69/175/184
f 65/173/185 67/174/186 69/175/184
s 38
f 66/178/187 68/179/188 60/181/189
f 60/181/189 68/179/188 74/180/190
s 39
f 61/186/191 67/187/192 63/189/193
f 63/189/193 67/187/192 65/188/194
s 40
f 66/190/195 60/191/196 64/193/197
f 64/193/197 60/191/196 62/192/198
s 38
f 75/183/199 69/182/200 61/185/201
f 61/185/201 69/182/200 67/184/202
f 74/180/190 68/179/188 75/183/199
f 75/183/199 68/179/188 69/182/200
s 36
f 71/167/203 73/166/204 65/169/205
f 65/169/205 73/166/204 63/168/206
f 70/164/178 72/163/176 71/167/203
f 71/167/203 72/163/176 73/166/204
