# This file uses centimeters as units for non-parametric coordinates.

mtllib chair.mtl
g default
v -2.100000 3.234680 2.100000
v -1.528440 3.234680 2.099999
v -2.100000 3.850910 2.100000
v -1.528440 3.850910 2.099999
v -2.100000 3.770475 1.509176
v -1.528440 3.770474 1.509175
v -2.100000 3.817004 -1.526292
v -1.528441 3.817006 -1.526291
v -2.100000 3.841852 -2.142446
v -1.548138 3.874080 -2.099284
v -2.100000 3.237087 -2.100001
v -1.528441 3.237088 -2.100000
v -2.100000 3.154243 -1.489905
v -1.528441 3.154244 -1.489913
v -2.100000 3.154244 1.509174
v -1.528441 3.154244 1.509174
v -2.427188 -0.000350 -2.100000
v -1.855629 -0.000350 -2.100000
v -1.855629 -0.000350 -1.489909
v -2.427188 -0.000350 -1.489909
v -2.427188 -0.000350 1.509175
v -1.855628 -0.000350 1.509174
v -1.855629 -0.000350 2.100000
v -2.427188 -0.000350 2.100000
v -2.100001 6.179993 -1.793009
v -1.503859 5.535224 -1.732674
v -1.480972 5.516263 -2.311034
v -2.100001 6.122437 -2.399860
v -1.528441 3.100342 -0.740140
v -1.528441 3.100342 0.009634
v -1.528441 3.100343 0.759404
v -2.100000 3.100342 -0.740137
v -2.100000 3.100343 0.009634
v -2.100000 3.100343 0.759404
v -1.528440 3.716573 0.759404
v -1.528441 3.716573 0.009633
v -1.528441 3.716573 -0.740139
v -2.100000 3.716573 0.759405
v -2.100000 3.716573 0.009634
v -2.100000 3.716573 -0.740139
v -1.480497 6.179991 -1.793009
v -1.480497 6.122434 -2.399860
v -2.351561 9.982318 -2.222185
v -2.351561 9.924762 -2.829036
v -1.480482 10.448310 -2.274784
v -1.480482 10.390754 -2.881634
v -1.480489 9.700306 -2.803703
v -1.480490 9.757862 -2.196850
v -1.062560 9.700307 -2.803702
v -1.062559 9.757861 -2.196849
v -0.327131 9.757862 -2.196850
v -0.327131 9.700306 -2.803701
v -0.327133 6.122434 -2.399859
v -0.327133 6.179991 -1.793009
v -1.062565 6.179991 -1.793007
v -1.062565 6.122434 -2.399859
v 2.080735 3.234680 2.100000
v 1.509176 3.234680 2.100000
v 1.509176 3.850911 2.100000
v 2.080735 3.850911 2.100000
v 1.509176 3.770474 1.509174
v 2.080735 3.770474 1.509175
v 1.509176 3.716573 0.759404
v 2.080735 3.716573 0.759404
v 2.080735 3.841852 -2.142446
v 1.528873 3.874081 -2.099283
v 1.509176 3.237087 -2.100000
v 2.080735 3.237087 -2.100000
v 2.407923 -0.000350 -2.100000
v 1.836363 -0.000350 -2.099999
v 1.836363 -0.000350 -1.489908
v 2.407924 -0.000350 -1.489908
v 2.080734 3.154244 -1.489909
v 1.509176 3.154244 -1.489908
v 1.509176 3.100343 -0.740137
v 2.080735 3.100343 -0.740137
v 2.407923 -0.000350 1.509175
v 1.836364 -0.000350 1.509175
v 1.836364 -0.000350 2.100000
v 2.407923 -0.000350 2.100000
v 2.080735 3.817005 -1.526291
v 2.080735 3.100343 0.759404
v 2.080735 3.154244 1.509175
v 1.509176 3.154244 1.509174
v 1.509176 3.817005 -1.526292
v 1.484594 5.535225 -1.732673
v 2.080735 6.179993 -1.793008
v 1.461707 5.516262 -2.311033
v 2.080735 6.122437 -2.399860
v 2.080735 3.716573 -0.740138
v 2.080735 3.100343 0.009633
v 2.080735 3.716573 0.009633
v 1.509176 3.100343 0.759404
v 1.509176 3.100343 0.009633
v 1.509176 3.716573 -0.740138
v 1.509176 3.716573 0.009633
v 1.461232 6.122435 -2.399860
v 1.461232 6.179991 -1.793008
v 2.332296 9.924762 -2.829037
v 2.332296 9.982318 -2.222185
v 1.461217 10.448309 -2.274782
v 1.461217 10.390753 -2.881634
v 1.461225 9.757862 -2.196850
v 1.461225 9.700306 -2.803701
v 1.043295 9.757862 -2.196850
v 0.307866 9.757862 -2.196850
v 0.307866 9.700306 -2.803701
v 1.043295 9.700306 -2.803701
v 1.043300 6.179991 -1.793008
v 0.307868 6.179991 -1.793008
v 0.307868 6.122435 -2.399860
v 1.043300 6.122435 -2.399860
vt 0.966243 0.560665
vt 0.966243 0.533657
vt 0.998008 0.533657
vt 0.998008 0.560665
vt 0.799485 0.576125
vt 0.799485 0.549118
vt 0.966243 0.390124
vt 0.998008 0.390124
vt 0.966243 0.363117
vt 0.998008 0.363117
vt 0.799485 0.374664
vt 0.799485 0.347656
vt 0.392118 0.544432
vt 0.419125 0.544432
vt 0.419125 0.572350
vt 0.392118 0.572350
vt 0.562659 0.544432
vt 0.562659 0.572350
vt 0.419125 0.607778
vt 0.392118 0.607778
vt 0.589666 0.544432
vt 0.589666 0.572350
vt 0.562659 0.607778
vt 0.419125 0.643206
vt 0.392118 0.643206
vt 0.589666 0.607778
vt 0.562659 0.643206
vt 0.419125 0.678634
vt 0.392118 0.678634
vt 0.589666 0.643206
vt 0.562659 0.678634
vt 0.419125 0.715782
vt 0.392118 0.715782
vt 0.589666 0.678634
vt 0.562659 0.715782
vt 0.589666 0.715782
vt 0.563589 0.742857
vt 0.418194 0.742857
vt 0.698536 0.199893
vt 0.672459 0.201555
vt 0.671528 0.168719
vt 0.698536 0.168719
vt 0.669285 0.286205
vt 0.698536 0.317452
vt 0.669263 0.317452
vt 0.527064 0.201555
vt 0.527995 0.168719
vt 0.686988 0.001837
vt 0.713996 0.001837
vt 0.710422 0.513453
vt 0.669262 0.537474
vt 0.669262 0.501883
vt 0.530260 0.317452
vt 0.530238 0.286205
vt 0.500987 0.199893
vt 0.500987 0.168719
vt 0.530261 0.537474
vt 0.530261 0.501883
vt 0.500987 0.317452
vt 0.485527 0.001837
vt 0.512534 0.001837
vt 0.489101 0.513453
vt 0.752256 0.772743
vt 0.725248 0.772743
vt 0.725248 0.743915
vt 0.752256 0.743915
vt 0.793349 0.711095
vt 0.766342 0.711096
vt 0.766342 0.675667
vt 0.793349 0.675667
vt 0.622809 0.711095
vt 0.622809 0.675667
vt 0.766342 0.640239
vt 0.793349 0.640239
vt 0.766342 0.739924
vt 0.622809 0.739924
vt 0.595801 0.711096
vt 0.595801 0.675667
vt 0.622809 0.640239
vt 0.766342 0.604811
vt 0.793349 0.604811
vt 0.595801 0.640239
vt 0.622809 0.604811
vt 0.766342 0.569383
vt 0.793349 0.569383
vt 0.595801 0.604811
vt 0.622809 0.569383
vt 0.595801 0.569383
vt 0.622809 0.541465
vt 0.766342 0.541465
vt 0.896478 0.608034
vt 0.869471 0.608034
vt 0.869471 0.580117
vt 0.896478 0.580117
vt 0.038926 0.168719
vt 0.067754 0.164449
vt 0.066035 0.198612
vt 0.036920 0.199893
vt 0.038926 0.001837
vt 0.067754 0.001837
vt 0.103182 0.161670
vt 0.103182 0.193435
vt 0.053432 0.320419
vt 0.024757 0.317452
vt 0.138610 0.161670
vt 0.138610 0.193435
vt 0.033152 0.516420
vt 0.004477 0.513453
vt 0.174038 0.161670
vt 0.174038 0.193435
vt 0.030667 0.540441
vt 0.001992 0.537474
vt 0.209466 0.164449
vt 0.209467 0.196214
vt 0.237384 0.168595
vt 0.237384 0.200360
vt 0.209467 0.001837
vt 0.237384 0.001837
vt 0.153799 0.902703
vt 0.124971 0.898433
vt 0.124971 0.735821
vt 0.153799 0.735821
vt 0.307763 0.898433
vt 0.280756 0.898433
vt 0.265296 0.735821
vt 0.292303 0.735821
vt 0.341027 0.898433
vt 0.314019 0.898433
vt 0.329480 0.735821
vt 0.356487 0.735821
vt 0.223051 0.898433
vt 0.195133 0.902579
vt 0.195133 0.735821
vt 0.223051 0.735821
vt 0.575179 0.746848
vt 0.602254 0.749790
vt 0.612260 0.834441
vt 0.584931 0.835418
vt 0.761406 0.090407
vt 0.762510 0.123643
vt 0.733237 0.123643
vt 0.733237 0.001837
vt 0.760244 0.001837
vt 0.902616 0.090407
vt 0.901512 0.123643
vt 0.762510 0.308074
vt 0.762511 0.343665
vt 0.721350 0.319644
vt 0.903778 0.001837
vt 0.930785 0.001837
vt 0.930785 0.123643
vt 0.901512 0.308074
vt 0.901512 0.343665
vt 0.942672 0.319644
vt 0.062627 0.728863
vt 0.027876 0.728863
vt 0.027876 0.544432
vt 0.062627 0.544432
vt 0.001992 0.732854
vt 0.036743 0.732854
vt 0.036742 0.917285
vt 0.001992 0.917285
vt 0.332090 0.547399
vt 0.313007 0.731830
vt 0.284332 0.728863
vt 0.303415 0.544432
vt 0.249522 0.731830
vt 0.230440 0.547399
vt 0.259115 0.544432
vt 0.278197 0.728863
vt 0.357307 0.731830
vt 0.338225 0.547399
vt 0.366900 0.544432
vt 0.385982 0.728863
vt 0.690167 0.772743
vt 0.690167 0.743915
vt 0.717175 0.743915
vt 0.717175 0.772743
vt 0.904552 0.608034
vt 0.904552 0.580117
vt 0.931559 0.580117
vt 0.931559 0.608034
vt 0.442315 0.168719
vt 0.444321 0.199893
vt 0.415206 0.198612
vt 0.413487 0.164449
vt 0.456484 0.317452
vt 0.427809 0.320419
vt 0.378059 0.193435
vt 0.378059 0.161670
vt 0.413487 0.001837
vt 0.442315 0.001837
vt 0.476764 0.513453
vt 0.448089 0.516420
vt 0.342631 0.193435
vt 0.342631 0.161670
vt 0.479249 0.537474
vt 0.450574 0.540441
vt 0.307203 0.193435
vt 0.307203 0.161670
vt 0.271775 0.196214
vt 0.271775 0.164449
vt 0.243857 0.200360
vt 0.243857 0.168595
vt 0.243857 0.001837
vt 0.271775 0.001837
vt 0.160052 0.902703
vt 0.160052 0.735821
vt 0.188880 0.735821
vt 0.188880 0.898433
vt 0.362743 0.909460
vt 0.378203 0.746848
vt 0.405211 0.746848
vt 0.389750 0.909460
vt 0.426927 0.909460
vt 0.411467 0.746848
vt 0.438474 0.746848
vt 0.453935 0.909460
vt 0.230214 0.898433
vt 0.230214 0.735821
vt 0.258132 0.735821
vt 0.258132 0.902579
vt 0.567434 0.746848
vt 0.557682 0.835418
vt 0.530353 0.834441
vt 0.540359 0.749790
vt 0.043115 0.920252
vt 0.043115 0.735821
vt 0.077866 0.735821
vt 0.077865 0.920252
vt 0.118794 0.735821
vt 0.118794 0.920252
vt 0.084043 0.920252
vt 0.084043 0.735821
vt 0.176547 0.547399
vt 0.205222 0.544432
vt 0.224304 0.728863
vt 0.195630 0.731830
vt 0.151329 0.731830
vt 0.122655 0.728863
vt 0.141737 0.544432
vt 0.170412 0.547399
vt 0.097437 0.731830
vt 0.068762 0.728863
vt 0.087844 0.544432
vt 0.116519 0.547399
vt 0.495272 0.885849
vt 0.495272 0.746848
vt 0.523947 0.746848
vt 0.523947 0.885849
vt 0.487519 0.888058
vt 0.460191 0.886977
vt 0.460191 0.747929
vt 0.487520 0.746848
vt 0.787615 0.772590
vt 0.787615 0.743915
vt 0.807363 0.743915
vt 0.807363 0.772590
vt 0.648680 0.773920
vt 0.620005 0.773920
vt 0.620005 0.743915
vt 0.648680 0.743915
vt 0.834648 0.580117
vt 0.834648 0.608792
vt 0.814900 0.608792
vt 0.814900 0.580117
vt 0.683761 0.773920
vt 0.655086 0.773920
vt 0.655086 0.743915
vt 0.683761 0.743915
vt 0.861933 0.580117
vt 0.861933 0.608791
vt 0.842185 0.608791
vt 0.842185 0.580117
vt 0.760329 0.772590
vt 0.760329 0.743915
vt 0.780077 0.743915
vt 0.780077 0.772590
vn 0.000001 0.000000 1.000000
vn 0.000000 0.000000 1.000000
vn 0.000000 0.000000 1.000000
vn 0.000002 0.000000 1.000000
vn 0.000000 0.990860 -0.134897
vn -0.000000 0.990860 -0.134897
vn 0.000000 0.995017 -0.099708
vn 0.000000 0.995017 -0.099708
vn 0.000000 0.999355 -0.035922
vn 0.000001 0.999355 -0.035922
vn 0.061698 -0.080939 -0.994808
vn 0.019951 -0.026505 -0.999450
vn 0.003317 -0.002230 -0.999992
vn 0.005951 -0.004986 -0.999970
vn 0.000000 -1.000000 0.000000
vn 0.000000 -1.000000 0.000000
vn 0.000000 -1.000000 0.000000
vn 0.000000 -1.000000 0.000000
vn -0.000000 -0.997426 -0.071706
vn 0.000000 -0.995246 -0.097398
vn 0.000000 -0.999355 -0.035922
vn -0.000001 -0.999355 -0.035922
vn 0.000000 -1.000000 0.000000
vn 0.000000 -1.000000 0.000000
vn 0.000000 -1.000000 0.000000
vn 0.000000 -1.000000 0.000000
vn -0.996637 0.081756 0.005551
vn -0.997352 0.072565 0.004927
vn -1.000000 -0.000000 -0.000000
vn -1.000000 -0.000000 0.000000
vn -1.000000 0.000000 0.000000
vn -1.000000 0.000000 0.000000
vn -0.997303 0.073223 -0.004984
vn -1.000000 0.000000 -0.000000
vn -0.996551 0.082790 -0.005636
vn -1.000000 0.000000 -0.000000
vn 0.000001 -0.000000 -1.000000
vn 0.000001 -0.000000 -1.000000
vn 0.994777 -0.101839 -0.006914
vn 0.994777 -0.101839 -0.006914
vn 0.994777 -0.101839 -0.006914
vn 0.994777 -0.101839 -0.006914
vn 0.000007 -0.000001 1.000000
vn 0.000007 -0.000001 1.000000
vn 0.000007 -0.000001 1.000000
vn 0.000007 -0.000001 1.000000
vn -0.994777 0.101839 0.006914
vn -0.994777 0.101839 0.006914
vn -0.000001 -0.000000 -1.000000
vn -0.000001 -0.000000 -1.000000
vn -0.000001 -0.000000 -1.000000
vn -0.000001 -0.000000 -1.000000
vn 0.994773 -0.101877 0.006935
vn 0.994773 -0.101877 0.006935
vn 0.994773 -0.101877 0.006935
vn 0.994773 -0.101877 0.006935
vn 0.000001 0.000000 1.000000
vn 0.000001 0.000000 1.000000
vn -0.994773 0.101877 -0.006935
vn -0.994773 0.101877 -0.006935
vn 0.999632 -0.027059 0.001873
vn 0.999632 -0.027059 0.001873
vn 0.999632 -0.027059 0.001873
vn 0.999632 -0.027059 0.001873
vn 0.000000 -0.144988 -0.989433
vn -0.000002 -0.113265 -0.993565
vn -0.000001 -0.125961 -0.992035
vn -0.999168 -0.040608 0.003852
vn -0.999168 -0.040608 0.003852
vn -1.000000 0.000000 0.000000
vn -1.000000 0.000000 0.000000
vn -1.000000 0.000000 0.000000
vn -1.000000 0.000000 0.000000
vn -0.000000 -0.999355 0.035922
vn -0.000000 -0.999355 0.035922
vn -0.000000 -0.995279 0.097051
vn 0.000000 -0.997426 0.071705
vn -0.000001 -1.000000 0.000000
vn -0.000000 -1.000000 0.000000
vn -0.000001 0.997869 0.065249
vn -0.000000 0.997869 0.065250
vn -0.000000 0.993240 0.116076
vn -0.000002 0.991938 0.126722
vn 0.000000 1.000000 -0.000000
vn 0.000000 1.000000 0.000000
vn -0.000000 0.093169 0.995650
vn 0.000000 0.103823 0.994596
vn 0.000001 0.111451 0.993770
vn -0.473970 0.876607 -0.083143
vn -0.473970 0.876607 -0.083143
vn -0.473970 0.876607 -0.083143
vn -0.473970 0.876607 -0.083143
vn -0.997845 -0.065318 0.006195
vn -0.997845 -0.065318 0.006195
vn 0.000001 0.112162 0.993690
vn -0.000000 0.112161 0.993690
vn -0.000000 0.112160 0.993690
vn -0.000002 -0.112160 -0.993690
vn -0.000002 -0.112160 -0.993690
vn 0.000002 0.112160 0.993690
vn 0.000002 0.112160 0.993690
vn 0.000002 0.112160 0.993690
vn 0.000002 0.112160 0.993690
vn 0.000000 -0.112160 -0.993690
vn 0.000000 -0.112160 -0.993690
vn 0.000000 -0.112160 -0.993690
vn 0.000000 -0.112160 -0.993690
vn -1.000000 0.000002 0.000000
vn -1.000000 0.000002 0.000000
vn -1.000000 0.000002 0.000000
vn -1.000000 0.000002 0.000000
vn 1.000000 -0.000002 0.000001
vn 1.000000 -0.000002 0.000001
vn 1.000000 -0.000002 0.000001
vn 1.000000 -0.000002 0.000001
vn 1.000000 -0.000000 -0.000000
vn 1.000000 -0.000000 -0.000000
vn 1.000000 -0.000000 -0.000000
vn 1.000000 -0.000000 -0.000000
vn 0.000000 0.000000 1.000000
vn 0.000000 0.000000 1.000000
vn -0.000000 0.000000 1.000000
vn -0.000000 0.000000 1.000000
vn 0.000000 0.990860 -0.134898
vn 0.000000 0.995017 -0.099708
vn -0.000000 0.995017 -0.099708
vn -0.000000 0.990860 -0.134897
vn 0.000000 0.999355 -0.035922
vn -0.000000 0.999355 -0.035922
vn -0.061699 -0.080939 -0.994808
vn -0.005951 -0.004986 -0.999970
vn -0.003317 -0.002230 -0.999992
vn -0.019951 -0.026505 -0.999450
vn -0.000000 -1.000000 -0.000000
vn -0.000000 -1.000000 -0.000000
vn -0.000000 -1.000000 -0.000000
vn -0.000000 -1.000000 -0.000000
vn -0.000000 -0.997426 -0.071705
vn -0.000000 -0.999355 -0.035922
vn 0.000000 -0.999355 -0.035922
vn 0.000000 -0.995246 -0.097398
vn 0.000000 -1.000000 0.000000
vn 0.000000 -1.000000 0.000000
vn 0.000000 -1.000000 0.000000
vn 0.000000 -1.000000 0.000000
vn 0.996637 0.081756 0.005551
vn 1.000000 -0.000000 -0.000000
vn 1.000000 -0.000000 -0.000000
vn 0.997351 0.072565 0.004927
vn 1.000000 0.000000 0.000000
vn 1.000000 0.000000 0.000000
vn 0.997303 0.073223 -0.004984
vn 1.000000 0.000000 0.000000
vn 1.000000 0.000000 -0.000000
vn 0.996551 0.082790 -0.005636
vn -0.000001 -0.000000 -1.000000
vn -0.000001 -0.000000 -1.000000
vn -0.994777 -0.101839 -0.006914
vn -0.994777 -0.101839 -0.006914
vn -0.994777 -0.101839 -0.006914
vn -0.994777 -0.101839 -0.006914
vn 0.000001 0.000000 1.000000
vn 0.000001 0.000000 1.000000
vn 0.000001 0.000000 1.000000
vn 0.000001 0.000000 1.000000
vn 0.994777 0.101839 0.006914
vn 0.994777 0.101839 0.006914
vn 0.000001 -0.000000 -1.000000
vn 0.000001 -0.000000 -1.000000
vn 0.000001 -0.000000 -1.000000
vn 0.000001 -0.000000 -1.000000
vn -0.994773 -0.101877 0.006935
vn -0.994773 -0.101877 0.006935
vn -0.994773 -0.101877 0.006935
vn -0.994773 -0.101877 0.006935
vn 0.000000 0.000000 1.000000
vn 0.000000 0.000000 1.000000
vn 0.994773 0.101877 -0.006935
vn 0.994773 0.101877 -0.006935
vn -0.000000 0.093169 0.995650
vn -0.000001 0.111451 0.993770
vn -0.000000 0.103823 0.994596
vn -0.999632 -0.027060 0.001873
vn -0.999632 -0.027060 0.001873
vn -0.999632 -0.027060 0.001873
vn -0.999632 -0.027060 0.001873
vn 0.999168 -0.040608 0.003851
vn 0.999168 -0.040608 0.003851
vn 1.000000 -0.000000 -0.000000
vn 1.000000 -0.000000 -0.000000
vn 1.000000 -0.000000 -0.000000
vn 1.000000 -0.000000 -0.000000
vn -0.000000 -0.999355 0.035922
vn -0.000000 -0.997426 0.071705
vn -0.000000 -0.995279 0.097051
vn -0.000000 -0.999355 0.035922
vn 0.000000 -1.000000 0.000000
vn 0.000000 -1.000000 0.000000
vn -0.000000 0.997869 0.065249
vn -0.000000 0.991938 0.126721
vn 0.000000 0.993240 0.116076
vn 0.000000 0.997869 0.065250
vn 0.000000 1.000000 0.000000
vn 0.000000 1.000000 0.000000
vn 0.000000 -0.990906 -0.134553
vn 0.000000 -0.990906 -0.134553
vn -0.000000 0.995076 0.099119
vn -0.000000 0.995076 0.099119
vn -0.000000 -0.990860 0.134898
vn -0.000000 -0.990860 0.134898
vn -0.032740 -0.112100 -0.993158
vn -0.032740 -0.112100 -0.993158
vn -0.032740 -0.112100 -0.993157
vn 0.473969 0.876608 -0.083141
vn 0.473969 0.876608 -0.083141
vn 0.473969 0.876608 -0.083141
vn 0.473969 0.876608 -0.083141
vn 0.997845 -0.065318 0.006195
vn 0.997845 -0.065318 0.006195
vn -0.000001 0.112160 0.993690
vn -0.000001 0.112160 0.993690
vn -0.000001 -0.112160 -0.993690
vn 0.000000 -0.112159 -0.993690
vn 0.000000 -0.112159 -0.993690
vn 0.000000 0.112160 0.993690
vn 0.000000 0.112160 0.993690
vn 0.000000 0.112160 0.993690
vn 0.000000 0.112160 0.993690
vn 0.000000 -0.112160 -0.993690
vn 0.000000 -0.112160 -0.993690
vn 0.000000 -0.112160 -0.993690
vn 0.000000 -0.112160 -0.993690
vn 1.000000 0.000002 -0.000000
vn 1.000000 0.000002 -0.000000
vn 1.000000 0.000002 -0.000000
vn 1.000000 0.000002 -0.000000
vn -1.000000 -0.000002 0.000000
vn -1.000000 -0.000002 0.000000
vn -1.000000 -0.000002 0.000000
vn -1.000000 -0.000002 0.000000
vn -1.000000 -0.000001 0.000000
vn -1.000000 -0.000001 0.000000
vn -1.000000 -0.000001 0.000000
vn -1.000000 -0.000001 0.000000
vn -0.000000 0.112160 0.993690
vn -0.000000 0.112160 0.993690
vn 0.000000 -0.112159 -0.993690
vn 0.000000 -0.112159 -0.993690
vn 0.000000 0.995532 -0.094423
vn 0.000000 0.995532 -0.094423
vn 0.000000 0.995532 -0.094423
vn 0.000000 0.995532 -0.094423
vn -0.000000 -0.125961 -0.992035
vn 0.000000 -0.144988 -0.989433
vn -0.000000 -0.999463 0.032768
vn -0.000000 -0.999463 0.032768
vn -0.000000 -0.999463 0.032768
vn -0.000000 -0.999463 0.032768
vn 0.000000 0.995532 -0.094422
vn 0.000000 0.995532 -0.094422
vn 0.000000 0.995532 -0.094422
vn 0.000000 0.995532 -0.094422
vn -0.000001 0.995532 -0.094421
vn -0.000001 0.995532 -0.094421
vn -0.000001 0.995532 -0.094421
vn -0.000001 0.995532 -0.094421
vn 0.000000 0.995532 -0.094421
vn 0.000000 0.995532 -0.094421
vn 0.000000 0.995532 -0.094421
vn 0.000000 0.995532 -0.094421
vn 0.000000 -0.995532 0.094422
vn 0.000000 -0.995532 0.094422
vn 0.000000 -0.995532 0.094422
vn 0.000000 -0.995532 0.094422
vn 0.000000 -0.995532 0.094421
vn 0.000000 -0.995532 0.094421
vn 0.000000 -0.995532 0.094421
vn 0.000000 -0.995532 0.094421
vn -0.000000 -0.995532 0.094420
vn -0.000000 -0.995532 0.094420
vn -0.000000 -0.995532 0.094420
vn -0.000000 -0.995532 0.094420
vn 0.000001 0.112160 0.993690
vn 0.000001 0.112160 0.993690
vn -0.000000 0.112159 0.993690
vn -0.000001 -0.112160 -0.993690
vn -0.000001 -0.112160 -0.993690
vn -0.000001 -0.113265 -0.993565
vn -0.000002 -0.112157 -0.993690
vn -0.000001 0.119256 0.992863
vn -0.000001 0.119256 0.992863
vn -0.000001 0.119256 0.992864
vn -0.020734 0.112136 0.993477
vn -0.020734 0.112136 0.993477
vn -0.020734 0.112136 0.993477
vn 0.020735 0.112136 0.993476
vn 0.020735 0.112136 0.993476
vn 0.020735 0.112136 0.993477
vn -0.000002 0.119257 0.992863
vn -0.000002 0.119257 0.992863
vn -0.000002 0.119257 0.992863
vn 0.084894 -0.130838 -0.987762
vn 0.032738 -0.112100 -0.993158
vn 0.032738 -0.112100 -0.993158
vn 0.032738 -0.112100 -0.993158
vn -0.084896 -0.130839 -0.987762
s 1
g Ex6_Combined:pCube3 group1
usemtl Ex6_Combined:lambert2SG
f 1/1/1 2/2/2 4/3/3 3/4/4
s 2
f 3/13/5 4/14/6 6/15/7 5/16/8
f 5/16/8 6/15/7 35/19/9 38/20/10
s 3
f 9/39/11 10/40/12 12/41/13 11/42/14
s off
f 17/63/15 18/64/16 19/65/17 20/66/18
s 4
f 13/67/19 14/68/20 29/69/21 32/70/22
s off
f 21/91/23 22/92/24 23/93/25 24/94/26
s 5
f 11/95/27 13/96/28 7/97/29 9/98/30
f 38/110/31 34/109/32 15/113/33 5/114/34
f 15/113/33 1/115/35 3/116/36 5/114/34
s 3
f 11/42/14 12/41/13 18/48/37 17/49/38
s off
f 12/119/39 14/120/40 19/121/41 18/122/42
f 14/123/43 13/124/44 20/125/45 19/126/46
s 5
f 13/96/28 11/95/27 17/99/47 20/100/48
s off
f 15/127/49 16/128/50 22/129/51 21/130/52
f 16/131/53 2/132/54 23/133/55 22/134/56
s 1
f 2/2/2 1/1/1 24/5/57 23/6/58
s 5
f 1/115/35 15/113/33 21/117/59 24/118/60
s off
f 8/135/61 10/136/62 27/137/63 26/138/64
s 7
f 27/43/65 28/44/66 42/45/67
s 5
f 9/98/30 7/97/29 25/103/68 28/104/69
f 13/96/28 32/101/70 40/102/71 7/97/29
f 40/102/71 32/101/70 33/105/72 39/106/73
f 39/106/73 33/105/72 34/109/32 38/110/31
s 4
f 34/81/74 31/80/75 16/84/76 15/85/77
f 33/74/78 30/73/79 31/80/75 34/81/74
f 32/70/22 29/69/21 30/73/79 33/74/78
s 2
f 40/29/80 37/28/81 8/32/82 7/33/83
f 39/25/84 36/24/85 37/28/81 40/29/80
f 38/20/10 35/19/9 36/24/85 39/25/84
s 10
f 26/139/86 41/140/87 25/141/88
s off
f 44/108/89 43/107/90 45/111/91 46/112/92
s 5
f 28/104/69 25/103/68 43/107/93 44/108/94
s 11
f 43/148/95 48/146/96 45/147/97
s 7
f 42/45/67 28/44/66 44/50/98 47/52/99
s off
f 51/155/100 50/156/101 55/157/102 54/158/103
f 53/159/104 56/160/105 49/161/106 52/162/107
f 55/163/108 50/164/109 49/165/110 56/166/111
f 48/167/112 41/168/113 42/169/114 47/170/115
f 51/171/116 54/172/117 53/173/118 52/174/119
s 1
f 57/9/120 60/10/121 59/8/122 58/7/123
s 2
f 60/21/124 62/22/125 61/18/126 59/17/127
f 62/22/125 64/26/128 63/23/129 61/18/126
s 3
f 65/55/130 68/56/131 67/47/132 66/46/133
s off
f 69/175/134 72/176/135 71/177/136 70/178/137
s 4
f 73/77/138 76/78/139 75/72/140 74/71/141
s off
f 77/179/142 80/180/143 79/181/144 78/182/145
s 15
f 68/183/146 65/184/147 81/185/148 73/186/149
f 64/199/150 62/201/151 83/202/152 82/200/153
f 83/202/152 62/201/151 60/203/154 57/204/155
s 3
f 68/56/131 69/60/156 70/61/157 67/47/132
s off
f 67/207/158 70/208/159 71/209/160 74/210/161
f 74/211/162 71/212/163 72/213/164 73/214/165
s 15
f 73/186/149 72/191/166 69/192/167 68/183/146
s off
f 83/215/168 77/216/169 78/217/170 84/218/171
f 84/219/172 78/220/173 79/221/174 58/222/175
s 1
f 58/7/123 79/11/176 80/12/177 57/9/120
s 15
f 57/204/155 80/205/178 77/206/179 83/202/152
s 10
f 86/144/180 87/151/181 98/145/182
s off
f 85/223/183 86/224/184 88/225/185 66/226/186
s 15
f 65/184/147 89/187/187 87/188/188 81/185/148
f 73/186/149 81/185/148 90/189/189 76/190/190
f 90/189/189 92/195/191 91/196/192 76/190/190
f 92/195/191 64/199/150 82/200/153 91/196/192
s 4
f 82/86/193 83/88/194 84/87/195 93/83/196
f 91/82/197 82/86/193 93/83/196 94/79/198
f 76/78/139 91/82/197 94/79/198 75/72/140
s 2
f 90/34/199 81/36/200 85/35/201 95/31/202
f 92/30/203 90/34/199 95/31/202 96/27/204
f 64/26/128 92/30/203 96/27/204 63/23/129
s 4
f 29/69/21 75/72/140 94/79/198 30/73/79
f 14/68/20 74/71/141 75/72/140 29/69/21
f 12/75/205 67/76/206 74/71/141 14/68/20
s 3
f 10/40/12 66/46/133 67/47/132 12/41/13
s 2
f 8/32/82 85/35/201 66/37/207 10/38/208
f 37/28/81 95/31/202 85/35/201 8/32/82
f 36/24/85 96/27/204 95/31/202 37/28/81
f 35/19/9 63/23/129 96/27/204 36/24/85
f 6/15/7 61/18/126 63/23/129 35/19/9
f 4/14/6 59/17/127 61/18/126 6/15/7
s 1
f 2/2/2 58/7/123 59/8/122 4/3/3
s 4
f 16/84/76 84/87/195 58/89/209 2/90/210
f 31/80/75 93/83/196 84/87/195 16/84/76
f 30/73/79 94/79/198 93/83/196 31/80/75
s off
f 88/54/211 89/59/212 65/55/213
f 99/193/214 102/197/215 101/198/216 100/194/217
s 15
f 89/187/187 99/193/218 100/194/219 87/188/188
s 10
f 87/151/181 100/154/220 103/152/221 98/145/182
s 18
f 99/62/222 104/58/223 102/57/224
s off
f 106/227/225 110/228/226 109/229/227 105/230/228
f 111/231/229 107/232/230 108/233/231 112/234/232
f 109/235/233 112/236/234 108/237/235 105/238/236
f 103/239/237 104/240/238 97/241/239 98/242/240
f 106/243/241 107/244/242 111/245/243 110/246/244
s 11
f 45/147/97 48/146/96 103/152/245 101/153/246
s 18
f 47/52/247 46/51/248 102/57/224 104/58/223
s off
f 45/247/249 101/248/250 102/249/251 46/250/252
s 7
f 27/43/65 42/45/67 97/53/253 88/54/254
s 10
f 41/140/87 26/139/86 86/144/180 98/145/182
s off
f 26/251/255 27/252/256 88/253/257 86/254/258
f 42/255/259 41/256/260 55/257/261 56/258/262
f 53/259/263 54/260/264 110/261/265 111/262/266
f 98/263/267 97/264/268 112/265/269 109/266/270
f 51/267/271 52/268/272 107/269/273 106/270/274
f 105/271/275 108/272/276 104/273/277 103/274/278
f 49/275/279 50/276/280 48/277/281 47/278/282
s 10
f 25/141/88 41/140/87 48/146/283 43/148/284
s 11
f 103/152/245 100/154/285 101/153/246
s 7
f 97/53/253 104/58/286 99/62/287 89/59/288
s 18
f 47/52/247 44/50/289 46/51/248
s off
f 86/144/290 85/149/291 81/150/292
f 86/144/293 81/150/294 87/151/295
f 26/139/296 25/141/297 7/142/298
f 26/139/299 7/142/300 8/143/301
s 3
f 27/43/302 10/40/12 9/39/11
s off
f 27/43/303 9/39/304 28/44/305
s 7
f 88/54/254 97/53/253 89/59/288
s 3
f 88/54/306 65/55/130 66/46/133
