# This file uses centimeters as units for non-parametric coordinates.

mtllib knife.mtl
g default
v -0.100000 0.510000 0.015006
v 0.100000 0.510000 0.015006
v -0.100000 1.227669 0.010000
v 0.100000 1.227669 0.010000
v -0.100000 1.227669 -0.010000
v 0.100000 1.227669 -0.010000
v -0.100000 0.510000 -0.015006
v 0.100000 0.510000 -0.015006
v 0.100000 1.157081 -0.010000
v 0.077060 1.127929 -0.010000
v 0.100000 1.098777 -0.010000
v 0.077060 1.069624 -0.010000
v 0.100000 1.040472 -0.010000
v 0.077060 1.011320 -0.010000
v 0.100000 0.982167 -0.010000
v 0.100000 0.982167 0.010000
v 0.077060 1.011320 0.010000
v 0.100000 1.040472 0.010000
v 0.077060 1.069624 0.010000
v 0.100000 1.098777 0.010000
v 0.077060 1.127929 0.010000
v 0.100000 1.157081 0.010000
v 0.066590 0.900910 -0.011252
v 0.066590 0.591257 -0.013755
v 0.066590 0.591257 0.013755
v 0.066590 0.900910 0.011252
v -0.079889 0.057367 -0.014723
v 0.065082 0.006010 -0.014723
v -0.081300 0.510000 -0.013754
v 0.066493 0.510000 -0.013754
v -0.081300 0.510000 0.013754
v 0.066493 0.510000 0.013754
v -0.079889 0.057367 0.014723
v 0.065082 0.006010 0.014723
v 0.100000 1.512631 0.010000
v 0.100000 1.512631 -0.010000
v -0.100000 1.162098 -0.011252
v -0.100000 1.127427 -0.011877
v -0.100000 1.066280 -0.012503
v -0.100000 1.011074 -0.013129
v -0.100000 0.898334 -0.013755
v -0.100000 0.898334 0.013755
v -0.100000 1.011074 0.013129
v -0.100000 1.066280 0.012503
v -0.100000 1.127427 0.011877
v -0.100000 1.162098 0.011252
vt 0.631460 0.393064
vt 0.630960 0.339713
vt 0.653396 0.339713
vt 0.859575 0.142522
vt 0.899185 0.142522
vt 0.897533 0.249763
vt 0.861226 0.249763
vt 0.842239 0.355391
vt 0.841418 0.473190
vt 0.828286 0.473190
vt 0.827464 0.355391
vt 0.801094 0.426845
vt 0.814226 0.426845
vt 0.814226 0.473190
vt 0.801094 0.473190
vt 0.801094 0.407704
vt 0.814226 0.407704
vt 0.814226 0.426845
vt 0.801094 0.426845
vt 0.801094 0.388564
vt 0.814226 0.388564
vt 0.814226 0.407704
vt 0.801094 0.407704
vt 0.801094 0.369423
vt 0.814226 0.369423
vt 0.814226 0.388564
vt 0.801094 0.388564
vt 0.801094 0.350283
vt 0.814226 0.350283
vt 0.814226 0.369423
vt 0.801094 0.369423
vt 0.801094 0.331142
vt 0.814226 0.331142
vt 0.814226 0.350283
vt 0.801094 0.350283
vt 0.801094 0.312002
vt 0.814226 0.312002
vt 0.814226 0.331142
vt 0.801094 0.331142
vt 0.800273 0.258651
vt 0.815048 0.258651
vt 0.814226 0.312002
vt 0.801094 0.312002
vt 0.800273 0.258651
vt 0.798629 0.055343
vt 0.816691 0.055343
vt 0.815048 0.258651
vt 0.141230 0.059362
vt 0.141230 0.115169
vt 0.003743 0.115169
vt 0.003743 0.059362
vt 0.003743 0.636283
vt 0.031007 0.421026
vt 0.491563 0.418931
vt 0.491563 0.638379
vt 0.491563 0.754871
vt 0.491563 0.974320
vt 0.031007 0.972224
vt 0.003743 0.756967
vt 0.003743 0.129056
vt 0.464299 0.129056
vt 0.464299 0.184863
vt 0.003743 0.184863
vt 0.864408 0.064725
vt 0.888210 0.069722
vt 0.888210 0.109332
vt 0.864408 0.114329
vt 0.003743 0.198750
vt 0.491563 0.198750
vt 0.491563 0.254557
vt 0.003743 0.254557
vt 0.945945 0.114329
vt 0.900847 0.109332
vt 0.900847 0.069722
vt 0.945945 0.064725
vt 0.841418 0.473190
vt 0.841418 0.660287
vt 0.828286 0.660287
vt 0.828286 0.473190
vt 0.522082 0.810911
vt 0.653396 0.810911
vt 0.653396 0.998008
vt 0.801094 0.473190
vt 0.814226 0.473190
vt 0.814226 0.660287
vt 0.801094 0.660287
vt 0.660035 0.810911
vt 0.791349 0.810911
vt 0.660035 0.998008
vt 0.682471 0.339713
vt 0.681971 0.393064
vt 0.660035 0.339713
vt 0.522082 0.339713
vt 0.533923 0.339713
vt 0.522082 0.457513
vt 0.791349 0.810911
vt 0.660035 0.810911
vt 0.660035 0.764566
vt 0.791349 0.693112
vt 0.844705 0.001992
vt 0.843883 0.119792
vt 0.825821 0.119792
vt 0.824999 0.001992
vt 0.843472 0.178691
vt 0.826232 0.178691
vt 0.843061 0.237591
vt 0.826643 0.237591
vt 0.842650 0.296491
vt 0.827054 0.296491
vt 0.791349 0.457513
vt 0.681971 0.596372
vt 0.638334 0.668863
vt 0.631460 0.596372
vt 0.653396 0.649723
vt 0.675097 0.668863
vt 0.660035 0.649723
vt 0.522082 0.516412
vt 0.638334 0.707144
vt 0.653396 0.688004
vt 0.638334 0.745425
vt 0.653396 0.726285
vt 0.675097 0.707144
vt 0.660035 0.688004
vt 0.675097 0.745425
vt 0.660035 0.726285
vt 0.791349 0.516412
vt 0.791349 0.575312
vt 0.791349 0.634212
vt 0.522082 0.575312
vt 0.522082 0.634212
vt 0.653396 0.764566
vt 0.522082 0.693112
vt 0.653396 0.810911
vt 0.522082 0.810911
vt 0.779507 0.339713
vt 0.791349 0.339713
vn -0.037364 0.000030 0.999302
vn -0.037364 0.000030 0.999302
vn -0.037364 0.000030 0.999302
vn 0.924873 0.380277 0.000000
vn 0.924873 0.380277 0.000000
vn 0.995389 0.095924 0.000000
vn 0.995389 0.095924 0.000000
vn -1.000000 0.000000 0.000000
vn -0.871533 0.490337 0.000000
vn -0.871533 0.490337 0.000000
vn -1.000000 0.000000 0.000000
vn 0.974556 -0.224146 0.000000
vn 0.974556 -0.224146 0.000000
vn 1.000000 0.000000 0.000000
vn 1.000000 0.000000 0.000000
vn 1.000000 -0.000000 0.000000
vn 1.000000 -0.000000 0.000000
vn 0.974556 -0.224146 0.000000
vn 0.974556 -0.224146 0.000000
vn 1.000000 -0.000000 0.000000
vn 1.000000 -0.000000 0.000000
vn 1.000000 -0.000000 0.000000
vn 1.000000 -0.000000 0.000000
vn 1.000000 -0.000000 0.000000
vn 1.000000 -0.000000 0.000000
vn 1.000000 -0.000000 0.000000
vn 1.000000 -0.000000 0.000000
vn 1.000000 0.000000 0.000000
vn 1.000000 0.000000 0.000000
vn 1.000000 -0.000000 0.000000
vn 1.000000 -0.000000 0.000000
vn 1.000000 -0.000000 0.000000
vn 1.000000 -0.000000 0.000000
vn 1.000000 0.000000 0.000000
vn 1.000000 0.000000 0.000000
vn 0.993918 -0.110122 0.000000
vn 0.993918 -0.110122 0.000000
vn 1.000000 -0.000000 0.000000
vn 1.000000 -0.000000 0.000000
vn 0.997265 -0.073903 0.000000
vn 0.997265 -0.073903 0.000000
vn 0.993918 -0.110122 0.000000
vn 0.993918 -0.110122 0.000000
vn 0.997265 -0.073903 0.000000
vn 0.995389 0.095924 0.000000
vn 0.995389 0.095924 0.000000
vn 0.997265 -0.073903 0.000000
vn -0.333919 -0.942602 0.000000
vn -0.333919 -0.942602 0.000000
vn -0.333919 -0.942602 0.000000
vn -0.333919 -0.942602 0.000000
vn 0.000355 0.002027 -0.999998
vn 0.000355 0.002027 -0.999998
vn 0.003762 0.001234 -0.999992
vn 0.002188 0.001600 -0.999996
vn 0.002188 0.001601 0.999996
vn 0.003762 0.001234 0.999992
vn 0.000356 0.002027 0.999998
vn 0.000356 0.002027 0.999998
vn -0.999995 -0.003118 0.000000
vn -0.999995 -0.003118 0.000000
vn -0.999995 -0.003118 0.000000
vn -0.999995 -0.003118 0.000000
vn -0.000001 -1.000000 0.000000
vn -0.000001 -1.000000 0.000000
vn -0.000001 -1.000000 0.000000
vn -0.000001 -1.000000 0.000000
vn 0.999996 -0.002801 0.000000
vn 0.999996 -0.002801 0.000000
vn 0.999996 -0.002801 0.000000
vn 0.999996 -0.002801 0.000000
vn 0.000000 -1.000000 0.000000
vn 0.000000 -1.000000 0.000000
vn 0.000000 -1.000000 0.000000
vn 0.000000 -1.000000 0.000000
vn -0.871533 0.490337 0.000000
vn -0.818521 0.574477 0.000000
vn -0.818521 0.574477 0.000000
vn -0.871533 0.490337 0.000000
vn 0.001425 0.004036 0.999991
vn 0.001049 0.002972 0.999995
vn 0.000000 0.000000 1.000000
vn 1.000000 0.000000 0.000000
vn 1.000000 0.000000 0.000000
vn 1.000000 0.000000 0.000000
vn 1.000000 0.000000 0.000000
vn 0.001049 0.002972 -0.999995
vn 0.001425 0.004036 -0.999991
vn 0.000000 0.000000 -1.000000
vn -0.037364 0.000030 -0.999302
vn -0.037364 0.000030 -0.999302
vn -0.037364 0.000030 -0.999302
vn 0.007525 0.000359 0.999972
vn 0.003762 0.001234 0.999992
vn 0.002188 0.001601 0.999996
vn 0.007525 0.000359 0.999972
vn 0.001425 0.004036 -0.999991
vn 0.001049 0.002972 -0.999995
vn 0.003244 0.009192 -0.999952
vn 0.003244 0.009192 -0.999952
vn -1.000000 0.000000 0.000000
vn -1.000000 0.000000 0.000000
vn -1.000000 0.000000 0.000000
vn -1.000000 0.000000 0.000000
vn -1.000000 0.000000 0.000000
vn -1.000000 0.000000 0.000000
vn -1.000000 0.000000 0.000000
vn -1.000000 0.000000 0.000000
vn -1.000000 0.000000 0.000000
vn -1.000000 0.000000 0.000000
vn -1.000000 0.000000 0.000000
vn -1.000000 0.000000 0.000000
vn -1.000000 0.000000 0.000000
vn -1.000000 0.000000 0.000000
vn -1.000000 0.000000 0.000000
vn -1.000000 0.000000 0.000000
vn -1.000000 0.000000 0.000000
vn -1.000000 0.000000 0.000000
vn -1.000000 0.000000 0.000000
vn -1.000000 0.000000 0.000000
vn 0.011792 0.006397 -0.999910
vn 0.011792 0.006397 -0.999910
vn 0.011792 0.006397 -0.999910
vn 0.011792 0.006397 -0.999910
vn 0.012855 0.010116 0.999866
vn 0.012855 0.010116 0.999866
vn 0.012855 0.010116 0.999866
vn 0.012855 0.010116 -0.999866
vn 0.012855 0.010116 -0.999866
vn 0.012855 0.010116 -0.999866
vn 0.016324 0.007646 0.999838
vn 0.016324 0.007646 0.999838
vn 0.016324 0.007646 0.999838
vn 0.016324 0.007646 0.999838
vn 0.000000 0.000000 1.000000
vn 0.000000 0.000000 1.000000
vn 0.000000 0.000000 1.000000
vn 0.000000 -0.000000 1.000000
vn 0.000000 -0.000000 1.000000
vn 0.000000 -0.000000 1.000000
vn 0.000000 0.000000 -1.000000
vn 0.000000 0.000000 -1.000000
vn 0.000000 0.000000 -1.000000
vn 0.000000 0.000000 -1.000000
vn 0.000000 0.000000 -1.000000
vn 0.000000 0.000000 -1.000000
vn 0.016324 0.007646 -0.999838
vn 0.016324 0.007646 -0.999838
vn 0.016324 0.007646 -0.999838
vn 0.016324 0.007646 -0.999838
vn 0.015847 0.005512 -0.999859
vn 0.015847 0.005512 -0.999859
vn 0.015847 0.005512 -0.999859
vn 0.015847 0.005512 -0.999859
vn 0.012313 0.005238 -0.999910
vn 0.012313 0.005238 -0.999910
vn 0.012313 0.005238 -0.999910
vn 0.012313 0.005238 -0.999910
vn 0.015847 0.005512 0.999859
vn 0.015847 0.005512 0.999859
vn 0.015847 0.005512 0.999859
vn 0.015847 0.005512 0.999859
vn 0.012313 0.005238 0.999910
vn 0.012313 0.005238 0.999910
vn 0.012313 0.005238 0.999910
vn 0.012313 0.005238 0.999910
vn 0.008379 0.006793 0.999942
vn 0.008379 0.006793 0.999942
vn 0.008379 0.006793 0.999942
vn 0.008379 0.006793 0.999942
vn 0.003244 0.009192 0.999952
vn 0.003244 0.009192 0.999952
vn 0.001049 0.002972 0.999995
vn 0.001425 0.004036 0.999991
vn 0.008379 0.006793 -0.999942
vn 0.008379 0.006793 -0.999942
vn 0.008379 0.006793 -0.999942
vn 0.008379 0.006793 -0.999942
vn 0.011792 0.006397 0.999910
vn 0.011792 0.006397 0.999910
vn 0.011792 0.006397 0.999910
vn 0.011792 0.006397 0.999910
vn 0.007524 0.000359 -0.999972
vn 0.002188 0.001600 -0.999996
vn 0.003762 0.001234 -0.999992
vn 0.007524 0.000359 -0.999972
s off
g knife:pCube1
usemtl initialShadingGroup
f 25/1/1 32/2/2 2/3/3
f 2/4/4 8/5/5 24/6/6 25/7/7
f 46/8/8 3/9/9 5/10/10 37/11/11
f 22/12/12 9/13/13 6/14/14 4/15/15
f 21/16/16 10/17/17 9/18/18 22/19/19
f 20/20/20 11/21/21 10/22/22 21/23/23
f 19/24/24 12/25/25 11/26/26 20/27/27
f 18/28/28 13/29/29 12/30/30 19/31/31
f 17/32/32 14/33/33 13/34/34 18/35/35
f 16/36/36 15/37/37 14/38/38 17/39/39
f 26/40/40 23/41/41 15/42/42 16/43/43
f 26/44/44 25/45/45 24/46/46 23/47/47
f 33/48/48 27/49/49 28/50/50 34/51/51
f 28/52/52 27/53/53 29/54/54 30/55/55
f 32/56/56 31/57/57 33/58/58 34/59/59
f 33/60/60 31/61/61 29/62/62 27/63/63
f 31/64/64 1/65/65 7/66/66 29/67/67
f 28/68/68 30/69/69 32/70/70 34/71/71
f 30/72/72 8/73/73 2/74/74 32/75/75
f 3/76/76 35/77/77 36/78/78 5/79/79
f 3/80/80 4/81/81 35/82/82
f 4/83/83 6/84/84 36/85/85 35/86/86
f 6/87/87 5/88/88 36/89/89
f 30/90/90 24/91/91 8/92/92
f 1/93/93 31/94/94 32/2/95 42/95/96
f 5/96/97 6/97/98 9/98/99 37/99/100
f 1/100/101 42/101/102 41/102/103 7/103/104
f 43/104/105 40/105/106 41/102/107 42/101/108
f 44/106/109 39/107/110 40/105/111 43/104/112
f 45/108/113 38/109/114 39/107/115 44/106/116
f 46/8/117 37/11/118 38/109/119 45/108/120
f 30/90/121 41/110/122 23/111/123 24/91/124
f 17/112/125 26/113/126 16/114/127
f 23/111/128 14/115/129 15/116/130
f 42/95/131 26/113/132 17/112/133 43/117/134
f 19/118/135 17/112/136 18/119/137
f 21/120/138 19/118/139 20/121/140
f 14/115/141 12/122/142 13/123/143
f 12/122/144 10/124/145 11/125/146
f 40/126/147 14/115/148 23/111/149 41/110/150
f 39/127/151 12/122/152 14/115/153 40/126/154
f 38/128/155 10/124/156 12/122/157 39/127/158
f 43/117/159 17/112/160 19/118/161 44/129/162
f 44/129/163 19/118/164 21/120/165 45/130/166
f 45/130/167 21/120/168 22/131/169 46/132/170
f 46/132/171 22/131/172 4/133/173 3/134/174
f 37/99/175 9/98/176 10/124/177 38/128/178
f 42/95/179 32/2/180 25/1/181 26/113/182
f 41/110/183 30/90/184 29/135/185 7/136/186
