# This file uses centimeters as units for non-parametric coordinates.

mtllib Money.mtl
g default
v -0.125000 -0.001639 0.250000
v 0.125000 -0.001639 0.250000
v -0.125000 0.048361 0.250000
v 0.125000 0.048361 0.250000
v -0.125000 0.048361 -0.250000
v 0.125000 0.048361 -0.250000
v -0.125000 -0.001639 -0.250000
v 0.125000 -0.001639 -0.250000
vt 0.972331 0.605590
vt 0.641423 0.605590
vt 0.641423 0.539409
vt 0.972331 0.539409
vt 0.981815 0.007879
vt 0.981815 0.489300
vt 0.007169 0.489300
vt 0.007169 0.007879
vt 0.964269 0.707305
vt 0.633361 0.707305
vt 0.633361 0.641124
vt 0.964269 0.641124
vt 0.974756 0.004709
vt 0.974756 0.482113
vt 0.029621 0.482113
vt 0.029621 0.004709
vt 0.772994 0.704592
vt 0.111179 0.704592
vt 0.111179 0.638410
vt 0.772994 0.638410
vt 0.076499 0.537682
vt 0.738315 0.537682
vt 0.738315 0.603863
vt 0.076499 0.603863
vn 0.000000 0.000000 1.000000
vn 0.000000 0.000000 1.000000
vn 0.000000 0.000000 1.000000
vn 0.000000 0.000000 1.000000
vn 0.000000 1.000000 0.000000
vn 0.000000 1.000000 0.000000
vn 0.000000 1.000000 0.000000
vn 0.000000 1.000000 0.000000
vn 0.000000 0.000000 -1.000000
vn 0.000000 0.000000 -1.000000
vn 0.000000 0.000000 -1.000000
vn 0.000000 0.000000 -1.000000
vn 0.000000 -1.000000 0.000000
vn 0.000000 -1.000000 0.000000
vn 0.000000 -1.000000 0.000000
vn 0.000000 -1.000000 0.000000
vn 1.000000 0.000000 0.000000
vn 1.000000 0.000000 0.000000
vn 1.000000 0.000000 0.000000
vn 1.000000 0.000000 0.000000
vn -1.000000 0.000000 0.000000
vn -1.000000 0.000000 0.000000
vn -1.000000 0.000000 0.000000
vn -1.000000 0.000000 0.000000
s off
g pCube3
usemtl lambert4SG
f 1/1/1 2/2/2 4/3/3 3/4/4
f 3/5/5 4/6/6 6/7/7 5/8/8
f 5/9/9 6/10/10 8/11/11 7/12/12
f 7/13/13 8/14/14 2/15/15 1/16/16
f 2/17/17 8/18/18 6/19/19 4/20/20
f 7/21/21 1/22/22 3/23/23 5/24/24
