# This file uses centimeters as units for non-parametric coordinates.

mtllib railing.mtl
g default
v -0.250000 3.250000 4.000000
v 0.250000 3.250000 4.000000
v -0.250000 3.500000 4.000000
v 0.250000 3.500000 4.000000
v -0.250000 3.500000 -4.000000
v 0.250000 3.500000 -4.000000
v -0.250000 3.250000 -4.000000
v 0.250000 3.250000 -4.000000
v -0.125000 0.004411 3.855535
v 0.125000 0.004411 3.855535
v -0.125000 3.254411 3.855535
v 0.125000 3.254411 3.855535
v -0.125000 3.254411 3.605535
v 0.125000 3.254411 3.605535
v -0.125000 0.004411 3.605535
v 0.125000 0.004411 3.605535
v -0.125000 0.004411 -3.593570
v 0.125000 0.004411 -3.593570
v -0.125000 3.254411 -3.593570
v 0.125000 3.254411 -3.593570
v -0.125000 3.254411 -3.843570
v 0.125000 3.254411 -3.843570
v -0.125000 0.004411 -3.843570
v 0.125000 0.004411 -3.843570
vt 0.083331 0.566465
vt 0.021079 0.566465
vt 0.021079 0.535340
vt 0.083331 0.535340
vt 0.001869 0.992712
vt 0.001869 0.930461
vt 0.997885 0.930462
vt 0.997886 0.992712
vt 0.082842 0.505938
vt 0.020591 0.505938
vt 0.020591 0.474813
vt 0.082842 0.474813
vt 0.997885 0.862990
vt 0.997885 0.925241
vt 0.001869 0.925241
vt 0.001869 0.862990
vt 0.997885 0.856034
vt 0.001869 0.856034
vt 0.001869 0.824909
vt 0.997885 0.824909
vt 0.001869 0.786663
vt 0.997885 0.786663
vt 0.997885 0.817789
vt 0.001869 0.817789
vt 0.038437 0.334477
vt 0.038437 0.303351
vt 0.443068 0.303351
vt 0.443068 0.334477
vt 0.640292 0.417047
vt 0.671417 0.417047
vt 0.671417 0.448173
vt 0.640292 0.448173
vt 0.443068 0.265105
vt 0.443068 0.296231
vt 0.038437 0.296231
vt 0.038437 0.265105
vt 0.634558 0.448173
vt 0.603433 0.448173
vt 0.603433 0.417047
vt 0.634558 0.417047
vt 0.036591 0.256139
vt 0.036591 0.225013
vt 0.441222 0.225013
vt 0.441222 0.256139
vt 0.036591 0.217893
vt 0.036591 0.186768
vt 0.441222 0.186768
vt 0.441222 0.217893
vt 0.453605 0.336323
vt 0.453605 0.305198
vt 0.858236 0.305198
vt 0.858236 0.336323
vt 0.566574 0.417047
vt 0.597700 0.417047
vt 0.597700 0.448173
vt 0.566574 0.448173
vt 0.858236 0.266952
vt 0.858236 0.298077
vt 0.453605 0.298077
vt 0.453605 0.266952
vt 0.560841 0.448173
vt 0.529715 0.448173
vt 0.529715 0.417047
vt 0.560841 0.417047
vt 0.453605 0.259832
vt 0.453605 0.228706
vt 0.858236 0.228706
vt 0.858236 0.259832
vt 0.453605 0.221586
vt 0.453605 0.190460
vt 0.858236 0.190460
vt 0.858236 0.221586
vn 0.000000 0.000000 1.000000
vn 0.000000 0.000000 1.000000
vn 0.000000 0.000000 1.000000
vn 0.000000 0.000000 1.000000
vn 0.000000 1.000000 0.000000
vn 0.000000 1.000000 0.000000
vn 0.000000 1.000000 0.000000
vn 0.000000 1.000000 0.000000
vn 0.000000 0.000000 -1.000000
vn 0.000000 0.000000 -1.000000
vn 0.000000 0.000000 -1.000000
vn 0.000000 0.000000 -1.000000
vn 0.000000 -1.000000 0.000000
vn 0.000000 -1.000000 0.000000
vn 0.000000 -1.000000 0.000000
vn 0.000000 -1.000000 0.000000
vn 1.000000 0.000000 0.000000
vn 1.000000 0.000000 0.000000
vn 1.000000 0.000000 0.000000
vn 1.000000 0.000000 0.000000
vn -1.000000 0.000000 0.000000
vn -1.000000 0.000000 0.000000
vn -1.000000 0.000000 0.000000
vn -1.000000 0.000000 0.000000
vn 0.000000 0.000000 1.000000
vn 0.000000 0.000000 1.000000
vn 0.000000 0.000000 1.000000
vn 0.000000 0.000000 1.000000
vn 0.000000 1.000000 0.000000
vn 0.000000 1.000000 0.000000
vn 0.000000 1.000000 0.000000
vn 0.000000 1.000000 0.000000
vn 0.000000 0.000000 -1.000000
vn 0.000000 0.000000 -1.000000
vn 0.000000 0.000000 -1.000000
vn 0.000000 0.000000 -1.000000
vn 0.000000 -1.000000 0.000000
vn 0.000000 -1.000000 0.000000
vn 0.000000 -1.000000 0.000000
vn 0.000000 -1.000000 0.000000
vn 1.000000 0.000000 0.000000
vn 1.000000 0.000000 0.000000
vn 1.000000 0.000000 0.000000
vn 1.000000 0.000000 0.000000
vn -1.000000 0.000000 0.000000
vn -1.000000 0.000000 0.000000
vn -1.000000 0.000000 0.000000
vn -1.000000 0.000000 0.000000
vn 0.000000 0.000000 1.000000
vn 0.000000 0.000000 1.000000
vn 0.000000 0.000000 1.000000
vn 0.000000 0.000000 1.000000
vn 0.000000 1.000000 0.000000
vn 0.000000 1.000000 0.000000
vn 0.000000 1.000000 0.000000
vn 0.000000 1.000000 0.000000
vn 0.000000 0.000000 -1.000000
vn 0.000000 0.000000 -1.000000
vn 0.000000 0.000000 -1.000000
vn 0.000000 0.000000 -1.000000
vn 0.000000 -1.000000 0.000000
vn 0.000000 -1.000000 0.000000
vn 0.000000 -1.000000 0.000000
vn 0.000000 -1.000000 0.000000
vn 1.000000 0.000000 0.000000
vn 1.000000 0.000000 0.000000
vn 1.000000 0.000000 0.000000
vn 1.000000 0.000000 0.000000
vn -1.000000 0.000000 0.000000
vn -1.000000 0.000000 0.000000
vn -1.000000 0.000000 0.000000
vn -1.000000 0.000000 0.000000
s off
g pCube2
usemtl lambert2SG
f 1/1/1 2/2/2 4/3/3 3/4/4
f 3/5/5 4/6/6 6/7/7 5/8/8
f 5/9/9 6/10/10 8/11/11 7/12/12
f 7/13/13 8/14/14 2/15/15 1/16/16
f 2/17/17 8/18/18 6/19/19 4/20/20
f 7/21/21 1/22/22 3/23/23 5/24/24
f 9/25/25 10/26/26 12/27/27 11/28/28
f 11/29/29 12/30/30 14/31/31 13/32/32
f 13/33/33 14/34/34 16/35/35 15/36/36
f 15/37/37 16/38/38 10/39/39 9/40/40
f 10/41/41 16/42/42 14/43/43 12/44/44
f 15/45/45 9/46/46 11/47/47 13/48/48
f 17/49/49 18/50/50 20/51/51 19/52/52
f 19/53/53 20/54/54 22/55/55 21/56/56
f 21/57/57 22/58/58 24/59/59 23/60/60
f 23/61/61 24/62/62 18/63/63 17/64/64
f 18/65/65 24/66/66 22/67/67 20/68/68
f 23/69/69 17/70/70 19/71/71 21/72/72
