# This file uses centimeters as units for non-parametric coordinates.

mtllib roof.mtl
g default
v -80.000000 1.500000 65.000000
v 80.000000 1.500000 65.000000
v -80.000000 2.500000 65.000000
v 80.000000 2.500000 65.000000
v -80.000000 2.500000 -65.000000
v 80.000000 2.500000 -65.000000
v -80.000000 1.500000 -65.000000
v 80.000000 1.500000 -65.000000
vt 0.001636 0.498361
vt 0.001636 0.001992
vt 0.004738 0.001992
vt 0.004738 0.498361
vt 0.005205 0.994083
vt 0.005205 0.006325
vt 0.994797 0.006325
vt 0.994797 0.994083
vt 0.001679 0.498361
vt 0.001679 0.001992
vt 0.004781 0.001992
vt 0.004781 0.498361
vt 0.005205 0.993879
vt 0.005205 0.006120
vt 0.994796 0.006120
vt 0.994796 0.993879
vt 0.000916 0.904939
vt 0.000916 0.501639
vt 0.004019 0.501639
vt 0.004019 0.904939
vt 0.004652 0.501639
vt 0.004652 0.904939
vt 0.001549 0.904939
vt 0.001549 0.501639
vn 0.000000 0.000000 1.000000
vn 0.000000 0.000000 1.000000
vn 0.000000 0.000000 1.000000
vn 0.000000 0.000000 1.000000
vn 0.000000 1.000000 0.000000
vn 0.000000 1.000000 0.000000
vn 0.000000 1.000000 0.000000
vn 0.000000 1.000000 0.000000
vn 0.000000 0.000000 -1.000000
vn 0.000000 0.000000 -1.000000
vn 0.000000 0.000000 -1.000000
vn 0.000000 0.000000 -1.000000
vn 0.000000 -1.000000 0.000000
vn 0.000000 -1.000000 0.000000
vn 0.000000 -1.000000 0.000000
vn 0.000000 -1.000000 0.000000
vn 1.000000 0.000000 0.000000
vn 1.000000 0.000000 0.000000
vn 1.000000 0.000000 0.000000
vn 1.000000 0.000000 0.000000
vn -1.000000 0.000000 0.000000
vn -1.000000 0.000000 0.000000
vn -1.000000 0.000000 0.000000
vn -1.000000 0.000000 0.000000
s off
g pCube1
usemtl lambert2SG
f 1/1/1 2/2/2 4/3/3 3/4/4
f 3/5/5 4/6/6 6/7/7 5/8/8
f 5/9/9 6/10/10 8/11/11 7/12/12
f 7/13/13 8/14/14 2/15/15 1/16/16
f 2/17/17 8/18/18 6/19/19 4/20/20
f 7/21/21 1/22/22 3/23/23 5/24/24
