# This file uses centimeters as units for non-parametric coordinates.

mtllib shelf-1.mtl
g default
v -3.999998 0.000000 0.250000
v 4.000003 0.000000 0.250000
v -3.999998 0.300000 0.250000
v 4.000003 0.300000 0.250000
v -3.999998 1.200000 0.250000
v 4.000003 1.200000 0.250000
v -3.999998 1.500000 0.250000
v 4.000003 1.500000 0.250000
v -3.999998 2.400000 0.250000
v 4.000003 2.400000 0.250000
v -3.999998 2.700000 0.250000
v 4.000003 2.700000 0.250000
v -3.999998 3.600000 0.250000
v 4.000003 3.600000 0.250000
v -3.999998 3.900000 0.250000
v 4.000003 3.900000 0.250000
v -3.999998 4.800000 0.250000
v 4.000003 4.800000 0.250000
v -3.999998 5.099999 0.250000
v 4.000003 5.099999 0.250000
v -3.999998 6.000000 0.250000
v 4.000003 6.000000 0.250000
v -3.999998 6.000000 -0.250000
v 4.000003 6.000000 -0.250000
v -3.999998 5.100000 -0.250000
v 4.000003 5.100000 -0.250000
v -3.999998 4.800000 -0.250000
v 4.000003 4.800000 -0.250000
v -3.999998 3.900000 -0.250000
v 4.000003 3.900000 -0.250000
v -3.999998 3.600001 -0.250000
v 4.000003 3.600001 -0.250000
v -3.999998 2.700000 -0.250000
v 4.000003 2.700000 -0.250000
v -3.999998 2.400000 -0.250000
v 4.000003 2.400000 -0.250000
v -3.999998 1.500000 -0.250000
v 4.000003 1.500000 -0.250000
v -3.999998 1.200000 -0.250000
v 4.000003 1.200000 -0.250000
v -3.999998 0.300000 -0.250000
v 4.000003 0.300000 -0.250000
v -3.999998 0.000000 -0.250000
v 4.000003 0.000000 -0.250000
v -3.377626 0.300002 -1.500000
v 3.377496 0.300002 -1.500000
v 3.377496 0.000000 -1.500000
v -3.377626 0.000000 -1.500000
v -3.377626 5.100000 -1.500000
v 3.377496 5.100000 -1.500000
v 3.377496 4.799999 -1.500000
v -3.377626 4.799999 -1.500000
v -3.377626 3.900000 -1.500000
v 3.377496 3.900000 -1.500000
v 3.377496 3.600001 -1.500000
v -3.377626 3.600001 -1.500000
v -3.377626 2.700001 -1.500000
v 3.377496 2.700001 -1.500000
v 3.377496 2.400000 -1.500000
v -3.377626 2.400000 -1.500000
v -3.377626 1.500000 -1.500000
v 3.377496 1.500000 -1.500000
v 3.377496 1.200000 -1.500000
v -3.377626 1.200000 -1.500000
vt 0.983937 0.001575
vt 0.983937 0.178267
vt 0.964060 0.178267
vt 0.957434 0.178267
vt 0.937556 0.178267
vt 0.930930 0.178267
vt 0.911052 0.178267
vt 0.904426 0.178267
vt 0.884548 0.178267
vt 0.877923 0.178267
vt 0.858045 0.178267
vt 0.851419 0.178267
vt 0.851419 0.001575
vt 0.858045 0.001575
vt 0.877923 0.001575
vt 0.884548 0.001575
vt 0.904426 0.001575
vt 0.911052 0.001575
vt 0.930930 0.001575
vt 0.937556 0.001575
vt 0.957434 0.001575
vt 0.964060 0.001575
vt 0.951225 0.106848
vt 0.485556 0.106848
vt 0.485556 0.077743
vt 0.951225 0.077743
vt 0.071383 0.309790
vt 0.071383 0.775459
vt 0.018995 0.775459
vt 0.018995 0.309790
vt 0.770706 0.098271
vt 0.377500 0.098271
vt 0.377500 0.080808
vt 0.770706 0.080808
vt 0.207947 0.525029
vt 0.207947 0.990698
vt 0.155559 0.990698
vt 0.155559 0.525029
vt 0.770706 0.121869
vt 0.377500 0.121869
vt 0.377500 0.104406
vt 0.770706 0.104406
vt 0.131801 0.309790
vt 0.131801 0.775459
vt 0.079413 0.775459
vt 0.079413 0.309790
vt 0.770706 0.051075
vt 0.377500 0.051075
vt 0.377500 0.033612
vt 0.770706 0.033612
vt 0.149424 0.525029
vt 0.149424 0.990698
vt 0.097036 0.990698
vt 0.097036 0.525029
vt 0.770706 0.074673
vt 0.377500 0.074673
vt 0.377500 0.057210
vt 0.770706 0.057210
vt 0.090901 0.525029
vt 0.090901 0.990698
vt 0.038513 0.990698
vt 0.038513 0.525029
vt 0.770706 0.145467
vt 0.377500 0.145467
vt 0.377500 0.128004
vt 0.770706 0.128004
vt 0.212591 0.775459
vt 0.212591 0.309790
vt 0.241696 0.309790
vt 0.241696 0.775459
vt 0.139830 0.739231
vt 0.139830 0.346025
vt 0.048765 0.088550
vt 0.048765 0.066036
vt 0.062274 0.066036
vt 0.062274 0.088550
vt 0.048765 0.009750
vt 0.062274 0.009750
vt 0.102800 0.088550
vt 0.102800 0.066036
vt 0.116309 0.066036
vt 0.116309 0.088550
vt 0.102800 0.009750
vt 0.116309 0.009750
vt 0.156835 0.088550
vt 0.156835 0.066036
vt 0.170343 0.066036
vt 0.170343 0.088550
vt 0.156835 0.009750
vt 0.170343 0.009750
vt 0.210869 0.088550
vt 0.210869 0.066036
vt 0.224378 0.066036
vt 0.224378 0.088550
vt 0.210870 0.009750
vt 0.224378 0.009750
vt 0.264904 0.088550
vt 0.264904 0.066036
vt 0.278413 0.066036
vt 0.278413 0.088550
vt 0.264904 0.009750
vt 0.278413 0.009750
vt 0.318939 0.088550
vt 0.318939 0.066036
vt 0.048765 0.115811
vt 0.048765 0.093297
vt 0.062274 0.093297
vt 0.062274 0.115811
vt 0.102800 0.093296
vt 0.102800 0.115811
vt 0.062274 0.172097
vt 0.048765 0.172097
vt 0.116309 0.093297
vt 0.116309 0.115811
vt 0.156835 0.093297
vt 0.156835 0.115811
vt 0.116309 0.172097
vt 0.102800 0.172097
vt 0.170343 0.093297
vt 0.170343 0.115811
vt 0.210869 0.093297
vt 0.210870 0.115811
vt 0.170343 0.172097
vt 0.156835 0.172097
vt 0.224378 0.093297
vt 0.224378 0.115811
vt 0.264904 0.093297
vt 0.264904 0.115811
vt 0.224378 0.172097
vt 0.210869 0.172097
vt 0.278413 0.093297
vt 0.278413 0.115811
vt 0.318939 0.093297
vt 0.318939 0.115811
vt 0.278413 0.172097
vt 0.264904 0.172097
vt 0.248972 0.775459
vt 0.248972 0.309790
vt 0.321733 0.346025
vt 0.321733 0.739231
vt 0.328879 0.775459
vt 0.328879 0.309790
vt 0.401640 0.346025
vt 0.401640 0.739231
vt 0.481547 0.309790
vt 0.481547 0.775459
vt 0.408786 0.739231
vt 0.408786 0.346025
vt 0.488693 0.775459
vt 0.488693 0.309790
vt 0.561454 0.346025
vt 0.561454 0.739231
vt 0.641361 0.309790
vt 0.641361 0.775459
vt 0.568600 0.739231
vt 0.568600 0.346025
vt 0.648507 0.775459
vt 0.648507 0.309790
vt 0.721268 0.346025
vt 0.721268 0.739231
vt 0.801175 0.309790
vt 0.801175 0.775459
vt 0.728414 0.739231
vt 0.728414 0.346025
vt 0.808321 0.775459
vt 0.808321 0.309790
vt 0.881082 0.346025
vt 0.881082 0.739231
vt 0.960989 0.309790
vt 0.960989 0.775459
vt 0.888228 0.739231
vt 0.888228 0.346025
vn -0.000000 0.000000 1.000000
vn -0.000000 0.000000 1.000000
vn -0.000000 0.000000 1.000000
vn -0.000000 0.000000 1.000000
vn -0.000000 0.000000 1.000000
vn -0.000000 0.000000 1.000000
vn -0.000000 0.000000 1.000000
vn -0.000000 0.000000 1.000000
vn -0.000000 0.000000 1.000000
vn -0.000000 0.000000 1.000000
vn -0.000000 0.000000 1.000000
vn -0.000000 0.000000 1.000000
vn -0.000000 0.000000 1.000000
vn -0.000000 0.000000 1.000000
vn -0.000000 0.000000 1.000000
vn -0.000000 0.000000 1.000000
vn -0.000000 0.000000 1.000000
vn -0.000000 0.000000 1.000000
vn -0.000000 0.000000 1.000000
vn -0.000000 0.000000 1.000000
vn -0.000000 0.000000 1.000000
vn -0.000000 0.000000 1.000000
vn 0.000000 1.000000 0.000000
vn 0.000000 1.000000 0.000000
vn 0.000000 1.000000 0.000000
vn 0.000000 1.000000 0.000000
vn 0.000000 0.000000 -1.000000
vn 0.000000 0.000000 -1.000000
vn 0.000000 0.000000 -1.000000
vn 0.000000 0.000000 -1.000000
vn 0.000000 0.000000 -1.000000
vn 0.000000 0.000000 -1.000000
vn 0.000000 0.000000 -1.000000
vn 0.000000 0.000000 -1.000000
vn 0.000000 0.000000 -1.000000
vn 0.000000 0.000000 -1.000000
vn 0.000000 0.000000 -1.000000
vn 0.000000 0.000000 -1.000000
vn 0.000000 0.000000 -1.000000
vn 0.000000 0.000000 -1.000000
vn 0.000000 0.000000 -1.000000
vn 0.000000 0.000000 -1.000000
vn 0.000000 0.000000 -1.000000
vn 0.000000 0.000000 -1.000000
vn 0.000000 0.000000 -1.000000
vn 0.000000 0.000000 -1.000000
vn 0.000000 0.000000 -1.000000
vn 0.000000 0.000000 -1.000000
vn 0.000000 0.000000 -1.000000
vn 0.000000 0.000000 -1.000000
vn 0.000000 0.000000 -1.000000
vn 0.000000 0.000000 -1.000000
vn 0.000000 0.000000 -1.000000
vn 0.000000 0.000000 -1.000000
vn 0.000000 0.000000 -1.000000
vn 0.000000 0.000000 -1.000000
vn 0.000000 0.000000 -1.000000
vn 0.000000 0.000000 -1.000000
vn 0.000000 0.000000 -1.000000
vn 0.000000 0.000000 -1.000000
vn 0.000000 0.000000 -1.000000
vn 0.000000 0.000000 -1.000000
vn 0.000000 0.000000 -1.000000
vn 0.000000 0.000000 -1.000000
vn 0.000000 0.000000 -1.000000
vn 0.000000 0.000000 -1.000000
vn 0.000000 -1.000000 -0.000000
vn 0.000000 -1.000000 -0.000000
vn 0.000000 -1.000000 0.000000
vn 0.000000 -1.000000 0.000000
vn 1.000000 0.000000 0.000000
vn 0.942166 0.000000 -0.335146
vn 0.982146 0.000000 -0.188121
vn 1.000000 0.000000 0.000000
vn 1.000000 0.000000 0.000000
vn 0.982146 0.000000 -0.188121
vn 0.982146 0.000000 -0.188121
vn 1.000000 0.000000 0.000000
vn 1.000000 0.000000 0.000000
vn 0.982146 0.000000 -0.188121
vn 0.982146 0.000000 -0.188121
vn 1.000000 0.000000 0.000000
vn 1.000000 0.000000 0.000000
vn 0.982146 0.000000 -0.188121
vn 0.982146 0.000000 -0.188121
vn 1.000000 0.000000 0.000000
vn 1.000000 0.000000 0.000000
vn 0.982146 0.000000 -0.188121
vn 0.982146 0.000000 -0.188121
vn 1.000000 0.000000 0.000000
vn 1.000000 0.000000 0.000000
vn 1.000000 0.000000 0.000000
vn -0.942189 0.000000 -0.335081
vn -1.000000 0.000000 0.000000
vn -1.000000 0.000000 0.000000
vn -0.982153 0.000000 -0.188082
vn -1.000000 0.000000 0.000000
vn -0.982153 0.000000 -0.188081
vn -1.000000 0.000000 0.000000
vn -0.982153 0.000000 -0.188081
vn -1.000000 0.000000 0.000000
vn -0.982153 0.000000 -0.188082
vn -1.000000 0.000000 0.000000
vn -0.982153 0.000000 -0.188081
vn -1.000000 0.000000 0.000000
vn -0.982153 0.000000 -0.188081
vn -1.000000 0.000000 0.000000
vn -0.982154 0.000000 -0.188081
vn -1.000000 0.000000 0.000000
vn -0.982153 0.000000 -0.188082
vn -1.000000 0.000000 0.000000
vn -0.982154 0.000000 -0.188081
vn -1.000000 0.000000 0.000000
vn -1.000000 0.000000 0.000000
vn 0.000000 1.000000 0.000001
vn 0.000000 1.000000 0.000001
vn 0.000000 1.000000 0.000001
vn 0.000000 1.000000 0.000001
vn 0.895140 0.000000 -0.445784
vn 0.895140 0.000000 -0.445784
vn 0.000000 -1.000000 -0.000000
vn 0.000000 -1.000000 -0.000000
vn -0.895179 0.000000 -0.445707
vn -0.895179 0.000000 -0.445707
vn 0.000000 1.000000 -0.000000
vn 0.000000 1.000000 -0.000000
vn 0.000000 1.000000 -0.000000
vn 0.000000 1.000000 -0.000000
vn 0.895141 0.000000 -0.445784
vn 0.895141 0.000000 -0.445784
vn 0.000000 -1.000000 0.000000
vn 0.000000 -1.000000 0.000000
vn 0.000000 -1.000000 0.000000
vn 0.000000 -1.000000 0.000000
vn -0.895179 0.000000 -0.445707
vn -0.895179 0.000000 -0.445707
vn 0.000000 1.000000 0.000000
vn 0.000000 1.000000 0.000000
vn 0.000000 1.000000 0.000000
vn 0.000000 1.000000 0.000000
vn 0.895140 0.000000 -0.445784
vn 0.895140 0.000000 -0.445784
vn 0.000000 -1.000000 -0.000000
vn 0.000000 -1.000000 -0.000000
vn 0.000000 -1.000000 -0.000000
vn 0.000000 -1.000000 -0.000000
vn -0.895179 0.000000 -0.445707
vn -0.895179 0.000000 -0.445707
vn 0.000000 1.000000 0.000000
vn 0.000000 1.000000 0.000000
vn 0.000000 1.000000 0.000000
vn 0.000000 1.000000 0.000000
vn 0.895141 0.000000 -0.445784
vn 0.895141 0.000000 -0.445784
vn 0.000000 -1.000000 0.000000
vn 0.000000 -1.000000 0.000000
vn 0.000000 -1.000000 0.000000
vn 0.000000 -1.000000 0.000000
vn -0.895179 0.000000 -0.445707
vn -0.895179 0.000000 -0.445707
vn 0.000000 1.000000 -0.000000
vn 0.000000 1.000000 -0.000000
vn 0.000000 1.000000 -0.000000
vn 0.000000 1.000000 -0.000000
vn 0.895140 0.000000 -0.445784
vn 0.895140 0.000000 -0.445784
vn 0.000000 -1.000000 0.000000
vn 0.000000 -1.000000 0.000000
vn 0.000000 -1.000000 0.000000
vn 0.000000 -1.000000 0.000000
vn -0.895179 0.000000 -0.445707
vn -0.895179 0.000000 -0.445707
s off
g pCube8
usemtl lambert10SG
f 22/1/1 21/2/2 19/3/3 17/4/4 15/5/5 13/6/6 11/7/7 9/8/8 7/9/9 5/10/10 3/11/11 1/12/12 2/13/13 4/14/14 6/15/15 8/16/16 10/17/17 12/18/18 14/19/19 16/20/20 18/21/21 20/22/22
f 21/23/23 22/24/24 24/25/25 23/26/26
f 26/27/27 25/28/28 23/29/29 24/30/30
f 49/31/31 50/32/32 51/33/33 52/34/34
f 30/35/35 29/36/36 27/37/37 28/38/38
f 53/39/39 54/40/40 55/41/41 56/42/42
f 34/43/43 33/44/44 31/45/45 32/46/46
f 57/47/47 58/48/48 59/49/49 60/50/50
f 38/51/51 37/52/52 35/53/53 36/54/54
f 61/55/55 62/56/56 63/57/57 64/58/58
f 42/59/59 41/60/60 39/61/61 40/62/62
f 45/63/63 46/64/64 47/65/65 48/66/66
s 1
f 43/67/67 44/68/68 2/69/69 1/70/70
s 2
f 2/73/71 44/74/72 42/75/73 4/76/74
f 6/79/75 4/76/74 42/75/73 40/80/76
f 6/79/75 40/80/76 38/81/77 8/82/78
f 10/85/79 8/82/78 38/81/77 36/86/80
f 10/85/79 36/86/80 34/87/81 12/88/82
f 14/91/83 12/88/82 34/87/81 32/92/84
f 14/91/83 32/92/84 30/93/85 16/94/86
f 18/97/87 16/94/86 30/93/85 28/98/88
f 18/97/87 28/98/88 26/99/89 20/100/90
f 22/103/91 20/100/90 26/99/89 24/104/92
s 3
f 43/105/93 1/106/94 3/107/95 41/108/96
f 3/107/95 5/109/97 39/110/98 41/108/96
f 39/110/98 5/109/97 7/113/99 37/114/100
f 7/113/99 9/115/101 35/116/102 37/114/100
f 35/116/102 9/115/101 11/119/103 33/120/104
f 11/119/103 13/121/105 31/122/106 33/120/104
f 31/122/106 13/121/105 15/125/107 29/126/108
f 15/125/107 17/127/109 27/128/110 29/126/108
f 27/128/110 17/127/109 19/131/111 25/132/112
f 19/131/111 21/133/113 23/134/114 25/132/112
s off
f 41/137/115 42/138/116 46/139/117 45/140/118
s 2
f 42/75/73 44/74/72 47/77/119 46/78/120
s 1
f 44/68/68 43/67/67 48/71/121 47/72/122
s 3
f 43/105/93 41/108/96 45/111/123 48/112/124
s off
f 25/141/125 26/142/126 50/143/127 49/144/128
s 2
f 26/99/89 28/98/88 51/101/129 50/102/130
s off
f 28/145/131 27/146/132 52/147/133 51/148/134
s 3
f 27/128/110 25/132/112 49/135/135 52/136/136
s off
f 29/149/137 30/150/138 54/151/139 53/152/140
s 2
f 30/93/85 32/92/84 55/95/141 54/96/142
s off
f 32/153/143 31/154/144 56/155/145 55/156/146
s 3
f 31/122/106 29/126/108 53/129/147 56/130/148
s off
f 33/157/149 34/158/150 58/159/151 57/160/152
s 2
f 34/87/81 36/86/80 59/89/153 58/90/154
s off
f 36/161/155 35/162/156 60/163/157 59/164/158
s 3
f 35/116/102 33/120/104 57/123/159 60/124/160
s off
f 37/165/161 38/166/162 62/167/163 61/168/164
s 2
f 38/81/77 40/80/76 63/83/165 62/84/166
s off
f 40/169/167 39/170/168 64/171/169 63/172/170
s 3
f 39/110/98 37/114/100 61/117/171 64/118/172
