# This file uses centimeters as units for non-parametric coordinates.

mtllib tree.mtl
g default
v -1.750000 3.941646 1.750000
v 1.750000 3.941646 1.750000
v -1.750000 7.441646 1.750000
v 1.750000 7.441646 1.750000
v -1.750000 7.441646 -1.750000
v 1.750000 7.441646 -1.750000
v -1.750000 3.941646 -1.750000
v 1.750000 3.941646 -1.750000
v -1.000000 -0.001769 1.000000
v 1.000000 -0.001769 1.000000
v -1.000000 1.998231 1.000000
v 1.000000 1.998231 1.000000
v -1.000000 1.998231 -1.000000
v 1.000000 1.998231 -1.000000
v -1.000000 -0.001769 -1.000000
v 1.000000 -0.001769 -1.000000
v -0.500000 2.004176 0.500000
v 0.500000 2.004176 0.500000
v -0.500000 4.004176 0.500000
v 0.500000 4.004176 0.500000
v -0.500000 4.004176 -0.500000
v 0.500000 4.004176 -0.500000
v -0.500000 2.004176 -0.500000
v 0.500000 2.004176 -0.500000
vt 0.221452 0.435104
vt 0.366878 0.435104
vt 0.366878 0.580530
vt 0.221452 0.580530
vt 0.520472 0.738846
vt 0.383962 0.738846
vt 0.383962 0.600462
vt 0.520472 0.600462
vt 0.215969 0.738696
vt 0.063342 0.738696
vt 0.063342 0.599198
vt 0.215969 0.599198
vt 0.676441 0.737812
vt 0.543619 0.737812
vt 0.543619 0.596838
vt 0.676441 0.596838
vt 0.227277 0.752493
vt 0.366244 0.752493
vt 0.366244 0.893056
vt 0.227277 0.893056
vt 0.223744 0.593841
vt 0.372140 0.593841
vt 0.372140 0.742237
vt 0.223744 0.742237
vt 0.236787 0.213542
vt 0.393354 0.213542
vt 0.393354 0.351916
vt 0.236787 0.351916
vt 0.586002 0.350486
vt 0.407044 0.350486
vt 0.407044 0.210713
vt 0.586002 0.210713
vt 0.216781 0.181410
vt 0.057415 0.181410
vt 0.057415 0.022043
vt 0.216781 0.022043
vt 0.405900 0.189076
vt 0.226942 0.189076
vt 0.226942 0.010118
vt 0.405900 0.010118
vt 0.411833 0.022074
vt 0.575397 0.022074
vt 0.575397 0.185638
vt 0.411833 0.185638
vt 0.062082 0.208350
vt 0.206054 0.208350
vt 0.206054 0.352322
vt 0.062082 0.352322
vt 0.637265 0.010095
vt 0.992463 0.010095
vt 0.992463 0.365293
vt 0.637265 0.365293
vt 0.988487 0.366879
vt 0.645003 0.366879
vt 0.645003 0.023395
vt 0.988487 0.023395
vt 0.991339 0.366093
vt 0.638802 0.366093
vt 0.638802 0.013555
vt 0.991339 0.013555
vt 0.987021 0.356932
vt 0.642137 0.356932
vt 0.642137 0.012048
vt 0.987021 0.012048
vt 0.640553 0.015099
vt 0.985743 0.015099
vt 0.985743 0.360289
vt 0.640553 0.360289
vt 0.646593 0.018803
vt 0.988634 0.018803
vt 0.988634 0.360845
vt 0.646593 0.360845
vn 0.000000 0.000000 1.000000
vn 0.000000 0.000000 1.000000
vn 0.000000 0.000000 1.000000
vn 0.000000 0.000000 1.000000
vn 0.000000 1.000000 0.000000
vn 0.000000 1.000000 0.000000
vn 0.000000 1.000000 0.000000
vn 0.000000 1.000000 0.000000
vn 0.000000 0.000000 -1.000000
vn 0.000000 0.000000 -1.000000
vn 0.000000 0.000000 -1.000000
vn 0.000000 0.000000 -1.000000
vn 0.000000 -1.000000 0.000000
vn 0.000000 -1.000000 0.000000
vn 0.000000 -1.000000 0.000000
vn 0.000000 -1.000000 0.000000
vn 1.000000 0.000000 0.000000
vn 1.000000 0.000000 0.000000
vn 1.000000 0.000000 0.000000
vn 1.000000 0.000000 0.000000
vn -1.000000 0.000000 0.000000
vn -1.000000 0.000000 0.000000
vn -1.000000 0.000000 0.000000
vn -1.000000 0.000000 0.000000
vn 0.000000 0.000000 1.000000
vn 0.000000 0.000000 1.000000
vn 0.000000 0.000000 1.000000
vn 0.000000 0.000000 1.000000
vn 0.000000 1.000000 0.000000
vn 0.000000 1.000000 0.000000
vn 0.000000 1.000000 0.000000
vn 0.000000 1.000000 0.000000
vn 0.000000 0.000000 -1.000000
vn 0.000000 0.000000 -1.000000
vn 0.000000 0.000000 -1.000000
vn 0.000000 0.000000 -1.000000
vn 0.000000 -1.000000 0.000000
vn 0.000000 -1.000000 0.000000
vn 0.000000 -1.000000 0.000000
vn 0.000000 -1.000000 0.000000
vn 1.000000 0.000000 0.000000
vn 1.000000 0.000000 0.000000
vn 1.000000 0.000000 0.000000
vn 1.000000 0.000000 0.000000
vn -1.000000 0.000000 0.000000
vn -1.000000 0.000000 0.000000
vn -1.000000 0.000000 0.000000
vn -1.000000 0.000000 0.000000
vn 0.000000 0.000000 1.000000
vn 0.000000 0.000000 1.000000
vn 0.000000 0.000000 1.000000
vn 0.000000 0.000000 1.000000
vn 0.000000 1.000000 0.000000
vn 0.000000 1.000000 0.000000
vn 0.000000 1.000000 0.000000
vn 0.000000 1.000000 0.000000
vn 0.000000 0.000000 -1.000000
vn 0.000000 0.000000 -1.000000
vn 0.000000 0.000000 -1.000000
vn 0.000000 0.000000 -1.000000
vn 0.000000 -1.000000 0.000000
vn 0.000000 -1.000000 0.000000
vn 0.000000 -1.000000 0.000000
vn 0.000000 -1.000000 0.000000
vn 1.000000 0.000000 0.000000
vn 1.000000 0.000000 0.000000
vn 1.000000 0.000000 0.000000
vn 1.000000 0.000000 0.000000
vn -1.000000 0.000000 0.000000
vn -1.000000 0.000000 0.000000
vn -1.000000 0.000000 0.000000
vn -1.000000 0.000000 0.000000
s off
g pCube4
usemtl lambert3SG
f 1/1/1 2/2/2 4/3/3 3/4/4
f 3/5/5 4/6/6 6/7/7 5/8/8
f 5/9/9 6/10/10 8/11/11 7/12/12
f 7/13/13 8/14/14 2/15/15 1/16/16
f 2/17/17 8/18/18 6/19/19 4/20/20
f 7/21/21 1/22/22 3/23/23 5/24/24
f 9/25/25 10/26/26 12/27/27 11/28/28
f 11/29/29 12/30/30 14/31/31 13/32/32
f 13/33/33 14/34/34 16/35/35 15/36/36
f 15/37/37 16/38/38 10/39/39 9/40/40
f 10/41/41 16/42/42 14/43/43 12/44/44
f 15/45/45 9/46/46 11/47/47 13/48/48
f 17/49/49 18/50/50 20/51/51 19/52/52
f 19/53/53 20/54/54 22/55/55 21/56/56
f 21/57/57 22/58/58 24/59/59 23/60/60
f 23/61/61 24/62/62 18/63/63 17/64/64
f 18/65/65 24/66/66 22/67/67 20/68/68
f 23/69/69 17/70/70 19/71/71 21/72/72
