# This file uses centimeters as units for non-parametric coordinates.

mtllib trees.mtl
g default
v -1.500000 0.040101 1.500000
v 1.500000 0.040101 1.500000
v -1.500000 15.451181 1.500000
v 1.500000 15.451181 1.500000
v -1.500000 15.451181 -1.500000
v 1.500000 15.451181 -1.500000
v -1.500000 0.040101 -1.500000
v 1.500000 0.040101 -1.500000
v -3.000000 14.614695 3.000000
v 3.000000 14.614695 3.000000
v -3.000000 20.614695 3.000000
v 3.000000 20.614695 3.000000
v -3.000000 20.614695 -3.000000
v 3.000000 20.614695 -3.000000
v -3.000000 14.614695 -3.000000
v 3.000000 14.614695 -3.000000
v -4.958724 10.160740 4.958724
v 4.958724 10.160740 4.958724
v -4.958724 17.598827 4.958724
v 4.958724 17.598827 4.958724
v -4.958724 17.598827 -4.958724
v 4.958724 17.598827 -4.958724
v -4.958724 10.160740 -4.958724
v 4.958724 10.160740 -4.958724
vt 0.804863 0.031855
vt 0.977433 0.040661
vt 0.921524 0.028611
vt 0.828635 0.357981
vt 0.665832 0.015949
vt 0.994213 0.110561
vt 0.780530 0.027718
vt 0.722058 0.357429
vt 0.779414 0.133727
vt 0.884186 0.133535
vt 0.899158 0.042273
vt 0.891766 0.359525
vt 0.746511 0.031860
vt 0.746511 0.355541
vt 0.361397 0.446874
vt 0.208198 0.600087
vt 0.223981 0.731488
vt 0.230172 0.750953
vt 0.369918 0.890730
vt 0.380858 0.595689
vt 0.522959 0.737593
vt 0.539303 0.600470
vt 0.679081 0.740247
vt 0.539303 0.740247
vt 0.367315 0.597200
vt 0.367315 0.731488
vt 0.225174 0.446874
vt 0.225174 0.583097
vt 0.371865 0.597625
vt 0.221551 0.591752
vt 0.532618 0.737881
vt 0.379685 0.593913
vt 0.523727 0.738361
vt 0.220990 0.749497
vt 0.371345 0.892782
vt 0.225142 0.455934
vt 0.365289 0.584443
vt 0.225168 0.584433
vt 0.680242 0.594556
vt 0.680234 0.737881
vt 0.213939 0.597624
vt 0.213939 0.737403
vt 0.365299 0.455926
vt 0.532609 0.594566
vt 0.220986 0.892794
vt 0.067360 0.591738
vt 0.371364 0.749472
vt 0.379673 0.738379
vt 0.221560 0.741451
vt 0.523709 0.593910
vt 0.067360 0.741455
vt 0.371865 0.737402
vt 0.679081 0.600470
vt 0.223981 0.597200
vt 0.380858 0.737593
vt 0.071976 0.600087
vt 0.522959 0.595689
vt 0.230172 0.890730
vt 0.208198 0.736309
vt 0.369918 0.750953
vt 0.071976 0.736309
vt 0.361397 0.583097
vt 0.883022 0.028122
vt 0.836044 0.040695
vt 0.658927 0.356566
vt 0.924661 0.041075
vt 0.724318 0.017497
vt 0.899238 0.110306
vt 0.976742 0.360405
vt 0.977853 0.034885
vt 0.915218 0.360919
vt 0.804863 0.355545
vn 0.000000 0.000000 1.000000
vn 0.000000 0.000000 1.000000
vn 0.000000 0.000000 1.000000
vn 0.000000 0.000000 1.000000
vn 0.000000 1.000000 0.000000
vn 0.000000 1.000000 0.000000
vn 0.000000 1.000000 0.000000
vn 0.000000 1.000000 0.000000
vn 0.000000 0.000000 -1.000000
vn 0.000000 0.000000 -1.000000
vn 0.000000 0.000000 -1.000000
vn 0.000000 0.000000 -1.000000
vn 0.000000 -1.000000 0.000000
vn 0.000000 -1.000000 0.000000
vn 0.000000 -1.000000 0.000000
vn 0.000000 -1.000000 0.000000
vn 1.000000 0.000000 0.000000
vn 1.000000 0.000000 0.000000
vn 1.000000 0.000000 0.000000
vn 1.000000 0.000000 0.000000
vn -1.000000 0.000000 0.000000
vn -1.000000 0.000000 0.000000
vn -1.000000 0.000000 0.000000
vn -1.000000 0.000000 0.000000
vn 0.000000 0.000000 1.000000
vn 0.000000 0.000000 1.000000
vn 0.000000 0.000000 1.000000
vn 0.000000 0.000000 1.000000
vn 0.000000 1.000000 0.000000
vn 0.000000 1.000000 0.000000
vn 0.000000 1.000000 0.000000
vn 0.000000 1.000000 0.000000
vn 0.000000 0.000000 -1.000000
vn 0.000000 0.000000 -1.000000
vn 0.000000 0.000000 -1.000000
vn 0.000000 0.000000 -1.000000
vn 0.000000 -1.000000 0.000000
vn 0.000000 -1.000000 0.000000
vn 0.000000 -1.000000 0.000000
vn 0.000000 -1.000000 0.000000
vn 1.000000 0.000000 0.000000
vn 1.000000 0.000000 0.000000
vn 1.000000 0.000000 0.000000
vn 1.000000 0.000000 0.000000
vn -1.000000 0.000000 0.000000
vn -1.000000 0.000000 0.000000
vn -1.000000 0.000000 0.000000
vn -1.000000 0.000000 0.000000
vn 0.000000 0.000000 1.000000
vn 0.000000 0.000000 1.000000
vn 0.000000 0.000000 1.000000
vn 0.000000 0.000000 1.000000
vn 0.000000 1.000000 0.000000
vn 0.000000 1.000000 0.000000
vn 0.000000 1.000000 0.000000
vn 0.000000 1.000000 0.000000
vn 0.000000 0.000000 -1.000000
vn 0.000000 0.000000 -1.000000
vn 0.000000 0.000000 -1.000000
vn 0.000000 0.000000 -1.000000
vn 0.000000 -1.000000 0.000000
vn 0.000000 -1.000000 0.000000
vn 0.000000 -1.000000 0.000000
vn 0.000000 -1.000000 0.000000
vn 1.000000 0.000000 0.000000
vn 1.000000 0.000000 0.000000
vn 1.000000 0.000000 0.000000
vn 1.000000 0.000000 0.000000
vn -1.000000 0.000000 0.000000
vn -1.000000 0.000000 0.000000
vn -1.000000 0.000000 0.000000
vn -1.000000 0.000000 0.000000
s off
g polySurface1
usemtl lambert2SG
f 1/66/1 2/2/2 4/69/3 3/71/4
f 3/3/5 4/70/6 6/6/7 5/68/8
f 5/5/9 6/67/10 8/8/11 7/65/12
f 7/7/13 8/63/14 2/10/15 1/9/16
f 2/64/17 8/11/18 6/12/19 4/4/20
f 7/13/21 1/1/22 3/72/23 5/14/24
f 9/56/25 10/16/26 12/59/27 11/61/28
f 11/18/29 12/60/30 14/19/31 13/58/32
f 13/20/33 14/57/34 16/21/35 15/55/36
f 15/22/37 16/53/38 10/23/39 9/24/40
f 10/54/41 16/25/42 14/26/43 12/17/44
f 15/27/45 9/15/46 11/62/47 13/28/48
f 17/46/49 18/30/50 20/49/51 19/51/52
f 19/32/53 20/50/54 22/33/55 21/48/56
f 21/34/57 22/47/58 24/35/59 23/45/60
f 23/36/61 24/43/62 18/37/63 17/38/64
f 18/44/65 24/39/66 22/40/67 20/31/68
f 23/41/69 17/29/70 19/52/71 21/42/72
