# This file uses centimeters as units for non-parametric coordinates.

mtllib tv.mtl
g default
v -1.000000 0.010079 1.000000
v 0.000000 0.010079 1.000000
v 1.000000 0.010079 1.000000
v -1.000000 1.710179 1.000000
v 0.000000 2.010079 1.000000
v 1.000000 2.010079 1.000000
v -1.000000 1.710179 -1.000000
v 0.000000 2.010079 -1.000000
v 1.000000 2.010079 -1.000000
v -1.000000 0.010079 -1.000000
v 0.000000 0.010079 -1.000000
v 1.000000 0.010079 -1.000000
vt 0.983233 0.671315
vt 0.960928 0.319565
vt 0.998817 0.319565
vt 0.923039 0.395343
vt 0.960928 0.395343
vt -0.007854 0.992292
vt 0.923039 0.471120
vt 0.960928 0.471120
vt 0.998817 0.471120
vt 0.923039 0.546898
vt 0.960928 0.546898
vt 0.998817 0.546898
vt 0.923039 0.622676
vt 0.960928 0.622676
vt 0.998817 0.622676
vt 1.004935 0.022145
vt 1.004935 0.992292
vt 0.925233 0.671315
vt 0.925233 0.750649
vt 0.998817 0.546898
vt -0.007854 0.022145
vt 0.960928 0.546898
vt 0.960928 0.546898
vt 0.960928 0.546898
vt 0.960928 0.319565
vt 0.960928 0.622676
vt 0.923039 0.546898
vt 0.923039 0.319565
vt 0.998817 0.471120
vt 0.960928 0.471120
vt 0.960928 0.471120
vt 0.960928 0.471120
vt 0.923039 0.471120
vt 0.998817 0.395343
vt 0.998817 0.395343
vt 0.960928 0.395343
vt 0.960928 0.395343
vt 0.960928 0.395343
vt 0.923039 0.395343
vt 0.983233 0.750649
vn 0.000000 0.000000 1.000000
vn 0.000000 0.000000 1.000000
vn 0.000000 0.000000 1.000000
vn 0.000000 0.000000 1.000000
vn 0.000000 0.000000 1.000000
vn 0.000000 0.000000 1.000000
vn -0.287261 0.957852 0.000000
vn -0.148293 0.988944 0.000000
vn -0.148293 0.988944 0.000000
vn -0.287261 0.957852 0.000000
vn 0.000000 1.000000 0.000000
vn 0.000000 1.000000 0.000000
vn 0.000000 0.000000 -1.000000
vn 0.000000 0.000000 -1.000000
vn 0.000000 0.000000 -1.000000
vn 0.000000 0.000000 -1.000000
vn 0.000000 0.000000 -1.000000
vn 0.000000 0.000000 -1.000000
vn 0.000000 -1.000000 0.000000
vn 0.000000 -1.000000 0.000000
vn 0.000000 -1.000000 0.000000
vn 0.000000 -1.000000 0.000000
vn 0.000000 -1.000000 0.000000
vn 0.000000 -1.000000 0.000000
vn 1.000000 0.000000 0.000000
vn 1.000000 0.000000 0.000000
vn 1.000000 0.000000 0.000000
vn 1.000000 0.000000 0.000000
vn -1.000000 0.000000 0.000000
vn -1.000000 0.000000 0.000000
vn -1.000000 0.000000 0.000000
vn -1.000000 0.000000 0.000000
s 1
g pCube1
usemtl lambert4SG
f 1/28/1 2/2/2 5/37/3 4/39/4
f 2/25/2 3/3/5 6/34/6 5/36/3
s 2
f 4/4/7 5/38/8 8/31/9 7/33/10
f 5/5/8 6/35/11 9/9/12 8/30/9
s 3
f 7/7/13 8/32/14 11/23/15 10/27/16
f 8/8/14 9/29/17 12/12/18 11/22/15
s 4
f 10/10/19 11/24/20 2/14/21 1/13/22
f 11/11/20 12/20/23 3/15/24 2/26/21
s off
f 3/21/25 12/16/26 9/17/27 6/6/28
f 10/18/29 1/1/30 4/40/31 7/19/32
