# This file uses centimeters as units for non-parametric coordinates.

mtllib BackWall.mtl
g default
v 36.000000 0.000000 1.000000
v 36.000000 0.000000 0.333333
v 36.000000 0.000000 -0.333333
v 36.000000 0.000000 -1.000000
v 36.000000 4.267121 1.000000
v 36.000000 4.267121 0.333333
v 36.000000 4.267121 -0.333333
v 36.000000 4.267121 -1.000000
v 36.000000 8.534243 1.000000
v 36.000000 8.534243 0.333333
v 36.000000 8.534243 -0.333333
v 36.000000 8.534243 -1.000000
v 36.000000 12.801364 1.000000
v 36.000000 12.801364 0.333333
v 36.000000 12.801364 -0.333333
v 36.000000 12.801364 -1.000000
v 12.000000 12.801364 1.000000
v 12.000000 12.801364 0.333333
v 12.000000 12.801364 -0.333333
v 12.000000 12.801364 -1.000000
v -12.000000 12.801364 1.000000
v -12.000000 12.801364 0.333333
v -12.000000 12.801364 -0.333333
v -12.000000 12.801364 -1.000000
v -36.000000 12.801364 1.000000
v -36.000000 12.801364 0.333333
v -36.000000 12.801364 -0.333333
v -36.000000 12.801364 -1.000000
v -36.000000 8.534243 1.000000
v -36.000000 8.534243 0.333333
v -36.000000 8.534243 -0.333333
v -36.000000 8.534243 -1.000000
v -36.000000 4.267121 1.000000
v -36.000000 4.267121 0.333333
v -36.000000 4.267121 -0.333333
v -36.000000 4.267121 -1.000000
v -36.000000 0.000000 1.000000
v -36.000000 0.000000 0.333333
v -36.000000 0.000000 -0.333333
v -36.000000 0.000000 -1.000000
v -12.000000 0.000000 1.000000
v -12.000000 0.000000 0.333333
v -12.000000 0.000000 -0.333333
v -12.000000 0.000000 -1.000000
v 12.000000 0.000000 1.000000
v 12.000000 0.000000 0.333333
v 12.000000 0.000000 -0.333333
v 12.000000 0.000000 -1.000000
v -12.000000 4.267121 -1.000000
v 12.000000 4.267121 -1.000000
v -12.000000 8.534243 -1.000000
v 12.000000 8.534243 -1.000000
v -12.000000 4.267121 1.000000
v 12.000000 4.267121 1.000000
v -12.000000 8.534243 1.000000
v 12.000000 8.534243 1.000000
vt 0.437396 0.001992
vt 0.446618 0.001992
vt 0.446618 0.061022
vt 0.437396 0.061022
vt 0.455840 0.001992
vt 0.455840 0.061022
vt 0.446618 0.120051
vt 0.437396 0.120051
vt 0.465063 0.001992
vt 0.465063 0.061022
vt 0.455840 0.120051
vt 0.446618 0.179080
vt 0.437396 0.179080
vt 0.465063 0.120051
vt 0.455840 0.179080
vt 0.465063 0.179080
vt 0.001079 0.395292
vt 0.001079 0.386070
vt 0.333084 0.386070
vt 0.333084 0.395292
vt 0.001079 0.376847
vt 0.333084 0.376847
vt 0.665089 0.386070
vt 0.665089 0.395292
vt 0.001079 0.367625
vt 0.333084 0.367625
vt 0.665089 0.376847
vt 0.997095 0.386070
vt 0.997095 0.395292
vt 0.665089 0.367625
vt 0.997095 0.376847
vt 0.997095 0.367625
vt 0.500182 0.179080
vt 0.490959 0.179080
vt 0.490959 0.120051
vt 0.500182 0.120051
vt 0.481737 0.179080
vt 0.481737 0.120051
vt 0.490959 0.061022
vt 0.500182 0.061022
vt 0.472515 0.179080
vt 0.472515 0.120051
vt 0.481737 0.061022
vt 0.490959 0.001992
vt 0.500182 0.001992
vt 0.472515 0.061022
vt 0.481737 0.001992
vt 0.472515 0.001992
vt 0.997088 0.440768
vt 0.997088 0.449990
vt 0.665083 0.449990
vt 0.665083 0.440768
vt 0.997088 0.459212
vt 0.665083 0.459212
vt 0.333078 0.449990
vt 0.333078 0.440768
vt 0.997088 0.468435
vt 0.665083 0.468435
vt 0.333078 0.459212
vt 0.001072 0.449990
vt 0.001072 0.440768
vt 0.333078 0.468435
vt 0.001072 0.459212
vt 0.001072 0.468435
vt 0.334186 1.067812
vt 0.002180 1.067812
vt 0.002180 0.854908
vt 0.334186 0.854908
vt 0.002180 0.642003
vt 0.334186 0.642003
vt 0.666191 1.067812
vt 0.666191 0.854908
vt 0.002180 0.429098
vt 0.334186 0.429098
vt 0.666191 0.642003
vt 0.998196 1.067813
vt 0.998196 0.854907
vt 0.666191 0.429098
vt 0.998196 0.642003
vt 0.998196 0.429098
vt 0.000602 0.003467
vt 0.332608 0.003467
vt 0.332608 0.162524
vt 0.000602 0.162524
vt 0.664613 0.003467
vt 0.664613 0.162524
vt 0.332608 0.321582
vt 0.000602 0.321582
vt 0.996618 0.003467
vt 0.996618 0.162525
vt 0.664613 0.321582
vt 0.332608 0.480639
vt 0.000602 0.480639
vt 0.996618 0.321582
vt 0.664613 0.480639
vt 0.996618 0.480639
vn 1.000000 0.000000 0.000000
vn 1.000000 0.000000 0.000000
vn 1.000000 0.000000 0.000000
vn 1.000000 0.000000 0.000000
vn 1.000000 0.000000 0.000000
vn 1.000000 0.000000 0.000000
vn 1.000000 0.000000 0.000000
vn 1.000000 0.000000 0.000000
vn 1.000000 0.000000 0.000000
vn 1.000000 0.000000 0.000000
vn 1.000000 0.000000 0.000000
vn 1.000000 0.000000 0.000000
vn 1.000000 0.000000 0.000000
vn 1.000000 0.000000 0.000000
vn 1.000000 0.000000 0.000000
vn 1.000000 0.000000 0.000000
vn 0.000000 1.000000 0.000000
vn 0.000000 1.000000 0.000000
vn 0.000000 1.000000 0.000000
vn 0.000000 1.000000 0.000000
vn 0.000000 1.000000 0.000000
vn 0.000000 1.000000 0.000000
vn 0.000000 1.000000 0.000000
vn 0.000000 1.000000 0.000000
vn 0.000000 1.000000 0.000000
vn 0.000000 1.000000 0.000000
vn 0.000000 1.000000 0.000000
vn 0.000000 1.000000 0.000000
vn 0.000000 1.000000 0.000000
vn 0.000000 1.000000 0.000000
vn 0.000000 1.000000 0.000000
vn 0.000000 1.000000 0.000000
vn -1.000000 0.000000 -0.000000
vn -1.000000 0.000000 -0.000000
vn -1.000000 0.000000 -0.000000
vn -1.000000 0.000000 -0.000000
vn -1.000000 0.000000 -0.000000
vn -1.000000 0.000000 -0.000000
vn -1.000000 0.000000 -0.000000
vn -1.000000 0.000000 -0.000000
vn -1.000000 0.000000 -0.000000
vn -1.000000 0.000000 -0.000000
vn -1.000000 0.000000 -0.000000
vn -1.000000 0.000000 -0.000000
vn -1.000000 0.000000 -0.000000
vn -1.000000 0.000000 -0.000000
vn -1.000000 0.000000 -0.000000
vn -1.000000 0.000000 -0.000000
vn 0.000000 -1.000000 0.000000
vn 0.000000 -1.000000 0.000000
vn 0.000000 -1.000000 0.000000
vn 0.000000 -1.000000 0.000000
vn 0.000000 -1.000000 0.000000
vn 0.000000 -1.000000 0.000000
vn 0.000000 -1.000000 0.000000
vn 0.000000 -1.000000 0.000000
vn 0.000000 -1.000000 0.000000
vn 0.000000 -1.000000 0.000000
vn 0.000000 -1.000000 0.000000
vn 0.000000 -1.000000 0.000000
vn 0.000000 -1.000000 0.000000
vn 0.000000 -1.000000 0.000000
vn 0.000000 -1.000000 0.000000
vn 0.000000 -1.000000 0.000000
vn 0.000000 0.000000 -1.000000
vn 0.000000 0.000000 -1.000000
vn 0.000000 0.000000 -1.000000
vn 0.000000 0.000000 -1.000000
vn 0.000000 0.000000 -1.000000
vn 0.000000 0.000000 -1.000000
vn 0.000000 0.000000 -1.000000
vn 0.000000 0.000000 -1.000000
vn 0.000000 0.000000 -1.000000
vn 0.000000 0.000000 -1.000000
vn 0.000000 0.000000 -1.000000
vn 0.000000 0.000000 -1.000000
vn 0.000000 0.000000 -1.000000
vn 0.000000 0.000000 -1.000000
vn 0.000000 0.000000 -1.000000
vn 0.000000 0.000000 -1.000000
vn -0.000000 0.000000 1.000000
vn -0.000000 0.000000 1.000000
vn -0.000000 0.000000 1.000000
vn -0.000000 0.000000 1.000000
vn -0.000000 0.000000 1.000000
vn -0.000000 0.000000 1.000000
vn -0.000000 0.000000 1.000000
vn -0.000000 0.000000 1.000000
vn -0.000000 0.000000 1.000000
vn -0.000000 0.000000 1.000000
vn -0.000000 0.000000 1.000000
vn -0.000000 0.000000 1.000000
vn -0.000000 0.000000 1.000000
vn -0.000000 0.000000 1.000000
vn -0.000000 0.000000 1.000000
vn -0.000000 0.000000 1.000000
s 1
g pCube1
usemtl lambert2SG
f 1/1/1 2/2/2 6/3/3 5/4/4
f 2/2/2 3/5/5 7/6/6 6/3/3
f 3/5/5 4/9/7 8/10/8 7/6/6
f 5/4/4 6/3/3 10/7/9 9/8/10
f 6/3/3 7/6/6 11/11/11 10/7/9
f 7/6/6 8/10/8 12/14/12 11/11/11
f 9/8/10 10/7/9 14/12/13 13/13/14
f 10/7/9 11/11/11 15/15/15 14/12/13
f 11/11/11 12/14/12 16/16/16 15/15/15
s 2
f 13/17/17 14/18/18 18/19/19 17/20/20
f 14/18/18 15/21/21 19/22/22 18/19/19
f 15/21/21 16/25/23 20/26/24 19/22/22
f 17/20/20 18/19/19 22/23/25 21/24/26
f 18/19/19 19/22/22 23/27/27 22/23/25
f 19/22/22 20/26/24 24/30/28 23/27/27
f 21/24/26 22/23/25 26/28/29 25/29/30
f 22/23/25 23/27/27 27/31/31 26/28/29
f 23/27/27 24/30/28 28/32/32 27/31/31
s 3
f 25/33/33 26/34/34 30/35/35 29/36/36
f 26/34/34 27/37/37 31/38/38 30/35/35
f 27/37/37 28/41/39 32/42/40 31/38/38
f 29/36/36 30/35/35 34/39/41 33/40/42
f 30/35/35 31/38/38 35/43/43 34/39/41
f 31/38/38 32/42/40 36/46/44 35/43/43
f 33/40/42 34/39/41 38/44/45 37/45/46
f 34/39/41 35/43/43 39/47/47 38/44/45
f 35/43/43 36/46/44 40/48/48 39/47/47
s 4
f 37/49/49 38/50/50 42/51/51 41/52/52
f 38/50/50 39/53/53 43/54/54 42/51/51
f 39/53/53 40/57/55 44/58/56 43/54/54
f 41/52/52 42/51/51 46/55/57 45/56/58
f 42/51/51 43/54/54 47/59/59 46/55/57
f 43/54/54 44/58/56 48/62/60 47/59/59
f 45/56/58 46/55/57 2/60/61 1/61/62
f 46/55/57 47/59/59 3/63/63 2/60/61
f 47/59/59 48/62/60 4/64/64 3/63/63
s 5
f 44/65/65 40/66/66 36/67/67 49/68/68
f 48/71/69 44/65/65 49/68/68 50/72/70
f 4/76/71 48/71/69 50/72/70 8/77/72
f 49/68/68 36/67/67 32/69/73 51/70/74
f 50/72/70 49/68/68 51/70/74 52/75/75
f 8/77/72 50/72/70 52/75/75 12/79/76
f 51/70/74 32/69/73 28/73/77 24/74/78
f 52/75/75 51/70/74 24/74/78 20/78/79
f 12/79/76 52/75/75 20/78/79 16/80/80
s 6
f 37/81/81 41/82/82 53/83/83 33/84/84
f 41/82/82 45/85/85 54/86/86 53/83/83
f 45/85/85 1/89/87 5/90/88 54/86/86
f 33/84/84 53/83/83 55/87/89 29/88/90
f 53/83/83 54/86/86 56/91/91 55/87/89
f 54/86/86 5/90/88 9/94/92 56/91/91
f 29/88/90 55/87/89 21/92/93 25/93/94
f 55/87/89 56/91/91 17/95/95 21/92/93
f 56/91/91 9/94/92 13/96/96 17/95/95
